<?xml version="1.0" encoding="UTF-8"?>
<!-- Created with Inkscape (http://www.inkscape.org/) -->
<svg width="100" height="20" version="1.1" xmlns="http://www.w3.org/2000/svg" xmlns:cc="http://creativecommons.org/ns#" xmlns:dc="http://purl.org/dc/elements/1.1/" xmlns:rdf="http://www.w3.org/1999/02/22-rdf-syntax-ns#">
 <metadata>
  <rdf:RDF>
   <cc:Work rdf:about="">
    <dc:format>image/svg+xml</dc:format>
    <dc:type rdf:resource="http://purl.org/dc/dcmitype/StillImage"/>
    <dc:title/>
   </cc:Work>
  </rdf:RDF>
 </metadata>
 <path d="m22.9 5.18c0.0902-0.027 0.169 0 0.262-0.107 0.0936-0.111-0.247-0.513 0.148-0.541s0.137 0.389 0.284 0.491 0.258 0.016 0.337 0.16 0.0611 0.304 0.0874 0.448-0.0194 0.284-0.0194 0.284l-1.32-0.026-0.0097-0.636s0.138-0.044 0.228-0.072z" fill="#e6d5ba" fill-rule="evenodd"/>
 <path d="m21.3 2.04c-1.18-0.01-3.29 0.867-3.29 1.29s-0.084 5.06-0.084 5.35c0 0.333 0.42 0.647 0.42 0.95v0.882c0.146 0.143 0.394 0.257 0.706 0.345v0.591c0 0.121 0.0992 0.218 0.222 0.218s0.223-0.097 0.223-0.218v-0.49c0.96 0.171 2.39 0.16 3.43-0.01v0.534c0 0.121 0.0992 0.218 0.222 0.218 0.123 0 0.222-0.097 0.222-0.218v-0.62c0.429-0.097 0.672-0.226 0.891-0.384 0-0.335 0.0504-0.676 0.0504-1.02 0-0.347 0.454-0.447 0.454-0.844v-5.34c0-0.399-2.28-1.21-3.46-1.22zm-2.49 1.4h0.647c0.267 0 0.482 0.211 0.482 0.474v1.46c0 0.263-0.215 0.474-0.482 0.474h-0.647c-0.267 0-0.483-0.211-0.483-0.474v-1.46c0-0.263 0.215-0.474 0.483-0.474zm2.22 0h0.647c0.267 0 0.483 0.211 0.483 0.474v1.46c0 0.263-0.215 0.474-0.483 0.474h-0.647c-0.267 0-0.483-0.211-0.483-0.474v-1.46c0-0.263 0.215-0.474 0.483-0.474zm2.22 0h0.647c0.267 0 0.483 0.211 0.483 0.474v1.46c0 0.263-0.215 0.474-0.483 0.474h-0.647c-0.267 0-0.482-0.211-0.482-0.474v-1.46c0-0.263 0.215-0.474 0.482-0.474z" fill="#d5bd99" fill-rule="evenodd"/>
 <g fill="#e5cba4">
  <path d="m47.1 11.4c-0.0049 0.013 0.037 0.349 0.0918 0.746 0.0543 0.398 0.123 0.972 0.15 1.28 0.0693 0.743 0.0975 2.49 0.0332 2.04-0.0076-0.053-0.0523-0.391-0.102-0.752-0.0996-0.734-0.0882-0.441 0.0215 0.539 0.0808 0.723 0.091 0.936 0.0566 1.5-0.0252 0.42-0.0524 0.496-0.0859 0.242-0.027-0.205-0.38-2.02-0.449-2.31-0.0771-0.324-0.0835-0.235-0.0117 0.174 0.066 0.374 0.0623 0.69-0.0059 0.504-0.0649-0.178-0.373-1.46-0.561-2.33-0.102-0.473-0.184-0.841-0.184-0.818 5.07e-4 0.122 0.199 1.16 0.387 2.04 0.267 1.24 0.381 2.06 0.393 2.81l0.0098 0.541-0.309-0.588-0.309-0.588-0.0508-0.465c-0.0381-0.352-0.0998-0.655-0.258-1.25-0.115-0.43-0.222-0.811-0.238-0.85-0.0378-0.088-0.0407-0.1 0.197 0.928 0.189 0.818 0.277 1.38 0.215 1.38-0.015 1e-3 -0.0352-0.027-0.0449-0.066-0.0096-0.038-0.0548-0.117-0.102-0.174l-0.0859-0.102 0.0606 0.131c0.0332 0.072 0.0974 0.209 0.143 0.305l0.082 0.174 0.0742 1.37c0.0291 0.541 0.0476 0.784 0.0644 1.03h-0.219c-0.112-0.241-0.224-0.521-0.246-0.629-0.0291-0.137-0.0477-0.424-0.0566-0.916-0.0072-0.394-0.0253-0.856-0.0391-1.03-0.0194-0.233-0.0228-0.07-0.0137 0.645 0.0064 0.618 0.0025 0.957-0.0156 0.957-0.0153 6e-4 -0.0619-0.169-0.102-0.379-0.0658-0.348-0.0718-0.449-0.0742-1.14-0.0013-0.416-0.0105-0.74-0.0195-0.726-0.0102 0.017-0.0343-0.15-0.0547-0.369-0.0458-0.493-0.207-1.7-0.223-1.66-6e-3 0.017 0.0214 0.324 0.0625 0.682 0.0412 0.358 0.0907 0.856 0.109 1.11 0.0318 0.428 0.0306 0.48-0.0254 0.785-0.0678 0.37-0.255 1.1-0.283 1.1-0.0102 6e-4 -0.0522-0.161-0.0938-0.357-0.0889-0.419-0.0983-0.345-0.0156 0.119 0.0308 0.177 0.0566 0.346 0.0566 0.369 1.84e-4 0.105-0.108-0.306-0.109-0.418-7.7e-4 -0.067-0.0118-0.121-0.0234-0.121-0.0115 5e-4 -0.0367-0.113-0.0586-0.25-0.0246-0.165-0.0443-0.221-0.0566-0.166-0.0198 0.092-0.0656-0.063-0.221-0.77-0.106-0.482-0.108-0.56-0.0293-1.07 0.0339-0.223 0.0716-0.484 0.084-0.58 0.0386-0.317-0.035 0.01-0.139 0.619-0.0529 0.311-0.0998 0.57-0.107 0.57s-0.0652-0.275-0.127-0.615c-0.0617-0.341-0.115-0.611-0.119-0.598-0.0078 0.022 0.114 0.848 0.18 1.22 0.0412 0.235 0.0392 0.264-0.0723 1.07-0.0631 0.455-0.123 0.83-0.135 0.83-0.0117 0-0.0792-0.262-0.15-0.586l-0.129-0.59 0.105-0.568c0.058-0.313 0.099-0.584 0.0918-0.6-0.0071-0.018-0.0603 0.199-0.119 0.479-0.139 0.662-0.155 0.496-0.0449-0.504 0.0463-0.425 0.0799-0.783 0.0742-0.799-6e-3 -0.015-0.0666 0.406-0.137 0.934-0.114 0.863-0.228 1.47-0.26 1.39-0.0058-0.017-0.024-0.181-0.0391-0.365l-0.0254-0.336 0.0039 0.459 0.0039 0.459-0.326 0.896c-0.179 0.493-0.337 0.896-0.35 0.896-0.0589 0-0.0561-0.264 0.0078-0.725 0.0378-0.273 0.0729-0.606 0.0801-0.74 0.0107-0.208 0.0041-0.188-0.0469 0.141-0.0329 0.212-0.0758 0.48-0.0957 0.596l-0.0371 0.211 0.0137-0.242c0.0201-0.377 0.136-1.02 0.18-0.996 0.0219 0.011 0.029-3e-4 0.0176-0.029-0.011-0.027-0.0081-0.094 0.0078-0.146 0.0201-0.068 0.0196-0.093 0-0.092-0.0184 5e-4 -0.015-0.091 0.0078-0.252 0.0562-0.399 0.02-0.349-0.0566 0.078-0.0384 0.213-0.0842 0.379-0.0996 0.389-0.0704 0 0.0413-1.2 0.248-2.69 0.0565-0.405 0.098-0.737 0.0918-0.736-0.0064 2e-4 -0.0717 0.363-0.145 0.807-0.073 0.444-0.138 0.808-0.145 0.809-0.0073 4e-4 -0.0078-0.212-2e-3 -0.471 0.0164-0.703-0.0155-0.493-0.0488 0.322-0.0268 0.652-0.157 2.07-0.213 2.32-0.0396 0.176-0.0657 0.017-0.084-0.518-0.0183-0.554 0.0257-1.37 0.102-1.89 0.0627-0.432 0.0331-0.377-0.0527 0.1-0.0506 0.282-0.0682 0.342-0.0586 0.195 0.0367-0.574 0.127-1.42 0.213-1.97 0.106-0.681 0.0652-0.602-0.0606 0.119-0.181 1.04-0.281 2.33-0.289 3.75l-0.0059 0.777-0.104 0.242c-0.0572 0.132-0.115 0.258-0.129 0.283-0.0166 0.027-0.0305-0.319-0.041-0.982-0.0152-0.992-0.0129-1.03 0.0488-1.26 0.0351-0.133 0.0816-0.337 0.104-0.453 0.0466-0.247 0.233-2.06 0.217-2.1-0.0063-0.016-0.0678 0.432-0.137 0.994-0.0688 0.562-0.156 1.13-0.193 1.26l-0.0684 0.244-0.0215-0.264c-0.0365-0.476-0.039-0.478-0.0352-0.016 0.0035 0.386-0.0061 0.482-0.0566 0.615l-0.0606 0.158-0.0176-0.228c-0.0103-0.126-0.0358-0.761-0.0566-1.41-0.0348-1.1-0.0388-1.14-0.0488-0.658-0.0061 0.287 8.78e-4 0.966 0.0176 1.51l0.0312 0.984-0.221 0.678c-0.122 0.372-0.23 0.676-0.238 0.676-0.0099 4e-4 -0.0356-0.097-0.0566-0.215-0.0293-0.17-0.0329-0.387-0.0215-1.02 0.0081-0.445 0.0077-0.84-2e-3 -0.879-0.0093-0.038-0.0424-0.412-0.0723-0.832-0.06-0.848-0.0657-0.597-0.0156 0.627 0.0154 0.382 0.0196 0.865 0.0098 1.07l-0.0156 0.377-0.0508-0.164c-0.157-0.511-0.159-2.1-2e-3 -2.98 0.017-0.097 0.0266-0.193 0.0195-0.209-0.0173-0.043-0.0226-0.024-0.0938 0.414-0.0343 0.212-0.064 0.338-0.0644 0.281-0.0055-0.234 0.11-1.4 0.199-2.01 0.116-0.796 0.0892-0.794-0.043 0-0.172 1.03-0.271 2.34-0.281 3.68-0.0054 0.721-0.0065 0.746-0.148 1.56-0.0793 0.456-0.153 0.802-0.166 0.773-0.0126-0.03-0.0355-0.194-0.0527-0.361-0.0289-0.29-0.024-0.33 0.0781-0.838 0.059-0.294 0.139-0.8 0.178-1.12 0.0792-0.657 0.153-2 0.141-2.54-7e-3 -0.32-0.011-0.293-0.0352 0.27-0.0681 1.6-0.202 2.67-0.467 3.73-0.08 0.319-0.152 0.583-0.16 0.582-0.0086 1e-3 -0.0406-0.13-0.0703-0.291-0.0746-0.402-0.0995-1.85-0.0371-2.19 0.0552-0.298 0.0525-0.355-0.0078-0.15-0.0461 0.16-0.0486 0.163-0.0547 0.031-0.0029-0.082-0.0127-0.041-0.0254 0.106-0.0116 0.134-0.0335 0.336-0.0488 0.447l-0.0254 0.201-0.0293-0.164c-0.015-0.091-0.0444-0.917-0.0664-1.83-0.0228-0.955-0.0467-1.56-0.0547-1.42-0.0264 0.43-0.0145 2.31 0.0195 3.06l0.0332 0.73-0.082 0.316c-0.0952 0.371-0.279 0.891-0.299 0.842-0.0074-0.019-0.0656-0.306-0.129-0.637l-0.115-0.604 0.0371-0.432c0.0314-0.378 0.0294-0.545-0.0098-1.31-0.0334-0.654-0.0382-0.912-0.0176-1.02 0.0229-0.126 0.0211-0.138-0.0098-0.109-0.0259 0.029-0.041-0.018-0.0508-0.154-0.0088-0.118-0.0142-0.052-0.0137 0.16 1e-3 0.255-0.025 0.531-0.0957 0.978-0.0544 0.343-0.155 1.11-0.225 1.71-0.118 1.01-0.198 1.44-0.26 1.38-0.0143-0.012-0.0438-0.143-0.0644-0.293l-0.0371-0.273 0.0195 0.394c0.0179 0.355 0.0153 0.402-0.0352 0.478-0.0608 0.091-0.0679 0.082-0.15-0.291-0.0369-0.169-0.037-0.231-0.0059-0.553 0.0493-0.517 0.0363-0.642-0.0215-0.205-0.0528 0.404-0.0789 0.388-0.115-0.07-0.0186-0.235-0.0092-0.314 0.0781-0.67 0.0747-0.304 0.121-0.641 0.191-1.37 0.0517-0.531 0.0877-0.978 0.082-0.994-0.0064-0.016-0.0601 0.399-0.121 0.924-0.0611 0.525-0.134 1.02-0.16 1.11l-0.0469 0.152 0.0098-0.244c0.0247-0.572 0.0447-1.52 0.0371-1.81-0.0041-0.204-0.0177-0.022-0.0391 0.523-0.0181 0.46-0.0396 0.945-0.0488 1.08-0.0145 0.211-0.0224 0.227-0.041 0.107-0.0167-0.098-0.0212-0.037-0.0195 0.211 0.0021 0.467-0.0444 0.22-0.0586-0.31l-0.0098-0.383-0.0293 0.35c-0.0161 0.192-0.0302 0.317-0.0332 0.279-0.0856-1.35-0.104-1.8-0.102-2.24 0.0023-0.363-0.0019-0.466-0.0156-0.324-0.0391 0.431-0.0018 1.93 0.0664 2.67 0.0358 0.387 0.0603 0.748 0.0566 0.803-0.0086 0.126-0.474 1.47-0.492 1.42-0.0076-0.019 0.0314-0.284 0.0859-0.588 0.106-0.593 0.251-1.62 0.234-1.67-0.0057-0.014-0.0724 0.337-0.146 0.781-0.0743 0.444-0.148 0.808-0.164 0.809-0.0203 0-0.0299-0.144-0.0293-0.434 3e-4 -0.684-0.017-1.18-0.0391-1.14-0.0112 0.02-0.035 0.198-0.0527 0.394-0.0174 0.196-0.0398 0.376-0.0488 0.389-0.0264 0.046-0.109-1.71-0.104-2.19 0.0025-0.24-0.0074-0.428-0.0215-0.418-0.0461 0-0.0086-0.793 0.0566-1.22 0.087-0.568 0.108-0.734 0.0938-0.734-0.0067 3e-4 -0.0552 0.249-0.107 0.551-0.107 0.622-0.196 1.5-0.244 2.42-0.0368 0.707-0.0205 2.22 0.0293 2.96 0.0275 0.012 0.0567 0.027 0.084 0.039-0.0033-0.032-0.0056-0.039-0.0098-0.094-0.0118-0.151-0.0213-0.4-0.0234-0.553-0.0022-0.266-0.0017-0.26 0.041 0.137 0.0267 0.247 0.0316 0.427 0.0215 0.522 0.0459 0.021 0.0975 0.044 0.143 0.064-0.0106-0.107-0.0266-0.236-0.0137-0.295 0.0124-0.058 0.0218 0 0.0234 0.168h2e-3c8.5e-4 0.071-3e-3 0.083-0.0039 0.131 0.0984 0.045 0.216 0.096 0.311 0.139 0.125-0.414 0.339-1.09 0.354-1.06 0.015 0.037-0.119 0.608-0.244 1.11 0.0354 0.016 0.0571 0.025 0.0918 0.041 0.0521-0.203 0.109-0.397 0.145-0.562 0.119-0.55 0.119-0.554 0.148-0.369 0.0161 0.104 0.0306 0.286 0.0332 0.404-0.111 0.361-0.136 0.417-0.193 0.586 0.179 0.081 0.333 0.15 0.488 0.219-0.0132-0.081-0.0358-0.205-0.0332-0.213 0.0057-0.018 0.0449 0.136 0.0762 0.23 0.0422 0.019 0.0946 0.043 0.135 0.061l-0.0625-0.213c-0.0731-0.254-0.0759-0.322-0.0254-0.44 0.0312-0.073 0.0406-0.055 0.0664 0.106h2e-3c0.0171 0.106 0.0286 0.273 0.0254 0.371l-0.0059 0.176c0.0487 0.021 0.119 0.053 0.164 0.072 0.0043-0.178 0.0428-0.511 0.129-1.08 0.0853-0.566 0.163-1.1 0.172-1.2 0.0247-0.251-0.0268-0.122-0.0742 0.188-0.0361 0.236-0.127 0.494-0.152 0.43-0.0158-0.04 0.148-1.53 0.168-1.53 0.0107-2e-4 0.0387 0.117 0.0586 0.26 0.0203 0.143 0.0474 0.32 0.0625 0.396 0.0209 0.107-0.0088 0.422-0.135 1.4-0.0808 0.625-0.146 1.05-0.172 1.16 0.0879 0.037 0.164 0.065 0.238 0.094 7e-3 -0.032 0.0019-0.028 0.0098-0.062 0.0866-0.136 0.204-0.346 0.258-0.467 0.0541-0.121 0.107-0.221 0.119-0.221 0.0122-9e-4 0.0301 0.114 0.043 0.254-0.0482 0.176-0.116 0.365-0.182 0.545h-0.121c-0.0394-0.014-0.0824-0.032-0.127-0.049-0.0055 0.025-0.0029 0.025-0.0078 0.049h-0.482c-0.0091-0.011-0.0183-0.021-0.0273-0.031 0.0021 0.013 5.79e-4 0.02 2e-3 0.031h-0.0449c-0.0151-0.048-0.0223-0.021-0.0449-0.135 0.0287 0.035 0.0584 0.069 0.0879 0.104-0.0031-0.018 0.0027-0.024-2e-3 -0.045-0.0228-0.102-0.0438-0.133-0.0742-0.225-0.0132-0.01-0.0295-0.012-0.043-0.018 0.0112 0.069 0.011 0.088 0.0293 0.18-0.0502-0.061-0.109-0.118-0.156-0.18 0.0105-5e-4 0.0539 0.158 0.0938 0.318h-0.848c0.0262-0.082 0.0603-0.192 0.123-0.426 0.0243-0.091 0.0213-0.115 0.0449-0.209-0.0421-0.019-0.0663-0.029-0.109-0.049-0.04 0.132-0.114 0.315-0.113 0.338 2e-3 0.053 0.0364-0.014 0.0781-0.152 0.0586-0.188 0.0699-0.205 0.0469-0.07-0.0171 0.096-0.051 0.26-0.0762 0.363-0.0263 0.108-0.0171 0.143-0.0195 0.207h-0.26c0.0078-0.046 0.0216-0.104 0.0215-0.129-6.1e-5 -0.075-0.0132-0.066-0.0508 0.031-0.0081 0.032 2.94e-4 0.066 2e-3 0.1h-0.23l0.0293-0.168c0.031-0.174 0.0295-0.288 0-0.688-0.0015-0.021-4.74e-4 -0.066-2e-3 -0.088-0.0738-0.034-0.151-0.067-0.227-0.102 0.0163 0.123 0.0384 0.258 0.0781 0.473l0.105 0.572h-0.102c-0.0642-0.421-0.146-0.87-0.156-0.842 0.0021 0.431 0.0137 0.652 0.0254 0.842h-0.223c0.0113-0.079 0.0158-0.155 0.0547-0.24 0.0325-0.25 0.0551-0.505 0.0508-0.566-0.0048-0.061 0.0057-0.161 0.0234-0.223 0.0071-0.024-0.0051-0.059-2e-3 -0.08-0.0213-0.01-0.0411-0.02-0.0625-0.029-0.0012 0.084-0.0062 0.185-2e-3 0.215 6e-3 0.05-3.08e-4 0.168-0.0156 0.266-0.0104 0.059-0.0172 0.2-0.0254 0.32 0.0085 0.035 0.0075 0.081-0.0117 0.144-9.83e-4 0.023-0.0032 0.039-0.0039 0.061-0.0091 0.148-0.0112 0.097-0.0176 0.133h-0.289c0.0111-0.015 0.0184-0.048 0.0312-0.049 0.124-0.365 0.151-0.507 0.219-1.11 0.0019-0.017 0.0021-0.017 0.0039-0.033-0.194-0.087-0.363-0.166-0.564-0.254l-0.0254 0.146c0.0405 0.403 0.101 0.808 0.156 1.21-0.111-0.042-0.141 0.012-0.111 0.09h-1.58c0.0457-0.28 0.0384-0.854-0.131-1.84-0.0049-0.013-0.0505 0.178-0.102 0.422-0.0791 0.682-0.0368 1.16 0.0332 1.42h-3.13c0.0113-0.357 0.0069-0.96-0.0059-1.8l-0.145-0.373-0.143-0.375 0.127 0.252c0.0694 0.138 0.133 0.25 0.143 0.25 0.0309-3e-4 -0.0142-0.38-0.084-0.85-0.178 0.013-0.332 0.051-0.471 0.104 0.014 0.113 0.021 0.164 0.0469 0.391 0.165 1.11 0.384 3.66 0.336 1.34 0.05 0.55 0.0818 0.834 0.111 1.06h-0.432c0.0988-0.108 0.124-0.623 0.0703-1.12-0.0777-0.7-0.141-1.39-0.158-1.66-0.3 0.121-0.5 0.343-0.555 0.703 0.0078-0.016 0.0434 0.203 0.123 0.74 0.214 0.998 0.371 1.34 0.475 1.34h-7.6c11 0 48.3 0.011 68.1 0.011h-2.68c0.0127-0.037 0.0132-0.029 0.0254-0.064-0.0284-0.012-0.0679-0.024-0.137-0.031-0.0059 0.027-0.0183 0.07-0.0234 0.096h-0.188c0.0176-0.042 0.0212-0.043 0.041-0.094 0.0013 0 0.0027-0.01 0.0039-0.014h-0.117c-1.45e-4 0.022-0.0065 0.096-0.0059 0.111h-0.0762c-3.47e-4 0-2e-3 -0.027-2e-3 -0.027 0.0022-0.032 0.0072-0.052 0.0098-0.086h-0.293c-0.0091 0.057-0.0088 0.062-0.0176 0.117h-0.0684c0.01-0.045 0.0142-0.06 0.0254-0.115-0.0077 0-0.0216-1e-4 -0.0293 0-0.0076 0.055-0.0108 0.071-0.0156 0.115h-0.201c0.0149-0.049 0.0252-0.047 0.041-0.106 6.27e-4 0 0.0031 2e-4 0.0039 0-0.132 0-0.316 0.01-0.469 0.012v0.098h-0.0703l2e-3 -0.096h-0.137l-0.0293 0.092h-0.127c0.0084-0.022 0.025-0.084 0.0293-0.088-0.0714 0-0.126 0-0.201 0.01-0.0086 0.028-0.0159 0.054-0.0254 0.082h-0.0488c-0.0011-0.028 9.92e-4 -0.052 0-0.08-0.0898 0-0.144 0-0.238 0.01-0.0025-0.1-0.0069-0.206 0-0.244 0.0113-0.062-5.47e-4 0.147-2e-3 0.244-0.101 0-0.184 0.01-0.289 0.012-0.0021 0.025-4e-3 0.037-0.0059 0.062h-0.18c0.0024-0.01 0.0036-0.041 0.0059-0.051-0.015 7e-4 -0.0376 0-0.0527 0-1.19e-4 0.01-0.0039 0.044-0.0039 0.049h-0.0898c9.53e-4 -0.013 0.0029-0.029 0.0039-0.043-0.167 0.01-0.402 0.024-0.578 0.033-1.1e-4 4e-4 -0.0017 0.01-2e-3 0.01h-0.0742 2e-3c-0.0204 1e-3 -0.0459 0-0.0664 0-0.0075-0.037-0.0132-0.033-0.0195-0.086-0.0291-0.244-0.0299-0.256 0.0879-0.885 0.105-0.564 0.209-1.02 0.189-0.836-4e-3 0.037-0.0267 0.355-0.0508 0.707-0.0242 0.352-0.0678 0.768-0.0977 0.924-0.0165 0.086-0.0282 0.114-0.043 0.172 0.0228 0 0.0515 0 0.0742-0.01 1.09e-4 -4e-4 2e-3 -0.01 2e-3 -0.01 0.0695-0.433 0.0997-0.725 0.129-1.26 0.0208-0.386 0.0482-0.785 0.0625-0.889 0.0146-0.104 0.0172-0.207 0.0059-0.232-0.0107-0.024-0.0283 0.013-0.0371 0.08-0.0087 0.068-0.104 0.512-0.209 0.988-0.073 0.33-0.17 0.852-0.264 1.34h-0.555c0.209-0.881 0.485-1.92 0.471-1.98-0.0036-0.015-0.0674 0.222-0.143 0.525l-0.137 0.549 0.0449-0.436 0.0449-0.438-0.113 0.602c-0.119 0.633-0.188 0.944-0.25 1.18h-0.275c0.011-0.386 0.0068-0.481-0.0293-0.137l-0.0137 0.137h-0.0312c-3e-3 -0.275 0.0506-1.3 0.107-2.06 0.0317-0.421 0.0302-0.412-0.0469 0.234-0.0724 0.607-0.103 1.22-0.121 1.83h-0.305c0.0297-0.146 0.0616-0.279 0.0723-0.293-0.0934 0.039-0.107 0.055-0.16 0.082-0.0098 0.067-0.0255 0.155-0.0332 0.211h-0.0625c-0.0036 0-0.0102-0.01-0.0137-0.01-7.11e-4 0-0.0012 0.01-2e-3 0.01h-0.248c0.056-0.427 0.0943-0.756 0.0859-0.721-0.0088 0.036-0.0454 0.198-0.0801 0.361-0.0504 0.239-0.0421 0.141 0.043-0.51 0.0583-0.443 0.155-1.05 0.215-1.34 0.126-0.616 0.124-0.6 0.102-0.557-0.0095 0.018-0.0778 0.285-0.15 0.594-0.112 0.476-0.156 0.743-0.293 1.77-0.0205 0.203-0.0428 0.276-0.0644 0.404h-0.189l2e-3 -0.01c0.092-0.299 0.122-0.465 0.254-1.41 0.173-1.24 0.161-1.24-0.0449 0.033-0.0894 0.552-0.178 1.01-0.227 1.17l-0.0644 0.215h-0.0156l-0.0156-0.291c-0.0182-0.349-0.0258-0.297-0.0391 0.24l-2e-3 0.051h-0.334l0.0859-0.582-0.111 0.582h-0.107c-0.0161-0.059-0.0498-0.109-0.0938-0.154 0.128-0.814 0.257-1.65 0.295-2.24 0.0176-0.288 0.0257-0.509 0.0176-0.496-0.0082 0.015-0.0568 0.449-0.107 0.965-0.0646 0.657-0.159 1.28-0.244 1.74-0.139-0.128-0.328-0.244-0.344-0.533l0.0742-0.576-0.0801 0.332c-0.0736 0.306-0.0643 0.23 0.0957-0.908 0.0961-0.682 0.19-1.31 0.211-1.41 0.0208-0.092 0.0032-0.037-0.0391 0.121s-0.109 0.469-0.148 0.691c-0.0802 0.452-0.0997 0.402-0.0547-0.137 0.0159-0.195 0.0291-0.423 0.0254-0.506-0.0036-0.11-0.0094-0.076-0.0215 0.119-0.0214 0.341-0.322 2.55-0.404 2.99h-0.0703c-0.0023-0.079-0.0056-0.099-0.0078-0.24-0.0097-0.597-0.0105-0.6 0.0996-1.22 0.125-0.704 0.201-1.47 0.23-2.35 0.0178-0.521 0.0041-1.76-0.0195-1.72-0.0068 0.012-0.0148 0.341-0.0176 0.73-0.0033 0.389-0.0183 0.948-0.0352 1.25-0.0382 0.724-0.26 2.41-0.26 1.97 0-0.052 0.0031-0.383 0.0059-0.736 0.0068-0.719-0.0225-0.435-0.0547 0.522-0.0238 0.706-0.0453 0.912-0.16 1.45-0.0416 0.196-0.072 0.306-0.0918 0.346h-0.0039c-0.0168 0.023-0.0269-0.01-0.0254-0.123 0.0028-0.201-0.0846-1.99-0.111-2.28-0.0299-0.321-0.0476-0.236-0.0352 0.166 0.0115 0.368-0.0393 0.672-0.0801 0.484-0.0388-0.179-0.158-1.45-0.219-2.31-0.0328-0.468-0.0631-0.831-0.0664-0.809-0.0171 0.118 0.0288 1.15 0.0898 2.01 0.0864 1.22 0.0839 2.03-0.0117 2.75 0 0 0.0073 0.075 0.0137 0.115h-0.285c-0.0077-0.084-0.0195-0.195-0.0195-0.195l-0.221-0.604 0.0156-0.453c0.0129-0.344-0.0048-0.64-0.0762-1.23-0.0517-0.428-0.103-0.809-0.113-0.848-0.0248-0.089-0.0256-0.1 0.0625 0.918 0.0701 0.81 0.075 1.37 0.0137 1.36-0.015 0-0.031-0.032-0.0352-0.07-4e-3 -0.038-0.038-0.12-0.0762-0.18l-0.0684-0.108 0.0391 0.133c0.0225 0.073 0.0667 0.213 0.0977 0.311l0.0566 0.178s-0.0414 0.444-0.0742 0.793h-0.43c0.0013-0.01 0.0026-0.012 0.0039-0.022 0.0495-0.38 0.0983-0.827 0.109-0.994 0.0143-0.227-0.0138-0.07-0.107 0.619-0.0206 0.149-0.0216 0.282-0.0156 0.396h-0.182c-0.0045-0.235 0.0076-0.407 0.0879-0.959 0.0585-0.401 0.0947-0.712 0.084-0.701-0.0127 0.015-0.0114-0.149 0-0.363 0.0256-0.481 0.039-1.66 0.0176-1.62-0.0084 0.016-0.0244 0.315-0.0352 0.664-0.0106 0.349-0.0331 0.835-0.0508 1.08-0.0299 0.416-0.0393 0.466-0.139 0.754-0.12 0.349-0.412 1.03-0.439 1.03-0.0102-6e-4 -0.03-0.161-0.043-0.356-0.0278-0.414-0.0465-0.343-0.0312 0.113 0.0051 0.174 0.0053 0.339 2e-3 0.361-0.0149 0.101-0.064-0.308-0.0488-0.416 9e-3 -0.065 0.0073-0.119-0.0039-0.119-0.0114-8e-4 -0.0215-0.113-0.0234-0.248-4.7e-4 -0.166-0.0111-0.216-0.0312-0.164-0.0328 0.086-0.0552-0.071-0.107-0.77-0.0356-0.477-0.0266-0.551 0.125-1.04 0.0656-0.211 0.14-0.458 0.166-0.549 0.0838-0.301-0.034 0-0.225 0.58-0.0972 0.294-0.183 0.537-0.191 0.537-0.0075 0-0.023-0.272-0.0352-0.607s-0.0274-0.602-0.0332-0.59c-0.011 0.02-0.0097 0.831 2e-3 1.2 0.0071 0.231 0.0016 0.257-0.225 1.02-0.128 0.431-0.242 0.785-0.254 0.785-0.0118 1e-4 -0.0404-0.262-0.0644-0.582l-0.043-0.582 0.186-0.535c0.102-0.295 0.183-0.551 0.178-0.568-0.0045-0.018-0.089 0.182-0.188 0.445-0.233 0.621-0.223 0.462 0.0293-0.488 0.107-0.404 0.193-0.746 0.189-0.762-0.0038-0.015-0.126 0.382-0.271 0.883-0.238 0.818-0.437 1.39-0.457 1.31-0.0033-0.017 0.0021-0.176 0.0137-0.355l0.0215-0.326-0.0606 0.441-0.0625 0.443-0.451 0.826c-0.0429 0.078-0.0683 0.154-0.0957 0.23h-0.311c0.0153-0.042 0.0269-0.058 0.041-0.106 0.0768-0.259 0.161-0.574 0.188-0.703 0.0404-0.199 0.0313-0.179-0.0664 0.131-0.0631 0.2-0.145 0.453-0.182 0.562l-0.0391 0.115h-0.0098l0.0293-0.148c0.0741-0.361 0.282-0.966 0.322-0.94 0.0201 0.013 0.0287 0 0.0215-0.027-0.0069-0.028 6e-3 -0.091 0.0293-0.139 0.0297-0.064 0.0332-0.09 0.0137-0.09-0.0183 0-0.0027-0.09 0.043-0.242 0.113-0.378 0.0691-0.334-0.0684 0.068-0.0687 0.201-0.136 0.365-0.152 0.365-0.0703 0 0.214-1.16 0.633-2.56 0.114-0.384 0.202-0.699 0.195-0.699-0.0064-5e-4 -0.124 0.343-0.26 0.762s-0.254 0.76-0.26 0.76c-0.0072-5e-4 0.0234-0.202 0.0664-0.451 0.117-0.675 0.0566-0.477-0.0938 0.305-0.12 0.625-0.453 1.97-0.545 2.21-0.0646 0.165-0.0666 0.01-0.0078-0.51 0.0616-0.536 0.221-1.32 0.371-1.81 0.124-0.408 0.0872-0.357-0.0664 0.092-0.0905 0.266-0.117 0.32-0.0859 0.18 0.119-0.548 0.331-1.35 0.496-1.87 0.203-0.644 0.148-0.572-0.0801 0.108-0.328 0.976-0.612 2.22-0.824 3.58l-0.117 0.748-0.137 0.221c-0.0298 0.048-0.0402 0.061-0.0664 0.102h-0.0859c-0.0018-0.077 0.013-0.26 0.084-0.795 0.128-0.957 0.134-0.995 0.229-1.21 0.0539-0.124 0.13-0.315 0.168-0.424 0.0817-0.232 0.528-1.96 0.518-2-4e-3 -0.016-0.13 0.406-0.279 0.94-0.149 0.533-0.317 1.07-0.373 1.2l-0.104 0.227 0.0195-0.258c0.0321-0.462 0.0276-0.464-0.0352-0.018-0.052 0.372-0.0734 0.464-0.143 0.586l-0.082 0.146 0.0137-0.223c0.0079-0.123 0.0737-0.737 0.146-1.37 0.123-1.06 0.127-1.11 0.0469-0.641-0.0474 0.276-0.138 0.931-0.199 1.46l-0.111 0.953-0.316 0.625c-0.174 0.344-0.326 0.625-0.334 0.625-0.0099-8e-4 -0.0197-0.097-0.0234-0.213-0.0046-0.167 0.0222-0.378 0.125-0.99 0.0721-0.428 0.129-0.81 0.125-0.848-0.0038-0.037 0.0181-0.401 0.0488-0.809 0.0625-0.824 0.019-0.583-0.107 0.602-0.0396 0.37-0.103 0.837-0.143 1.04l-0.0723 0.361-0.0254-0.166c-0.0822-0.51 0.146-2.04 0.428-2.87 0.0307-0.091 0.0516-0.18 0.0469-0.197-0.0109-0.043-0.0168-0.027-0.15 0.387-0.0645 0.201-0.113 0.319-0.105 0.264 0.0281-0.226 0.312-1.34 0.488-1.91 0.229-0.749 0.202-0.75-0.043 0-0.319 0.975-0.605 2.22-0.809 3.52-0.109 0.694-0.115 0.716-0.373 1.49-0.106 0.317-0.157 0.432-0.203 0.535h-0.0723c4.38e-4 -0.062-0.0032-0.088 0-0.164 0.013-0.282 0.023-0.321 0.197-0.799 0.101-0.276 0.253-0.752 0.338-1.06 0.173-0.624 0.44-1.91 0.506-2.43 0.0391-0.31 0.0306-0.283-0.0742 0.256-0.298 1.53-0.585 2.55-1 3.54-0.125 0.298-0.234 0.543-0.242 0.543-0.0087 0-0.0209-0.131-0.0273-0.289-0.0162-0.396 0.167-1.79 0.277-2.11 0.0974-0.28 0.103-0.335 0.0137-0.144-0.0686 0.148-0.0696 0.149-0.0566 0.022 0.0089-0.08-0.0094-0.04-0.043 0.1-0.0308 0.128-0.0801 0.319-0.111 0.424l-0.0547 0.191-0.0039-0.162c-0.0018-0.089 0.0872-0.885 0.197-1.77 0.115-0.922 0.178-1.51 0.15-1.38-0.088 0.411-0.347 2.22-0.422 2.95l-0.0723 0.705-0.125 0.297c-0.148 0.346-0.406 0.824-0.418 0.775-0.0047-0.019-0.0201-0.302-0.0352-0.629l-0.0273-0.594 0.0977-0.412c0.0854-0.36 0.107-0.522 0.178-1.26 0.0611-0.634 0.0945-0.883 0.131-0.988 0.0409-0.12 0.0408-0.13 0.0059-0.106-0.0297 0.025-0.0392-0.022-0.0293-0.154 0.0081-0.114-0.0052-0.052-0.0352 0.152-0.0356 0.246-0.102 0.509-0.236 0.932-0.103 0.324-0.314 1.05-0.469 1.62-0.262 0.962-0.401 1.36-0.455 1.3-0.0125-0.013-0.0224-0.144-0.0215-0.291l2e-3 -0.266-0.0371 0.381c-0.0333 0.344-0.0445 0.39-0.105 0.457-0.0734 0.081-0.0773 0.07-0.105-0.299-0.0123-0.167-0.0048-0.225 0.0723-0.531 0.123-0.492 0.128-0.616 0.0078-0.201-0.11 0.383-0.133 0.366-0.104-0.08 0.0153-0.228 0.0361-0.304 0.174-0.637 0.118-0.284 0.214-0.604 0.389-1.3 0.128-0.506 0.226-0.933 0.223-0.949-4e-3 -0.016-0.118 0.379-0.254 0.877s-0.278 0.969-0.316 1.05l-0.0684 0.143 0.0449-0.234c0.107-0.548 0.263-1.46 0.297-1.74 0.0252-0.197-0.0156-0.023-0.115 0.5-0.0841 0.441-0.175 0.906-0.203 1.04-0.0447 0.201-0.0533 0.217-0.0547 0.1-0.0024-0.097-0.0168-0.04-0.0508 0.199-0.065 0.45-0.0759 0.206-0.0137-0.307l0.0449-0.369-0.0781 0.334c-0.0435 0.183-0.0746 0.303-0.0723 0.266 0.11-1.31 0.154-1.75 0.221-2.17 0.0545-0.35 0.0652-0.449 0.0312-0.314-0.101 0.41-0.28 1.86-0.318 2.58-0.0201 0.377-0.0471 0.728-0.0586 0.781-0.0266 0.12-0.68 1.36-0.691 1.31-0.0048-0.019 0.0721-0.27 0.17-0.557 0.191-0.558 0.481-1.53 0.471-1.58-0.0036-0.014-0.119 0.315-0.256 0.734s-0.265 0.761-0.281 0.76c-0.0202 0-9e-3 -0.142 0.0332-0.42 0.0986-0.659 0.153-1.14 0.125-1.1-0.0139 0.018-0.0616 0.186-0.107 0.373-0.0455 0.187-0.0928 0.356-0.104 0.367-0.0328 0.041 0.135-1.66 0.209-2.12 0.0371-0.231 0.0558-0.404 0.041-0.404-0.046 0 0.104-0.766 0.23-1.17 0.168-0.537 0.212-0.697 0.197-0.697-0.0067-5e-4 -0.0884 0.232-0.184 0.518-0.196 0.587-0.411 1.42-0.592 2.31-0.142 0.696-0.355 2.24-0.406 2.95-0.016 0.22-0.0388 0.273-0.0566 0.375h-0.16c0.01-0.039 0.0254-0.119 0.0254-0.119-0.0194-0.488-0.0154-0.654 0.0254-0.871 0.0478-0.254 0.0485-0.259-0.0059-0.108-0.0572 0.16-0.0579 0.161-0.0684 0.018-0.0067-0.078-0.0027-0.203 0.0059-0.275 0.0297-0.222 0.296-1.44 0.447-2.05 0.0794-0.318 0.142-0.59 0.139-0.604-0.0034-0.013-0.086 0.258-0.182 0.602-0.197 0.707-0.196 0.708-0.111-0.326 0.0297-0.362 0.0477-0.648 0.0391-0.631-0.0086 0.016-0.0661 0.508-0.127 1.09-0.0861 0.828-0.126 1.13-0.182 1.36l-0.0703 0.295-0.0273-0.283c-0.0468-0.48-0.0591-0.322-0.0273 0.338 0.0077 0.16-0.0144 0.264-0.168 0.836-0.0979 0.364-0.161 0.553-0.234 0.728h-0.344c8.25e-4 -0.184-5.48e-4 -0.375 0.0039-0.52l0.0137-0.414 0.162-0.486c0.128-0.387 0.197-0.673 0.336-1.38 0.0964-0.489 0.173-0.904 0.168-0.92-0.0042-0.017-0.104 0.393-0.219 0.912-0.199 0.893-0.356 1.45-0.404 1.45-0.0123-8e-4 -0.0168-0.129-0.0117-0.287 0.0083-0.278 0.0058-0.274-0.0391 0.148-0.0446 0.419-0.0521 0.448-0.172 0.699l-0.123 0.262-0.0156-0.34c-0.0155-0.382 0.0116-1.03 0.0566-1.38 0.0357-0.276-0.019-0.206-0.0723 0.094-0.0695 0.388 0.0355-0.998 0.135-1.79 0.113-0.901 0.0571-0.747-0.0723 0.199-0.0958 0.697-0.165 1.58-0.184 2.34-0.0095 0.386-0.0063 0.719-0.0293 1.04 0.0102-0.054 0.016-0.055 0.0215 0.041 0.0065 0.115-8.8e-4 0.176-0.0312 0.232-0.0145 0.027-0.0213 0.029-0.0234 0.01-0.0048 0.03-0.0137 0.058-0.0195 0.088h-0.285c0.233-1.05 0.368-2.1 0.416-3.29 0.0256-0.647-0.0067-0.49-0.0625 0.305-0.0551 0.785-0.207 1.94-0.334 2.53l-0.0918 0.434 0.0684-0.572c0.0961-0.782 0.0086-0.4-0.117 0.514-0.0045 0.033 0.0035 0.056 2e-3 0.088h-0.391c0.01-0.063 0.0199-0.126 0.0352-0.193-0.0028-0.043-6e-3 -0.087-2e-3 -0.217 0.0061-0.178 0.0073-0.384 0.0059-0.459s-0.0023-0.207 0-0.293c0.0071-0.302-0.032-0.086-0.0449 0.248-0.013 0.333-0.0754 0.68-0.102 0.566-0.0116-0.051-0.0374-0.832-0.0625-1.94-0.0068-0.316-6e-3 -0.321 0.0957-0.67 0.119-0.41 0.368-1.38 0.379-1.48 9e-3 -0.078-0.0422 0.092-0.283 0.942-0.0855 0.301-0.165 0.548-0.178 0.547-0.0128 0-0.0218-0.124-0.0195-0.273 0.0061-0.391-0.021-0.286-0.0449 0.176-0.0243 0.462-0.0697 0.624-0.381 1.35l-0.182 0.424-0.0332-0.506c-0.0393-0.594-0.0517-0.58-0.043 0.051 0.0037 0.252-0.01 0.518-0.0273 0.592-0.0306 0.123-0.415 0.8-0.6 1.05-0.0751 0.103-0.076 0.102-0.041-0.022 0.0722-0.25 0.523-2.27 0.58-2.6l0.0586-0.336-0.105 0.4c-0.0573 0.219-0.136 0.457-0.176 0.529l-0.0723 0.129 0.0606-0.334c0.214-1.19 0.371-2.02 0.492-2.61 0.0768-0.367 0.136-0.673 0.135-0.689-0.0206-0.088-0.458 1.94-0.676 3.13l-0.129 0.707-0.293 0.635c-0.271 0.587-0.294 0.623-0.297 0.482-0.0018-0.091 0.0695-0.604 0.174-1.26 0.0969-0.608 0.213-1.41 0.26-1.78 0.0466-0.369 0.126-0.927 0.178-1.24l0.0938-0.568-0.0996 0.467c-0.0538 0.257-0.149 0.754-0.213 1.1-0.0646 0.356-0.157 0.766-0.211 0.934l-0.0957 0.297 0.113-0.973c0.11-0.947 0.19-2.25 0.156-2.55-0.011-0.098-0.0153-0.095-0.0195 0.022-0.0233 0.65-0.105 1.69-0.17 2.17-0.0442 0.322-0.091 0.692-0.107 0.82-0.0455 0.367-0.24 1.2-0.309 1.33-0.0342 0.064-0.0784 0.186-0.0996 0.274-0.0414 0.171-0.147 0.433-0.156 0.385-0.0032-0.016-0.0043-0.426-2e-3 -0.91 0.0041-1.2-0.038-2.03-0.0547-1.07-0.0033 0.227-0.0195 0.397-0.0488 0.5-0.0391 0.139-0.0498 0.074-0.084-0.576-0.0215-0.403-0.0322-0.832-0.0254-0.951 0.0069-0.119 4.5e-5 -0.249-0.0156-0.291-0.043-0.114 0.0217-0.682 0.139-1.2 0.0576-0.253 0.1-0.473 0.0957-0.49-0.0097-0.039-0.176 0.629-0.199 0.793-0.0327 0.245-0.0672 0.111-0.0625-0.252 0.0051-0.494-0.0218-0.431-0.0312 0.074-6e-3 0.304-0.0478 0.7-0.178 1.71-0.114 0.88-0.179 1.5-0.201 1.88-0.0186 0.315-0.0402 0.603-0.043 0.639-0.0044 0.035-0.0465-0.087-0.0938-0.272-0.0766-0.303-0.0814-0.372-0.0508-0.711 0.0245-0.273 0.0179-0.653-0.0215-1.38-0.0299-0.551-0.059-0.987-0.0664-0.977-0.0071 0.013 0.0029 0.436 0.0215 0.94 0.0304 0.819 0.0167 1.54-0.0293 1.54-0.0093-6e-4 -0.0565-0.115-0.105-0.256l-0.0898-0.256 0.0879 0.375 0.0898 0.377-0.188 1.4c-0.0136 0.102-0.0056 0.191-0.0059 0.287 0.144-0.538 0.272-1.07 0.25-1.38 0.0469 0.016 0.201 0.916 0.182 1.06-0.0126 0.095-0.16 0.34-0.279 0.619h-0.152c-0.0078-0.092-2.75e-4 -0.194 0-0.295-0.0272 0.102-0.0524 0.195-0.0801 0.295h-0.109c0.0182-0.084 0.04-0.165 0.0449-0.256 0.0296-0.55 0.0508-1.02 0.0449-1.04-0.0053-0.021-0.0311 0.174-0.0566 0.434-0.0268 0.275-0.0635 0.511-0.0859 0.568-0.0213 0.053-0.0397 0.08-0.043 0.064-0.0102-0.06 0.0169-1.5 0.0449-2.39 0.0236-0.757 0.0214-0.825-0.0137-0.478-0.0226 0.222-0.0609 0.996-0.0859 1.72s-0.0489 1.32-0.0547 1.34c-0.0051 0.01-0.0367-0.189-0.0703-0.441-0.0337-0.253-0.0651-0.438-0.0684-0.41-0.0125 0.093 0.0202 0.483 0.0684 0.809 0.0053 0.036 4.3e-5 0.053 0.0039 0.088h-0.195c-0.093-0.264-0.185-0.572-0.205-0.693-0.0205-0.127-0.0346-0.563-0.0312-0.969 0.0041-0.406 0.0014-0.784-0.0059-0.84-0.0168-0.138-0.0189-0.113-0.0371 0.453-0.0093 0.27-0.0218 0.49-0.0273 0.49-0.0064-4e-4 -0.017-0.13-0.0234-0.289-0.0132-0.348-0.0336-0.252-0.0332 0.158v0.297l-0.0293-0.172c-0.0472-0.284-0.105-1.2-0.111-1.75-0.0073-0.653-0.0396-0.465-0.041 0.24-0.0016 0.618 0.0393 1.24 0.131 2 0.0493 0.411 0.0592 0.618 0.0352 0.795l-0.0332 0.238-0.0644-0.309c-0.0705-0.332-0.0753-0.28-0.0137 0.195-0.0058 0.059-0.0154 0.098-0.0215 0.156h-0.457c0.0992-0.657 0.228-1.49 0.207-1.45-0.0082 0.015-0.0591 0.314-0.115 0.664-0.0603 0.379-0.1 0.556-0.141 0.785h-0.197c-0.0018-0.204-1.03e-4 -0.413 0.0371-0.604 0.0023-0.012 0.0036-0.031 0.0059-0.043-0.0435 0.205-0.0712 0.415-0.104 0.646h-0.326c0.0131-0.072 0.037-0.148 0.0391-0.211l0.0117-0.385-0.0332 0.338c-0.0101 0.101-0.0131 0.167-0.0195 0.258h-0.0371c-0.0204-0.321-0.0231-0.877 0-1.62l0.0195-0.607-0.0488 0.369c-0.0266 0.203-0.0586 0.585-0.0703 0.848-0.0163 0.335-0.0351 0.512-0.0644 0.596-0.0364 0.102-0.0462 0.065-0.0606-0.258-0.0137-0.31-0.0039-0.453 0.0508-0.801 0.0654-0.416 0.0651-0.419 0-0.133-0.0757 0.331-0.0875 0.312-0.102-0.18-0.0075-0.258 0.0093-0.492 0.0606-0.877 0.0714-0.536 0.163-1.68 0.141-1.76-0.0065-0.024-0.0209 0.062-0.0293 0.191-0.0087 0.13-0.0497 0.553-0.0918 0.941-0.0858 0.79-0.109 0.82-0.113 0.143-0.0033-0.607-0.0272-0.479-0.0352 0.193-0.0092 0.77-0.044 1.11-0.18 1.72-0.0927 0.42-0.25 0.974-0.334 1.23h-0.0488c0.0027-0.062-0.0042-0.054 0.0039-0.146 0.0263-0.298 0.0236-0.625-0.0117-1.24-0.026-0.458-0.0358-0.878-0.0215-0.936 0.0148-0.057 0.112-0.379 0.217-0.717s0.192-0.636 0.195-0.664c0.0032-0.027-0.0775 0.196-0.18 0.494-0.102 0.298-0.207 0.584-0.23 0.635-0.0239 0.051-0.0872 0.22-0.141 0.375-0.0533 0.155-0.107 0.287-0.121 0.287-0.0244 0.01-0.02-0.622 0.0117-1.89 0.0137-0.535 0.0115-0.564-0.0176-0.248-0.0271 0.295-0.083 1.66-0.0938 2.29-0.0021 0.126-0.0537 0.244-0.305 0.707-0.166 0.306-0.311 0.555-0.326 0.555-0.0144-1e-3 -7.44e-4 -0.189 0.0293-0.422 0.0301-0.23 0.0578-0.606 0.0606-0.836 0.0039-0.315 0.0189-0.474 0.0586-0.641 0.0463-0.191 0.0453-0.204 2e-3 -0.106-0.0689 0.157-0.0867 0.143-0.0625-0.041 0.0122-0.086 0.0131-0.185 0.0039-0.223-0.0195-0.078 0.126-0.718 0.414-1.82 0.1-0.38 0.166-0.664 0.15-0.633-0.038 0.075-0.345 1.14-0.471 1.63-0.0533 0.209-0.105 0.363-0.113 0.348-0.0082-0.017-0.0269 0.068-0.043 0.188-0.0434 0.318-0.339 1.53-0.406 1.67-0.055 0.113-0.059 0.11-0.0723-0.039l-0.0137-0.156-0.0078 0.174c-0.0069 0.147-0.0445 0.239-0.246 0.607l-0.238 0.436 0.0586-0.588c0.0324-0.323 0.0727-0.756 0.0879-0.965 0.0274-0.363 0.036-0.399 0.184-0.801 0.124-0.337 0.197-0.617 0.369-1.41 0.117-0.545 0.212-1 0.209-1.02-0.0041-0.016-0.11 0.399-0.234 0.922-0.211 0.888-0.43 1.63-0.453 1.54-0.0058-0.022-0.0056-0.184 0-0.358l0.0098-0.314-0.0488 0.461-0.0469 0.459-0.172 0.357c-0.0938 0.196-0.172 0.345-0.176 0.332-0.0037-0.014 0.0729-0.413 0.172-0.885 0.0987-0.472 0.178-0.872 0.174-0.885-0.0105-0.042-0.172 0.618-0.34 1.4-0.0852 0.394-0.163 0.717-0.172 0.717-0.0143 0-0.0078-0.461 0.0117-1.22 6e-3 -0.208 0.0043-0.215-0.0195-0.061-0.0137 0.096-0.0362 0.475-0.0488 0.84l-0.0234 0.662-0.18 0.41c-0.106 0.244-0.182 0.377-0.186 0.33-0.011-0.15 0.0788-0.955 0.143-1.29 0.0351-0.184 0.0741-0.455 0.0859-0.604 0.0204-0.255 0.0173-0.242-0.0781 0.232-0.0551 0.275-0.122 0.614-0.148 0.752-0.0263 0.137-0.058 0.263-0.0723 0.281-0.0552 0.069-0.0092-0.324 0.125-1.04 0.199-1.08 0.216-1.29 0.0332-0.434l-0.156 0.734 0.0195-0.402c0.0246-0.519 0.204-1.7 0.318-2.11 0.11-0.394 0.0353-0.249-0.0879 0.17l-0.0957 0.326 0.0547-0.301c0.109-0.592 0.276-1.35 0.395-1.79 0.0662-0.245 0.137-0.507 0.156-0.58 0.0193-0.073-0.0024-0.029-0.0488 0.098-0.135 0.37-0.399 1.42-0.543 2.15-0.101 0.518-0.166 0.947-0.271 1.82-0.062 0.516-0.101 0.878-0.123 1.1-0.0467-0.209-0.0872-0.411-0.146-0.642 0.0019-0.025 0.0177-0.145 0.0176-0.156-4.06e-4 -0.018-0.0205 0.131-0.0234 0.135-0.012-0.047-0.0168-0.081-0.0293-0.129 0.0071-0.217-0.0222-0.042-0.0918 0.568-0.0122 0.094-0.0139 0.246-0.0195 0.361-0.0517 0.312-0.14 0.722-0.252 1.19h-0.16c0.0198-0.097 0.0106-0.071 0.0332-0.18 0.279-1.18 0.431-2.56 0.436-3.93 7e-4 -0.279-1.6e-4 -0.524-0.0059-0.541-0.0113-0.041-0.017 0.045-0.0644 1.11-0.0091 0.21-0.0354 0.406-0.0508 0.611 0.0342-0.706 0.0489-1.51 0.0195-1.83l-0.0273-0.31 0.0039 0.451c9e-3 1.06-0.0908 2.49-0.229 3.28-0.0302 0.174-0.125 0.617-0.211 0.984l-0.0801 0.346h-0.0078c0.0199-0.148 0.0343-0.26 0.0781-0.559 0.0838-0.572 0.204-1.33 0.268-1.7 0.0642-0.362 0.114-0.672 0.109-0.689-0.0153-0.062-0.246 1.13-0.408 2.11-0.0685 0.414-0.102 0.579-0.131 0.715l-0.0137-0.322c-0.0138-0.36-0.0268-0.762-0.0352-1.04 0.0134-0.11 0.0278-0.226 0.0606-0.41 0.0446-0.256 0.0795-0.475 0.0762-0.488-0.0023-0.013-0.0417 0.122-0.0879 0.299l-0.0664 0.252c-6.35e-4 -0.018-0.0013-0.016-2e-3 -0.033l0.0957-0.635c0.0611-0.406 0.167-0.993 0.236-1.3 0.0688-0.312 0.122-0.572 0.121-0.588-0.0099-0.043-0.178 0.633-0.287 1.15-0.0511 0.245-0.126 0.682-0.188 1.05-0.0123-0.177-0.0222-0.514-0.0352-0.514-0.012 7e-4 -0.0167 0.172-0.0098 0.381 0.0086 0.274-3.7e-5 0.412-0.0293 0.494-0.0216 0.061-0.0362-0.018-0.0586-0.244 0.0046-0.044 2.13e-4 -0.063 0.0059-0.109 0.0407-0.343 0.044-0.392 0.0078-0.182-0.0121 0.072-0.0187 0.059-0.0293 0.102-0.0148-0.173-0.0261-0.292-0.0527-0.654-0.0484-0.661-0.11-1.51-0.135-1.89-0.0433-0.651-0.0465-0.667-0.043-0.275 0.0012 0.157 0.0364 0.633 0.0508 0.951-0.0184 0.067-0.0027 0.982 0.0312 1.8 0.0336 0.815 0.0316 0.83-0.0469 1.29-0.0439 0.255-0.116 0.584-0.16 0.73l-0.0176 0.062c-0.0219-0.101-0.0478-0.213-0.0762-0.338-0.0041-0.039-0.0068-0.086-0.0117-0.051-0.0258-0.114-0.0443-0.203-0.0684-0.305l-0.127-0.533 0.0176-0.463c0.0135-0.346 0.0084-0.596-0.0254-0.984-0.0339-0.396-0.0415-0.592-0.0234-0.818 0.0318-0.401 0.0271-0.526-0.0117-0.27-0.0226 0.149-0.0368 0.18-0.0488 0.107-0.0441-0.291-0.0487-0.281-0.0312 0.072 0.0111 0.211 0.01 0.508-0.0039 0.66-0.0638 0.731-0.35 2.2-0.504 2.59-0.0509 0.129-0.0514 0.129-0.082-0.1l-0.0312-0.232 0.0156 0.283c0.0144 0.241 0.0064 0.309-0.0527 0.469l-0.0606 0.164h-0.0137l-0.0039-0.018c0.0151-0.155 0.0352-0.32 0.0723-0.631 0.0903-0.76 0.0778-0.923-0.0215-0.274-0.0119 0.078-0.0155 0.082-0.0195 0.096-0.0215 0.238-0.0433 0.461-0.0644 0.682l-0.0371-0.145-0.0801-0.31 0.0332-0.779c0.0188-0.444 0.0648-1.01 0.105-1.32 0.0386-0.3 0.0658-0.56 0.0586-0.576-0.0066-0.017-0.0653 0.272-0.131 0.641-0.0656 0.369-0.128 0.689-0.139 0.705-0.0106 0.019-0.0209-0.137-0.0234-0.348-0.0046-0.295 0.0178-0.563 0.0996-1.16 0.11-0.797 0.182-1.64 0.197-2.31 0.0076-0.33 0.0019-0.294-0.0449 0.274-0.0622 0.753-0.16 1.67-0.195 1.83-0.0322 0.145-0.0369-0.184-0.0117-0.871 0.0111-0.294 0.015-0.55 0.0078-0.566-0.0183-0.044-0.0567 0.576-0.0879 1.39-0.0194 0.517-0.0432 0.756-0.0957 0.994-0.038 0.172-0.0761 0.316-0.0859 0.316-0.0237 0-0.0772-0.588-0.119-1.31-0.0185-0.32-0.0423-0.6-0.0527-0.623-0.0241-0.055 0.0238 1.08 0.0723 1.71l0.0391 0.496-0.156 0.5c-0.0064 0.02-0.0074 0.017-0.0137 0.037-0.0126-0.178-0.0189-0.152-0.0215 0.059-0.0664 0.202-0.136 0.406-0.146 0.406-0.0319 0-0.0305-0.134 0.0039-0.904 0.0336-0.747 0.035-2.81 2e-3 -2.47-0.0106 0.116-0.0243 0.419-0.0293 0.674-0.0057 0.255-0.0265 0.522-0.0469 0.594-0.0333 0.116-0.0386-0.067-0.0508-1.64-0.0073-0.975-9e-3 -1.87-0.0039-1.98 0.0053-0.115-0.0045-0.039-0.0215 0.168-0.0429 0.524-0.0633 1.85-0.0469 2.92 0.0138 0.912 0.0048 1.15-0.0391 1.09-0.0124-0.019-0.0241 9e-4 -0.0234 0.045 0.0016 0.106-0.25 1.26-0.275 1.26-0.0106 0-0.0188-0.03-0.0215-0.068-5.94e-4 -0.039-0.0591-0.456-0.131-0.926l-0.131-0.854 0.0469-0.404c0.0382-0.336 0.0424-0.575 0.0273-1.42-0.0265-1.48-0.0648-1.58-0.0566-0.143 0.0053 0.913-0.0028 1.28-0.0312 1.46l-0.0371 0.24-0.0644-0.359c-0.087-0.482-0.0968-0.413-0.0195 0.127l0.0625 0.436-0.0644 0.381c-0.0349 0.209-0.0732 0.364-0.0859 0.344-0.0125-0.019-0.0423 0.153-0.0644 0.385-0.0226 0.232-0.0492 0.442-0.0606 0.455-0.0308 0.053-0.064-0.546-0.0527-0.953 0.0055-0.204 0.0061-0.918 2e-3 -1.59l-0.0078-1.22-0.0117 0.869c-0.0073 0.478-0.0258 1.04-0.043 1.25-0.0299 0.373-0.0307 0.356-0.0332-0.555-0.0013-0.516 0.0012-1.06 0.0059-1.22 8e-3 -0.264 0.0063-0.261-0.0254 0.07-0.046 0.487-0.0664 1.68-0.0391 2.22 0.0215 0.43-0.0148 0.98-0.0781 1.18-0.0099 0.031-0.0453-0.233-0.0781-0.588-0.0366-0.399-0.0608-0.571-0.0644-0.453-0.0033 0.105 0.0164 0.443 0.043 0.754 0.0694 0.801 0.0364 0.903-0.0996 0.307-0.173-0.758-0.245-1.24-0.23-1.54 0.0085-0.187 0.0045-0.231-0.0137-0.156-0.0364 0.151-0.0541 0-0.0898-0.736-0.0166-0.337-0.0319-0.52-0.0312-0.404 7e-5 0.115-0.0092 0.253-0.0215 0.307-0.0521 0.237-0.0967-1.9-0.0547-2.63 0.0097-0.172 0.0086-0.172-0.0137-0.023-0.0867 0.58-0.0602 2.41 0.0527 3.65 0.0471 0.522 0.0556 0.724 0.0371 0.889-0.0134 0.117-0.0296 0.2-0.0352 0.188-0.0212-0.053-0.11-1.18-0.189-2.41-0.0659-1.03-0.0801-1.19-0.0762-0.807 0.0054 0.531 0.0889 2.13 0.16 3.06 0.0454 0.591 0.0453 0.628-2e-3 0.904-0.0634 0.371-0.219 1.03-0.244 1.03-0.0104 5e-4 -0.0898-0.304-0.176-0.676l-0.156-0.676 0.0078-0.586c0.0048-0.45-0.0098-0.754-0.0606-1.31-0.0364-0.396-0.0691-0.806-0.0703-0.914-8.4e-4 -0.108-0.0145-0.212-0.0293-0.236-0.0142-0.024-0.0245 0.014-0.0234 0.084 0.0014 0.07-0.0272 0.534-0.0606 1.03-0.0339 0.498-0.0749 1.4-0.0918 2.01-0.0291 1.05-0.0348 1.12-0.109 1.39-0.0281 0.101-0.0458 0.13-0.0664 0.178h-0.0547c-0.0208-0.07-0.0552-0.22-0.0977-0.48-0.113-0.684-0.121-0.533-0.0137 0.23 0.016 0.114 0.0128 0.15 0.0234 0.25h-0.148c-0.0198-0.072-0.0488-0.156-0.0586-0.203-0.0393-0.192-0.0366-0.228 0.0391-0.662 0.044-0.253 0.0875-0.538 0.0957-0.635 0.0152-0.171 0.0144-0.172-0.0234-0.035-0.0217 0.077-0.0389 0.168-0.0391 0.199 1.1e-4 0.031-0.0284 0.201-0.0644 0.379l-0.0664 0.324-0.0254-0.188c-0.0207-0.143-0.0134-0.29 0.0312-0.623 0.0933-0.698 0.259-2.68 0.23-2.75-0.0058-0.015-0.0348 0.232-0.0644 0.551l-0.0547 0.578-0.0195-0.451-0.0215-0.451-0.0234 0.627c-0.0367 0.982-0.061 1.31-0.117 1.57l-0.0527 0.244-0.041-0.299c-0.052-0.365-0.079-0.338-0.0352 0.033 0.0392 0.325 0.0447 0.51 0.0137 0.51-0.0133 1e-3 -0.046-0.21-0.0742-0.467-0.0937-0.852-0.107-0.924-0.0879-0.465l0.0176 0.418-0.043-0.272c-0.0437-0.279-0.143-1.33-0.199-2.12-0.031-0.434-0.031-0.426-0.0117 0.242 0.0231 0.8 0.0869 1.54 0.209 2.39 0.0466 0.332 0.0873 0.64 0.0879 0.684 8.94e-4 0.059-0.156 0.481-0.289 0.859h-0.188c0.0022-0.211 0.0072-0.451 0.0215-0.762 0.0414-0.897 0.0578-1.6 0.0371-1.57-0.0088 0.016-0.0214 0.161-0.0293 0.32-0.0073 0.159-0.0357 0.37-0.0625 0.467l-0.0488 0.176-0.0078-0.582c-0.0044-0.321-0.0035-0.902 0.0039-1.29 0.0071-0.389 0.0169-0.953 0.0195-1.25l0.0078-0.545-0.0312 0.432c-0.0379 0.535-0.0653 1.45-0.0781 2.65-9e-3 0.857-0.0145 0.935-0.0801 1.17l-0.0703 0.252-0.041-0.295c-0.025-0.179-0.0466-0.618-0.0547-1.12-0.0077-0.456-0.0186-0.8-0.0215-0.762-0.0034 0.037-0.0151 0.208-0.0254 0.379-0.0146 0.25-0.0213 0.148-0.0332-0.525-0.0077-0.459-3.85e-4 -1.09 0.0156-1.39 0.0341-0.643 0.0337-0.627 0.0176-0.58-0.0068 0.019-0.0344 0.299-0.0606 0.623-0.0409 0.499-0.0456 0.778-0.0293 1.84 0.0131 0.839 0.0356 1.42 0.0664 1.75 0.0351 0.375 0.0345 0.483 0.0137 0.615h-0.111l-0.084-0.615-0.131-0.961 0.0547-0.357c0.0469-0.316 0.0523-0.488 0.043-1.47-0.0124-1.29-0.0223-1.28-0.0391 0.039-7e-3 0.574-0.0287 1.05-0.0527 1.22l-0.0391 0.279-0.0664-0.346c-0.0697-0.354-0.0703-0.298-0.0039 0.252l0.0371 0.316-0.16 0.836c-0.0565 0.296-0.101 0.542-0.15 0.809h-0.154c0.0283-0.095 0.0526-0.191 0.0586-0.279 0.024-0.365 0.0428-1.01 0.043-1.43v-0.766l-0.0371 0.893c-0.0296 0.708-0.0712 1.25-0.107 1.58h-0.0879c-0.0079-0.075-0.014-0.099-0.0215-0.184-0.0335-0.387-0.0316-0.512 0.0039-0.978 0.0507-0.663 0.0302-2.35-0.0371-3.16-0.0253-0.296-0.0486-0.522-0.0547-0.508-0.0058 0.016 0.0109 0.464 0.0371 0.996 0.0479 0.978 0.04 2.14-0.0156 2.34-0.0128 0.044-0.0283 0.222-0.0352 0.394-0.0071 0.172-0.0311 0.44-0.0547 0.594l-0.043 0.281-0.0644-0.346c-0.105-0.566-0.179-1.33-0.191-1.97l-0.0137-0.596-0.0293 0.348c-0.0279 0.32-0.0311 0.245-0.041-0.936-0.0057-0.708-0.0048-1.37 2e-3 -1.46 7e-3 -0.096-9.71e-4 -0.037-0.0195 0.129-0.0185 0.166-0.0383 0.493-0.0449 0.725-0.0126 0.471-0.0411 0.422-0.0762-0.133-0.0131-0.2-0.0329-0.436-0.0488-0.52-0.0198-0.112-0.0208-0.077-0.0039 0.123 0.0308 0.369 0.0665 3 0.0449 3.27-0.0163 0.198-0.0228 0.174-0.115-0.4-0.098-0.608-0.0993-0.611-0.082-1.26 0.0196-0.734-0.0192-1.53-0.119-2.42-0.0594-0.534-0.259-1.8-0.275-1.75zm8.05 6.6c0.0165-0.183 0.0337-0.341 0.0508-0.523-0.0062 0.06-0.033 0.206-0.0371 0.258-0.019 0.241-0.0213 0.292-0.0137 0.266zm0.0508-0.523c0.0411-0.4 0.107-0.903 0.244-1.72l0.0566-0.334-0.0879 0.367c-0.0803 0.351-0.148 0.996-0.213 1.69zm7.11 0.703c0.0488-0.23 0.102-0.436 0.158-0.555 0.0626-0.461 0.125-1.04 0.139-1.28 0.0308-0.525 0.0525-1.43 0.0332-1.39-0.0074 0.014-0.0296 0.34-0.0508 0.725-0.0476 0.889-0.158 1.86-0.279 2.5zm5.48 0.453c1e-3 0.016 6.4e-5 0.084 2e-3 0.08 0.0017 0 0.0103-0.114 0.0137-0.139-0.0046 0.019-0.0113 0.04-0.0156 0.059zm0.0156-0.059c0.0909-0.378 0.233-0.798 0.258-1.1 0.0414-0.5 0.0693-0.685 0.168-1.15 0.0643-0.306 0.115-0.569 0.111-0.582-0.0034-0.013-0.0412 0.104-0.0859 0.262l-0.0801 0.287 0.082-0.525c0.0868-0.548 0.205-1.09 0.375-1.72 0.141-0.519 0.138-0.57-0.0059-0.098-0.32 1.05-0.66 2.87-0.766 4.08-0.0252 0.286-0.0435 0.441-0.0566 0.539zm0.764 0.164c0.0142-0.089 0.0263-0.189 0.0332-0.283-0.0052 0.027-0.0092 0.044-0.0195 0.117-0.0126 0.088-0.015 0.142-0.0137 0.166zm14.3 0.078c0.0116-0.072 0.0179-0.09 0.0293-0.16-0.0944 0.06-0.108 0.107-0.0293 0.16zm0.0293-0.16c0.0176-0.011 0.0536-0.028 0.0801-0.041 0.0452-0.312 0.101-0.683 0.15-0.977 0.063-0.374 0.153-0.916 0.199-1.21l0.084-0.525-0.0918 0.414c-0.105 0.47-0.256 1.31-0.422 2.33zm2.41 0.127c0.026 0 0.0641 0 0.0898-0.01 0.0051-0.246 0.0536-1.02 0.141-2.08 0.0833-1 0.09-1.15 0.0391-0.787-0.0687 0.496-0.204 1.96-0.27 2.87zm0.143-0.01c0.0512 0 0.129-0.01 0.18-0.012 0.0246-0.3 0.0534-0.642 0.0742-0.746 0.0353-0.179 0.0386-0.222 0.0098-0.152-0.0578 0.141-0.0546-0.01 0.0156-0.719 0.0318-0.326 0.0434-0.504 0.0273-0.393-0.0164 0.111-0.0465 0.242-0.0664 0.293-0.0857 0.222 0.177-1.84 0.324-2.54 0.0342-0.164 0.0337-0.166-0.0098-0.025-0.169 0.548-0.406 2.31-0.473 3.53-0.0255 0.455-0.048 0.619-0.082 0.77zm0.709-0.029c0.028-1e-3 0.0467-9e-4 0.0742 0 0.0181-0.059 0.0426-0.115 0.0527-0.172 0.0348-0.196 0.138-0.884 0.23-1.53l0.168-1.17-0.137 0.838c-0.076 0.46-0.177 1-0.225 1.2-0.0832 0.355-0.0816 0.339 0.0469-0.539 0.073-0.498 0.155-1.02 0.182-1.17 0.046-0.254 0.0439-0.251-0.0352 0.064-0.116 0.464-0.308 1.61-0.359 2.14-0.0095 0.098-0.0023 0.225 2e-3 0.346zm0.275-0.01h0.127l0.141-0.434-0.0039 0.43c0.0227-6e-4 0.0461 0 0.0684 0l-0.0039-0.639 0.104-0.383c0.0861-0.319 0.124-0.549 0.23-1.36 0.187-1.43 0.165-1.53-0.0332-0.143-0.126 0.88-0.186 1.23-0.24 1.4l-0.0723 0.228-0.0137-0.356c-0.0168-0.475-0.0362-0.408-0.0371 0.121l-2e-3 0.428-0.117 0.357c-0.0646 0.197-0.125 0.343-0.135 0.322-9.29e-4 0-0.01 0.034-0.0117 0.035zm0.801-0.022c0.0484-6e-4 0.126-0.01 0.172-0.01 0.0192-0.137 0.0215-0.229 0.0391-0.289 0.0648-0.226 0.0656-0.085 2e-3 0.24-0.0047 0.024-0.0069 0.025-0.0117 0.049 0.0158-1e-4 0.0451 0 0.0606 0 0.135-0.845 0.324-1.99 0.264-1.75-0.0271 0.11-0.0853 0.399-0.127 0.644-0.0423 0.245-0.102 0.499-0.133 0.566-0.0495 0.108-0.0287-0.069 0.186-1.59 0.133-0.94 0.262-1.8 0.283-1.91 0.0218-0.11-2.75e-4 -0.039-0.0469 0.158-0.118 0.5-0.329 1.77-0.467 2.81-0.118 0.88-0.162 1.11-0.195 1.04-0.0085-0.018-0.0188 0-0.0254 0.037zm0.555 0c0.0261 6e-4 0.0499 0 0.0742 0 0.0013-0.192 0.0043-0.434 0.0508-0.959 0.0276-0.31 0.0462-0.584 0.0391-0.607-0.0151-0.053-0.118 0.944-0.164 1.56zm0.191 0.01c0.0617 0 0.121 0.01 0.166 0.012 0.0418-0.192 0.0614-0.333 0.164-0.68 0.223-0.755 0.418-1.56 0.529-2.2 0.0551-0.317 0.0421-0.281-0.0859 0.26-0.17 0.718-0.398 1.59-0.455 1.73-0.0528 0.136-0.0106-0.18 0.113-0.84 0.0533-0.282 0.0926-0.528 0.0879-0.545-0.0118-0.045-0.139 0.547-0.287 1.33-0.0922 0.489-0.148 0.714-0.232 0.934zm0.303 0.043c0.0113 0 0.0502 0.01 0.0547 0.012 0.0814-0.284 0.147-0.53 0.143-0.547-0.0037-0.015-0.0967 0.244-0.197 0.535zm-58.5-2.06c-4.95e-4 1e-3 -0.0017 0-2e-3 0.01 3.92e-4 0 0.0015-0.01 2e-3 -0.01zm-2e-3 0.01c-0.0335 0.228-0.0175 0.502 0.0703 0.844-0.05-0.517-0.0741-0.796-0.0703-0.844zm0.557-0.711c0.0075 0 0.0177 0 0.0254-0.01-0.0338-0.273-0.0468-0.349-0.0352-0.096 6e-4 0.013 0.0087 0.085 0.0098 0.102zm0.496-0.109c0.0144-1e-3 0.0322 8e-4 0.0469 0-0.0357-0.222-0.0391-0.328-0.111-0.691-0.111-0.558-0.205-0.998-0.211-0.988-0.0051 0.014 0.0672 0.444 0.16 0.955 0.0499 0.275 0.0808 0.493 0.115 0.725zm0.0469 0c0.0367 0.228 0.105 0.568 0.113 0.711 0.0197 0.349 0.0356 0.421 0.156 0.721 0.0742 0.182 0.134 0.302 0.133 0.266-0.0027-0.037-0.0245-0.333-0.0527-0.656-0.0185-0.211-0.0276-0.682-0.041-1.04-0.106 0-0.212-0.011-0.309-0.01zm0.309 0.01h0.115c-0.0222-0.38-0.0319-0.725-0.0098-0.889 0.0255-0.189 0.0634 0.223 0.0957 0.891h0.0488c-0.0078-0.135-0.0166-0.288-0.0137-0.295 3e-3 -0.01 0.0375 0.162 0.0664 0.305 0.032 0 0.069 0.013 0.102 0.018-0.022-0.101-0.0372-0.156-0.0762-0.354-0.0809-0.409-0.155-0.844-0.166-0.967-0.0109-0.122-0.0368-0.254-0.0586-0.295-0.0595-0.111-0.0787-0.698-0.0391-1.24 0.0197-0.265 0.0286-0.496 0.0215-0.512-0.0154-0.039-0.0816 0.664-0.0801 0.834 0.0038 0.254-0.0505 0.12-0.0996-0.25-0.068-0.504-0.0849-0.436-0.0195 0.08 0.039 0.311 0.0562 0.719 0.0762 1.76 0.0082 0.426 0.0253 0.599 0.0371 0.908zm0.404 0.033c0.0514 0.236 0.079 0.327 0.0918 0.225 0.0057-0.044-0.0081-0.145-0.0098-0.211-0.0267 0-0.0557-0.01-0.082-0.014zm0.082 0.014c0.0248 0 0.051 0.01 0.0762 0.014-0.105-0.645-0.182-1.02-0.0918-0.318 0.0179 0.137 0.0132 0.209 0.0156 0.305zm0.0762 0.014c0.041 0.252 0.0723 0.425 0.121 0.77 0.0696 0.494 0.131 0.91 0.137 0.926 0.0159 0.048 0.082-0.228 0.0977-0.408 8e-3 -0.092 0.0341-0.224 0.0586-0.293 0.0338-0.095 0.0675-0.51 0.0879-0.9-0.177-0.042-0.338-0.066-0.502-0.094zm0.502 0.094c0.0639 0.015 0.134 0.038 0.199 0.055 0.0046-0.034 0.0035-0.052 0.0098-0.094 0.0278-0.183 0.0568-0.332 0.0644-0.332 0.0059-4e-4 0.0056 0.227 0.0039 0.447 0.0156 0 0.0312 0.01 0.0469 0.014-1.42e-4 -0.418 0.0032-0.887-2e-3 -1.12-0.0085-0.382-0.0127-0.962-0.0078-1.29l0.0078-0.592-0.0273 0.488c-0.0153 0.268-0.0374 0.786-0.0488 1.15-0.0114 0.371-0.0439 0.8-0.0723 0.977l-0.0488 0.316-0.0332-1.01c-0.0314-0.98-0.145-2.32-0.223-2.62-0.0254-0.098-0.0289-0.094-0.0156 0.025 0.073 0.666 0.147 1.74 0.154 2.24 0.0039 0.334 0.0109 0.718 0.0137 0.852 0.0029 0.119-0.0122 0.314-0.0215 0.492zm0.324 0.09c9.2e-5 0.27 0.0044 0.475 2e-3 0.723-0.0237 0.27 0.159 0.52 0.238 0.779l0.195-0.684 0.0215-0.691c-0.158-0.049-0.305-0.086-0.457-0.127zm0.457 0.127c0.0265 0.01 0.0535 0.017 0.0801 0.025 0.034-1.18 0.0644-2.04 0.0977-2.63 0.0218-0.384 0.0368-0.703 0.0332-0.719-0.0335-0.087-0.169 2.03-0.209 3.27zm0.0801 0.025c-0.0012 0.041-0.0027 0.05-0.0039 0.092l-0.0098 0.35 0.0508-0.143c0.0137-0.038 0.03-0.173 0.0469-0.27-0.0277-0.01-0.0565-0.021-0.084-0.029zm0.084 0.029c0.0302 0.01 0.0615 0.021 0.0918 0.031 3e-3 -0.141 0.0057-0.282-0.0059-0.394l0.0078-0.348-0.0449 0.42c-0.0127 0.12-0.0307 0.187-0.0488 0.291zm0.0918 0.031c-0.028 1.33-0.586 3.62 0.287 1.19 0.0063-0.077-0.0215-0.349-0.0625-0.606-0.102-0.643-0.0917-0.66 0.0352-0.058l0.107 0.514 0.117-0.455c0.0476-0.184 0.057-0.262 0.0859-0.391-0.193-0.07-0.382-0.133-0.57-0.195zm0.57 0.195c0.0285 0.01 0.0554 0.019 0.084 0.029 0.0033-0.016 0.0088-0.038 0.0117-0.053l0.0742-0.373 0.0449 0.309 0.0254 0.18c0.0325 0.012 0.0651 0.027 0.0977 0.039-0.0292-0.131-0.0652-0.26-0.082-0.393-0.0535-0.321-0.0532-0.327-0.0039-0.695 0.0578-0.432 0.161-1.45 0.156-1.55-0.0026-0.081-0.0294 0.098-0.143 0.994-0.0402 0.318-0.0827 0.578-0.0957 0.578-0.0128 4e-4 -0.039-0.123-0.0586-0.275-0.0518-0.399-0.0622-0.288-0.0176 0.186 0.0338 0.362-4.7e-4 0.617-0.0938 1.03zm0.338 0.131c0.0745 0.334 0.172 0.663 0.283 0.986-0.0367-0.342-0.0298-0.567 0.0078-0.258 0.0105 0.088 0.0325 0.222 0.0449 0.299 0.108 0.776 0.109 0.91 0.0781 0.07-0.017-0.284-0.0265-0.608-0.0293-0.941-0.129-0.051-0.256-0.107-0.385-0.156zm0.385 0.156c0.0491 0.02 0.0974 0.039 0.146 0.059-0.0131-0.3-0.0256-0.536-0.0039-0.906 0.0184-0.32 0.029-0.594 0.0234-0.607-0.0053-0.013-0.0258 0.111-0.0469 0.277l-0.0371 0.303 0.0039-0.545c5e-3 -0.569 0.043-1.14 0.119-1.8 0.0629-0.547 0.0511-0.599-0.0215-0.1-0.125 0.86-0.193 2.18-0.184 3.32zm0.146 0.059c0.0042 0.096-8e-3 0.164 0 0.289 0.168 1.4 0.268 1.28 0.312 0.625 0.124 0.609 0.312 0.523 0.244-0.69-0.0727-0.031-0.146-0.058-0.219-0.088 0.0043-0.504-0.0038-1.06-0.0312-1.58-0.0039-0.051-0.0025-0.044-0.0059-0.09-0.0747 0.625-0.0954 1.18-0.0781 1.63-0.0745-0.031-0.148-0.06-0.223-0.09zm0.301-1.54c0.0095-0.08 0.0119-0.148 0.0234-0.23-0.066-0.621-0.0733-0.458-0.0234 0.23zm0.256 1.76c0.0573 0.024 0.115 0.046 0.172 0.07-0.0474-0.358-0.103-0.757-0.107-1.02-0.0054-0.286-0.0481-0.208-0.0566 0.104-0.0115 0.404-0.115-1.02-0.133-1.84-0.0209-0.933-0.0527-0.77-0.041 0.211 0.0083 0.723 0.0696 1.63 0.164 2.41 0.0015 0.024 6.3e-4 0.035 2e-3 0.059zm0.172 0.07c0.0187 0.141 0.0207 0.291 0.041 0.4 0.0146 0.636 0.149 0.061 0.15 0.061 0.0456-0.152 0.0638-0.242 0.0703-0.356-0.0858-0.037-0.175-0.069-0.262-0.106zm0.262 0.106c0.0372 0.016 0.0744 0.031 0.111 0.047l0.0625-0.371c0.0701-0.41 0.0951-0.711 0.129-1.45 0.0231-0.511 0.0384-0.943 0.0312-0.959-0.0067-0.017-0.0448 0.414-0.082 0.957-0.0652 0.935-0.137 1.53-0.186 1.53-0.0122 8e-4 -0.0364-0.131-0.0547-0.293-0.0329-0.284-0.0336-0.278-0.0156 0.158 0.0079 0.191 9e-3 0.288 0.0039 0.377zm-1.62-0.654c-0.0523-0.02-0.104-0.043-0.156-0.062-0.0422 0.206-0.108 0.498-0.156 0.682-0.0122 0.084 0.116 0.124 0.174 0.186l0.158-0.676zm-1.57-0.514c-0.0258-0.01-0.0525-0.015-0.0781-0.021-0.0292 0.213-0.033 0.323-0.0039 0.621 0.0458 0.472 0.068 0.349 0.082-0.475 1e-3 -0.069-4.6e-4 -0.063 0-0.125zm-1.04-0.215c-0.0166 0-0.0363-0.01-0.0527-0.01 0.0029 0.051 0.0019 0.054 0.0059 0.111 0.0153 0.21 0.0315 0.634 0.0371 0.943 3e-3 0.18 0.0818 0.352 0.123 0.527 0.0162-0.783 0.0067-0.954-0.084-1.44-0.0147-0.078-0.0165-0.072-0.0293-0.135zm-0.102-0.012c-0.031 0-0.0556 4e-4 -0.0859 0 0.0088 0.15 0.0122 0.29 0.0273 0.451 0.0272 0.293 0.0564 0.556 0.0625 0.586 0.0365 0.146 0.0396-0.013 0.0117-0.73h2e-3c-0.0052-0.136-0.0119-0.188-0.0176-0.305zm5.01 1.7c0.0381 0.017 0.0736 0.032 0.111 0.049 7.29e-4 -0.052-0.0031-0.079 0-0.133l0.0137-0.258 0.043 0.193c0.0258 0.119 0.0147 0.166 0.0059 0.226 0.0488 0.022 0.0964 0.043 0.145 0.064-0.0212-0.161-0.0301-0.29-0.0254-0.418 0.0099-0.264 8e-3 -0.27-0.0234-0.109-0.033 0.17-0.0329 0.172-0.0644 0.027-0.0182-0.079-0.031-0.206-0.0332-0.281-0.0034-0.23 0.0787-1.5 0.139-2.14 0.0316-0.334 0.0525-0.62 0.0469-0.633-0.0053-0.013-0.0459 0.272-0.0898 0.635-0.0902 0.745-0.0888 0.745-0.158-0.32-0.0242-0.373-0.0506-0.666-0.0566-0.648-0.0062 0.017 0.0107 0.526 0.0371 1.13 0.0372 0.855 0.0427 1.17 0.0215 1.41l-0.0254 0.309-0.0703-0.287c-0.117-0.484-0.106-0.32 0.0234 0.35 0.0305 0.158 0.0233 0.28-0.0391 0.84zm0.0566 0.994c0.0023-0.055 8e-3 -0.09 0.0117-0.144-0.0205-0.083-0.0924-0.049-0.121 0.336 0.0605-0.061 0.0905-0.129 0.109-0.191zm2.28 0.051c-0.0154-0.01-0.0409-0.019-0.0566-0.025-0.0028 0.118 0.0055 0.18 0.0371 0.15 0.0015 0 0.0168-0.113 0.0195-0.125zm-0.887-0.394c-0.0485-0.022-0.0828-0.036-0.133-0.059-0.0443 0.172-0.0844 0.356-0.121 0.478 0.0497 0.112 0.108 0.014 0.254-0.42zm-0.645-0.287h-0.0078c0.0048 0.049-0.0012 0.135 0.0059 0.135 0.0031 0 0.0011-0.083 2e-3 -0.131zm-0.15-0.068c-0.0092 0-0.02-0.01-0.0293-0.012 0.0106 0.103 0.0185 0.13 0.0312 0.043 7.46e-4 0-0.0026-0.026-2e-3 -0.031zm-0.0078-4.08c0.0107-0.059 0.0168-0.01 0.0117 0.201-0.0053 0.185-0.0191 0.388-0.0332 0.453-0.0183 0.087-0.0236 0.037-0.0137-0.195 0.0094-0.232 0.0245-0.4 0.0352-0.459zm2.04 0.217c0.0291 0 0.0612 1.24 0.041 1.58-0.01 0.163-0.0263 0.299-0.0371 0.299-0.0109 5e-4 -0.0538-0.146-0.0938-0.326l-0.0723-0.328 0.0469-0.385c0.0258-0.212 0.059-0.486 0.0723-0.611 0.0136-0.125 0.0321-0.228 0.043-0.228zm25.8 0.287c0.0094-0.042 0.013-0.017 0.0137 0.059 7.3e-4 0.119-0.0206 0.283-0.0625 0.469-0.0622 0.279-0.0623 0.274-2e-3 -0.184 0.0255-0.192 0.0414-0.302 0.0508-0.344zm-33.7 0.06c0.0029-0.042 0.0105-0.013 0.0215 0.057 0.0183 0.121 0.0238 0.294 0.0098 0.488-0.02 0.292-0.0214 0.286-0.0293-0.188-0.0032-0.2-5e-3 -0.313-2e-3 -0.358zm39.6 0.074c0.019-0.055 0.0195-0.01-0.0156 0.195-0.0318 0.177-0.0763 0.373-0.0996 0.434-0.0306 0.082-0.0276 0.033 0.0156-0.19 0.0428-0.222 0.0806-0.384 0.0996-0.439zm-19.5 0.258c0.0015 0.038 0.0246 0.366 0.0527 0.728s0.0476 0.791 0.041 0.953-0.0209 0.304-0.0312 0.324c-0.01 0.017-0.0476-0.079-0.084-0.217-0.065-0.246-0.0667-0.258-0.043-0.914 0.0209-0.588 0.0564-1.07 0.0644-0.875zm-14.3 0.051c0.0198-0.056 0.0359 0.14 0.0566 0.707 0.0158 0.432 0.0402 1.04 0.0547 1.36 0.0325 0.711-0.0093 0.775-0.0703 0.107-0.0518-0.566-0.0804-2.06-0.041-2.17zm35.7 0.139c0.0291 0-0.117 1.21-0.186 1.53-0.0334 0.156-0.0691 0.282-0.0801 0.283-0.0109-7e-4 -0.0312-0.148-0.0449-0.326l-0.0254-0.322 0.102-0.365c0.0561-0.201 0.127-0.463 0.158-0.582 0.0314-0.119 0.0652-0.215 0.0762-0.215zm-7.84 0.01c0.0143 0.091-0.0174 0.533-0.0898 1.2-0.0755 0.692-0.102 0.848-0.117 0.703-0.0018-0.029 0.0063-0.287 0.0215-0.572 0.0289-0.554 0.0928-1.08 0.156-1.3 0.0154-0.053 0.0245-0.062 0.0293-0.031zm-20.6 0.402c0.0145 0.01 0.0474 0.142 0.105 0.438 0.0595 0.303 0.156 0.739 0.217 0.969 0.0602 0.229 0.111 0.454 0.111 0.496 0.0036 0.245-0.0611 0.09-0.172-0.41-0.221-0.999-0.278-1.3-0.271-1.45 1e-3 -0.027 0.0049-0.041 0.0098-0.039zm26.3 0.057c0.0277-0.052 0.0141 0.138-0.0469 0.688-0.0464 0.417-0.11 1.01-0.141 1.31-0.07 0.689-0.121 0.746-0.0859 0.096 0.03-0.551 0.218-1.99 0.273-2.1zm-23.8 0.096c0.0093-0.016 0.0348 0.084 0.082 0.322 0.0474 0.239 0.0809 0.448 0.0762 0.463-0.0213 0.06-0.162-0.573-0.162-0.73-7.3e-5 -0.031 8.05e-4 -0.049 0.0039-0.055zm18.1 0.064c0.0062-0.013 0.0204 0.182 0.0312 0.434 0.0203 0.477 0.0075 0.642-0.121 1.39h-2e-3c-0.0427 0.248-0.0847 0.451-0.0957 0.451-0.0411 0-0.0194-0.448 0.0488-0.973 0.039-0.299 0.0846-0.711 0.0996-0.914 0.0158-0.204 0.034-0.383 0.0391-0.393zm-18.2 0.162c6e-3 -0.018 0.0241 0.032 0.041 0.111 0.0173 0.08 0.0209 0.144 0.0078 0.144-0.0264 9e-4 -0.0665-0.206-0.0488-0.256zm-2.41 0.037c0.0066-0.054 0.115 0.405 0.24 1.02s0.222 1.16 0.215 1.21c-0.0064 0.05-0.0899 0.24-0.188 0.422h-2e-3c-0.0976 0.182-0.185 0.333-0.193 0.332-0.0094 0-0.0682-0.119-0.131-0.266l-0.113-0.266 0.0703-0.445c0.0386-0.244 0.0805-0.487 0.0938-0.539 0.0331-0.128 0.109-0.79 0.0859-0.752-0.01 0.018-0.0422 0.175-0.0723 0.352-0.0535 0.313-0.158 0.598-0.174 0.478-7e-3 -0.049 0.0379-0.466 0.168-1.54zm21.7 0c0.0076 5e-4 -0.0281 0.251-0.0781 0.555-0.132 0.792-0.171 0.905-0.148 0.445 0.0162-0.336 0.0263-0.4 0.115-0.686 0.054-0.173 0.103-0.314 0.111-0.314zm-11.9 0.012c0.0074 0.048 0.0094 0.168 2e-3 0.338-0.0085 0.196-0.0233 0.375-0.0293 0.396-0.019 0.053-0.026-0.504-0.0078-0.641 0.0154-0.119 0.0277-0.142 0.0352-0.094zm1.69 0 0.0273 0.289c0.0151 0.159 0.0225 0.432 0.0156 0.607h-2e-3c-0.0059 0.144-0.0158 0.222-0.0254 0.262-0.0343-0.425-0.0548-0.54-0.0742-0.666 0.0039-0.033 3e-3 -0.037 0.0078-0.076zm-2.48 0.061 0.105 0.781c0.156 1.15 0.156 1.15 0.0664 1.71-0.0767 0.479-0.0778 0.484-0.102 0.283-0.0133-0.112-0.0353-0.43-0.0488-0.709-0.0153-0.306-0.0349-0.482-0.0488-0.443-0.0188 0.053 0.0286 0.964 0.0625 1.36h-0.0684c-0.0754-0.307-0.194-0.824-0.23-1.1-0.0131-0.102 0.0235-0.417 0.121-1.02zm-9.63 0.23c0.0196-0.01 0.282 1.29 0.283 1.4 0.0029 0.194-0.07 0.282-0.148 0.193-0.0694-0.078-0.0682-0.073-0.0234 0.051 0.0449 0.124 0.0382 0.146-0.145 0.533l-0.189 0.404-0.0059-0.414c-5e-3 -0.325 0.0063-0.454 0.0508-0.611 0.115-0.405 0.124-0.474 0.0332-0.236l-0.0938 0.244-0.0059-0.328c-0.0045-0.283 0.012-0.39 0.113-0.779 0.0646-0.248 0.123-0.457 0.131-0.457zm-1.83 0.09c0.0335 0 0.0291 0.333-0.0078 0.596-0.0422 0.3-0.0565 0.302-0.0723 0.016-0.0121-0.22 0.0389-0.612 0.0801-0.613zm4.94 0.033c0.0317 0 0.336 1.14 0.357 1.34 0.0111 0.099 0.0081 0.366-0.0059 0.596-0.0149 0.229-0.0359 0.434-0.0449 0.447-0.0094 0.016-0.0473-0.069-0.0859-0.189-0.0535-0.168-0.0756-0.336-0.0957-0.719-0.0148-0.274-0.0527-0.671-0.084-0.881-0.0601-0.403-0.0736-0.591-0.041-0.592zm18.3 0.043c0.0074 0.06 0.0093 0.21 0.0059 0.441-0.0035 0.217-0.0114 0.406-0.0195 0.42-0.0273 0.051-0.0471-0.591-0.0234-0.766 0.0169-0.126 0.0297-0.156 0.0371-0.096zm-5.28 0.014c0.0028 0.01-5.63e-4 0.044-0.0098 0.109-0.0125 0.092-0.0545 0.27-0.0918 0.398l-0.0684 0.234 0.0566-0.303c0.0498-0.267 0.105-0.467 0.113-0.44zm12.5 0.02c0.0107 0 0.0205 0.116 0.0195 0.256-4e-4 0.14 0.0017 0.316 0.0059 0.391 0.0054 0.105-0.0691 0.404-0.334 1.33-0.0425 0.148-0.0598 0.295-0.0723 0.436 0.0434-0.084 0.0861-0.172 0.117-0.277 0.143-0.484 0.263-0.919 0.27-0.965 0.0064-0.047 0.0202-0.081 0.0312-0.082 0.0208 0 0.0513 1.15 0.0312 1.18-0.0668 0.102-0.131 0.177-0.213 0.291h-0.25c0.0028-0.05 9e-3 -0.094 0.0137-0.146-0.0281 0.054-0.0509 0.1-0.0781 0.146h-0.168c0.0679-0.144 0.142-0.318 0.211-0.541 0.166-0.535 0.32-1.05 0.342-1.13 0.0606-0.239-0.0061-0.121-0.0977 0.172-0.0697 0.223-0.199 0.46-0.215 0.396-0.01-0.04 0.366-1.45 0.387-1.45zm-35.1 0.029c0.0208 0.054 0.0229 0.133 0.0059 0.273-0.0234 0.196-0.0244 0.196-0.0312-0.076-0.0046-0.198 0.0032-0.253 0.0254-0.197zm-5.59 0.01c-0.0163-0.061-0.0234-0.029-0.0215 0.102 0.0024 0.181 0.117 0.832 0.137 0.777 0.0061-0.015-0.0143-0.208-0.043-0.43-0.0309-0.237-0.056-0.389-0.0723-0.449zm24 0.084c0.0074 0.144 0.0121 0.221 0.0234 0.438-0.0035-0.013-0.0063-0.011-0.0098-0.025-0.0329-0.137-0.0316-0.232-0.0137-0.412zm11.7 0v0.605l-0.254 0.633c-0.139 0.348-0.259 0.633-0.266 0.633-0.0068-5e-4 -0.0162-0.112-0.0195-0.248-0.0072-0.246-0.0069-0.25 0.139-0.584 0.0804-0.184 0.203-0.494 0.273-0.688zm-22.1 0.094c0.0407-0.043 0.0639 0.521 0.041 0.998-0.034 0.696-0.0397 0.706-0.172 0.35-0.0633-0.171-0.113-0.34-0.115-0.377-0.0012-0.081 0.216-0.942 0.246-0.971zm5.92 0.037c0.0102-5e-4 0.0413 0.113 0.0684 0.25 0.0424 0.216 0.0456 0.3 0.0234 0.623h-2e-3c-0.0157 0.229-0.0498 0.436-0.0879 0.535l-0.0606 0.16 0.0098-0.209c0.0073-0.115 0.0169-0.467 0.0215-0.783 0.0047-0.316 0.0165-0.576 0.0273-0.576zm3.48 0.024h2e-3c0.0068 0.086 0.0102 0.21 0.0039 0.277-0.0065 0.067-0.0137 0-0.0156-0.156-0.0019-0.155 0.0014-0.207 0.0098-0.121zm-15.6 0.027c0.0209-7e-4 0.219 1.17 0.203 1.2-0.113 0.249-0.306 0.623-0.369 0.713-0.0451 0.064-0.0876 0.118-0.0938 0.119-0.0063 3e-4 0.0454-0.419 0.115-0.93 0.0698-0.51 0.126-0.967 0.125-1.01-6.9e-4 -0.05 0.0087-0.088 0.0195-0.088zm14.9 0c0.0607 0.263 0.0509 0.468-0.0449 0.99-0.0546 0.297-0.12 0.616-0.145 0.707l-0.043 0.166-0.0215-0.285c-0.0181-0.237-0.0103-0.358 0.0488-0.691 0.107-0.606 0.189-0.958 0.205-0.889zm-13.1 0.018 0.0449 0.471c0.0304 0.313 0.0386 0.535 0.0254 0.66-0.0198 0.183-0.0222 0.18-0.043-0.09-0.0118-0.152-0.0236-0.448-0.0254-0.658zm6.52 0.055c0.0085-3e-4 0.0595 0.307 0.113 0.684 0.0778 0.541 0.0947 0.726 0.0781 0.881l-0.0215 0.195-0.111-0.373c-0.0607-0.206-0.117-0.413-0.129-0.457-0.0206-0.085 0.0428-0.929 0.0703-0.93zm12.5 0.014c0.0116 0.022 0.0073 0.085-0.0078 0.139h-2e-3c-0.0387 0.136-0.0518 0.118-0.0293-0.043 0.0104-0.076 0.0277-0.117 0.0391-0.096zm0.922 0.01 0.0078 0.252c0.0048 0.138-0.0018 0.276-0.0137 0.307-0.0128 0.031-0.0083 0.073 0.0078 0.094 0.0164 0.02 0.035 0.288 0.041 0.592 0.0071 0.347-0.0036 0.641-0.0273 0.787l-0.0215 0.125h-0.043l-0.0195-0.086c-0.0346-0.148-0.0364-0.348-0.0117-0.836 0.0175-0.352 0.0318-0.732 0.0332-0.844 1.2e-4 -0.178-0.0076-0.153-0.0527 0.201-0.0871 0.679-0.0941 0.699-0.115 0.312l-0.0195-0.357 0.117-0.273zm-1.78 0-0.105 0.961c-0.0824 0.754-0.116 0.996-0.16 1.12-0.0134 0.039-0.021 0.043-0.0332 0.07h-0.0547c-0.0396-0.124-0.0397-0.536 0.0156-0.836 0.0267-0.138 0.0353-0.203 0.0195-0.139-0.0409 0.161-0.076 0.142-0.0684-0.039 0.0042-0.084-0.0111 0.014-0.0332 0.217l-0.0391 0.371-0.0137-0.272c-0.02-0.403-0.0457-0.311 0.305-1.09zm-11.3 0.043c0.0096 0.038 0.0285 0.197 0.0488 0.447 0.0207 0.252 0.0333 0.472 0.0273 0.49-0.012 0.034-0.032-0.149-0.0684-0.652-0.0176-0.238-0.0174-0.323-0.0078-0.285zm18 0c0.0099 0.02 0.0031 0.264-0.0156 0.541-0.026 0.402-0.0517 0.591-0.125 0.941-0.0499 0.24-0.0991 0.438-0.107 0.438-0.0359 0-0.0356-0.98 0-1.15 0.0614-0.288 0.229-0.812 0.248-0.772zm-24 0.01c0.0285 0 0.0359 0.723 0.0078 0.803-0.013 0.037-0.078 0.366-0.145 0.732-0.0724 0.4-0.105 0.557-0.125 0.566-0.0061 9e-4 -0.0114-0.011-0.0156-0.037-0.0113-0.075-0.0526-0.305-0.0898-0.512l-0.0684-0.375 0.209-0.588c0.114-0.323 0.216-0.59 0.227-0.59zm-9.36 0.01c-0.0244-0.039-0.113 0.515-0.131 0.816 0.195 1.92 0.222 0.61 0.195-0.266-0.0223-0.284-0.0516-0.531-0.0644-0.551zm22.3 0c0.0063-0.019 0.0212 0.062 0.0332 0.182 0.0122 0.12 0.018 0.233 0.0098 0.254-0.0063 0.019-0.0212-0.064-0.0332-0.184-0.0122-0.12-0.0179-0.231-0.0098-0.252zm-8.42 0.012c0.0265 0.01 0.0782 0.138 0.162 0.328 0.451 1.02 0.397 0.832 0.439 1.55 0.0028 0.047 0.0258 0.142 0.0371 0.207h-0.631c0.0248-0.198 0.043-0.449 0.0234-0.818-0.0504-0.953-0.0754-1.28-0.0312-1.26zm-13.1 0.012c-0.0031-0.019-0.0117 0-0.0293 0.051-0.0232 0.063-0.0426 0.277-0.0469 0.523l-0.0078 0.418 0.0312-0.281c0.0166-0.154 0.0385-0.39 0.0469-0.523 0.0068-0.109 9e-3 -0.169 0.0059-0.188zm44.7 0.031c0.0136 0.01 0.026 0.142 0.041 0.434 0.0154 0.299 0.0513 0.731 0.0781 0.959 0.0267 0.228 0.043 0.447 0.0371 0.488h2e-3c-0.0316 0.236-0.0735 0.081-0.111-0.414-0.0757-0.988-0.0891-1.28-0.0606-1.43 0.0049-0.026 0.0091-0.037 0.0137-0.035zm-22.1 0.047c0.0113 0.018 0.0359 0.122 0.0547 0.232 0.0325 0.188-0.0097 0.465-0.121 0.986-0.0145-0.034-0.0154-0.014-0.0078 0.037-0.0279 0.129-0.0343 0.185-0.0742 0.359-0.0512 0.223-0.0703 0.267-0.0996 0.377h-0.168c-0.0111-0.069-0.0272-0.16-0.0273-0.17-3.09e-4 -0.015 0.0544-0.225 0.121-0.467 0.0668-0.242 0.162-0.653 0.211-0.914 0.0495-0.261 0.1-0.456 0.111-0.441zm10.8 0c3.72e-4 0.018-0.0107 0.075-0.0332 0.18h2e-3c-0.0275 0.128-0.0844 0.351-0.123 0.498l-0.0703 0.268 0.0664-0.4c0.0397-0.237 0.091-0.442 0.123-0.5 0.0243-0.044 0.0348-0.063 0.0352-0.045zm4.17 0.043c0.0129 0.054 0.0039 0.132-0.0332 0.266-0.0515 0.186-0.052 0.186-0.0195-0.076 0.0242-0.198 0.0388-0.246 0.0527-0.19zm-18.5 0.057c0.0154-0.022 0.0196 0.083 0.0254 0.428 9e-3 0.554-0.0058 0.645-0.0371 0.244-0.0108-0.144-0.0244-0.308-0.0312-0.367-0.0067-0.059 0.0034-0.169 0.0234-0.244 0.0082-0.031 0.0144-0.053 0.0195-0.061zm2.69 0c5.5e-4 0.038-0.0097 0.119-0.0234 0.176-0.013 0.058-0.0227 0.073-0.0254 0.035-5.5e-4 -0.038 0.0098-0.118 0.0234-0.176 0.0131-0.059 0.0227-0.073 0.0254-0.035zm-14.1 0.01c0.0054 0 0.0075 0.034 0.0098 0.078 0.0058 0.114 0.0273 0.45 0.0469 0.746 0.0309 0.466 0.0248 0.595-0.0312 1.06h-0.312c0.0022-0.052 0.0103-0.142 0.0059-0.174-0.011-0.076 0.0398-0.447 0.133-0.98 0.0961-0.551 0.132-0.741 0.148-0.727zm24.2 0 0.0332 0.492c0.0185 0.27 0.0287 0.529 0.0215 0.576h2e-3c-0.0177 0.131-0.204 0.608-0.211 0.539-0.0157-0.161 0.0382-0.846 0.0938-1.21zm-25.3 0.016c0.0294 0 0.107 1.55 0.0859 1.71-0.0031 0.024-0.0072 0.107-0.0078 0.156h-0.299l-0.0371-0.334 0.137-0.504c0.118-0.434 0.123-0.47 0.041-0.256l-0.0938 0.248 0.0352-0.246c0.0629-0.446 0.121-0.772 0.139-0.772zm14.8 0.01 0.043 0.338c0.0477 0.372 0.0604 0.284-0.164 1.14-0.0258-0.271-0.0538-0.543-0.0723-0.936 0.0081-0.023 0.0085-0.026 0.0176-0.051zm5.3 0.037c0.0087 0.019 0.0062 0.162-0.0059 0.32-0.0115 0.158-0.0387 0.386-0.0606 0.508l-0.0371 0.221-0.0488-0.207-0.0488-0.207 0.0938-0.334c0.0508-0.184 0.0987-0.316 0.107-0.301zm-22.6 0.01c0.0165-0.075 0.0243 0.011 0.0293 0.295 4e-3 0.22 0.0035 0.4-2e-3 0.4-0.0477 0-0.0679-0.515-0.0273-0.695zm4.58 0.014c0.0157-0.028 0.0282 0.125 0.0332 0.408 0.0026 0.248-0.0052 0.469-0.0195 0.494-0.0157 0.027-0.029-0.122-0.0332-0.406-0.0038-0.249 0.0052-0.471 0.0195-0.496zm0.729 0c0.0034 1e-4 0.0041 0.024 0.0039 0.068-8.13e-4 0.058-0.0088 0.168-0.0195 0.244l-0.0215 0.139-0.0039-0.139c-2e-3 -0.077 0.0091-0.186 0.0215-0.244 0.0104-0.046 0.016-0.07 0.0195-0.07zm-10.9 0.02-2e-3 0.418c0.0396 1.57 0.256 1.07 0.107 0.08zm20.7 0.01c0.0039-0.011 0.0502 0.179 0.104 0.422 0.0622 0.285 0.088 0.469 0.0723 0.512-0.0155 0.044-0.0522-0.108-0.104-0.424-0.0444-0.27-0.0764-0.497-0.0723-0.51zm-13.6 0.033c6e-3 0.015-0.0205 0.224-0.0586 0.465-0.038 0.24-0.0773 0.44-0.0859 0.439-0.0081 0-0.011-0.044-0.0039-0.098 0.0069-0.054 0.0235-0.227 0.0391-0.385 0.0258-0.266 0.0833-0.487 0.109-0.422zm0.875 0c-0.0047 0.033-0.0474 0.272-0.0938 0.529-0.0466 0.258-0.093 0.472-0.102 0.471-0.0092 7e-4 -0.0237-0.066-0.0332-0.15-0.0133-0.117 0.0121-0.241 0.109-0.531 0.0695-0.208 0.124-0.35 0.119-0.318zm12.6 0.016c0.0067 0.018 0.0586 0.292 0.115 0.609l0.104 0.578-0.0742 0.309h-2e-3c-0.0298 0.124-0.0466 0.177-0.0625 0.227h-0.0273c-6e-3 -0.059-0.0131-0.189-0.0176-0.42-0.0051-0.277-0.0167-0.691-0.0273-0.92-0.0103-0.229-0.015-0.401-0.0078-0.383zm0.545 0.012c0.0208-0.067 0.0631 0.353 0.0684 0.67 0.0051 0.336-0.0458 0.382-0.0977 0.084-0.038-0.217-0.0408-0.304-0.0176-0.479 0.0156-0.117 0.0363-0.243 0.0469-0.275zm5.05 0.021-0.0039 0.229c-0.0047 0.23-0.0235 0.317-0.0449 0.23-0.0067-0.025 0.0016-0.139 0.0176-0.252zm9.55 0.031c0.0025 0.012 0.013 0.412 0.0234 0.889l0.0176 0.77h-0.551c0.0117-0.168 0.03-0.348 0.0644-0.543 0.0701-0.167 0.197-0.49 0.283-0.719 0.0857-0.229 0.159-0.41 0.162-0.396zm10.3 0.014c0.0143-0.051 0.0558 0.403 0.0918 1.01 0.0163 0.276 0.0693 0.465 0.104 0.635h-0.492c0.0273-0.081 0.0687-0.21 0.0781-0.232 0.0513-0.12 0.222-0.749 0.193-0.715-0.0124 0.016-0.0679 0.164-0.123 0.33-0.098 0.295-0.242 0.559-0.24 0.441 1.87e-4 -0.048 0.105-0.444 0.389-1.47zm-34.3 0.066c0.0064 0.029 0.0098 0.187 0.0059 0.352-0.0067 0.273-0.0248 0.339-0.201 0.758-0.106 0.252-0.208 0.461-0.227 0.461-0.0185 7e-4 -0.0461-0.08-0.0625-0.18-0.0158-0.101-0.0352-0.207-0.043-0.238-0.0076-0.031 0.0471-0.165 0.121-0.299 0.074-0.134 0.194-0.393 0.266-0.576 0.0717-0.182 0.136-0.307 0.141-0.277zm36.9 0c0.0074 0.042 0.0151 0.138 0.0234 0.295 0.0128 0.235 0.0146 0.439 0.0078 0.453-0.0297 0.055-0.0772-0.57-0.0547-0.721 0.0086-0.059 0.0161-0.07 0.0234-0.027zm-18.9 0.016c0.0127-0.027 0.0269 0.115 0.0332 0.316 0.0101 0.357 0.0059 0.376-0.0938 0.822-0.0181 0.08-0.0552 0.263-0.0879 0.424h-0.262c0.0131-0.025 0.0391-0.084 0.0391-0.084 0.0908-0.309 0.206-0.758 0.256-0.996 0.0499-0.239 0.102-0.453 0.115-0.482zm13.8 0.016c0.0335 0-0.0194 0.322-0.0938 0.57-0.0849 0.286-0.0998 0.288-0.0742 0.01 0.0196-0.213 0.127-0.58 0.168-0.58zm-30.4 0.02 0.0195 0.172h2e-3c0.0123 0.095 0.0103 0.199-2e-3 0.232-0.0327 0.09-0.0496-0.03-0.0332-0.228zm4.94 0.031-0.0098 0.174c-0.0067 0.095-0.0109 0.228-0.0098 0.295h-2e-3c8.2e-4 0.067-0.0088 0.123-0.0234 0.123-0.0383 0-0.0351-0.216 0.0078-0.418zm5.1 0.01c0.0035 0.014-0.0026 0.081-0.0117 0.215-0.0222 0.328-0.0357 0.375-0.0566 0.191-0.0091-0.082 0.0026-0.209 0.0293-0.301 0.0229-0.08 0.0356-0.119 0.0391-0.105zm-8.01 0.055c8e-3 0.105 0.0086 0.261 0.0039 0.346-0.0046 0.085-0.0092 1e-4 -0.0117-0.192-0.0032-0.19 1.12e-4 -0.254 0.0078-0.154zm-2.67 0c0.0018 0.017-9e-3 0.075-0.0273 0.178-0.0446 0.247-0.0612 0.269-0.0644 0.078-0.0012-0.075 0.022-0.169 0.0508-0.215 0.0259-0.039 0.0392-0.058 0.041-0.041zm32.9 0.012c0.0206-0.01 0.0952 1.27 0.0801 1.38-0.0024 0.018-0.0102 0.021-0.0137 0.037h-0.441c0.132-0.292 0.156-0.363 0.043-0.164l-0.0938 0.164h-0.0273l0.0352-0.256c0.0363-0.273 0.0663-0.375 0.223-0.738 0.0998-0.232 0.187-0.426 0.195-0.426zm-10.8 0c0.0233-5e-4 -0.148 1.07-0.223 1.42h-0.33c0.0364-0.21 0.0814-0.355 0.275-0.811 0.142-0.334 0.266-0.606 0.277-0.607zm13.8 0.018c0.0085-0.016 0.0219 0.035 0.0273 0.113 0.0057 0.079-6.52e-4 0.142-0.0137 0.141-0.0263 0-0.0384-0.208-0.0137-0.254zm-39 0.08c0.0089 0.047 0.0107 0.126 0.0039 0.174-0.0066 0.048-0.0148 0.01-0.0156-0.086-0.0019-0.098 0.0043-0.136 0.0117-0.088zm19.4 0c0.0055 0.014 0.0072 0.044 0.0078 0.086 0.0042 0.285-0.018 0.356-0.248 0.822-0.105 0.212-0.181 0.351-0.221 0.41h-0.0801c-0.0337-0.072-0.0669-0.183-0.0586-0.246 0.0027-0.02 0.14-0.288 0.305-0.596 0.221-0.411 0.279-0.519 0.295-0.477zm-11.5 0.01c0.0103-0.018 0.0179 0.023 0.0312 0.108 0.0145 0.095 0.065 0.549 0.113 1.01 0 0 0.0404 0.12 0.0703 0.195h-0.461c0.0824-0.441 0.17-0.916 0.195-1.06 0.0269-0.154 0.0405-0.232 0.0508-0.25zm2.49 0c0.0219 0.023 0.062 0.187 0.139 0.562 0.0732 0.359 0.132 0.683 0.135 0.719 2.5e-5 0-0.0075 0.023-0.0078 0.025h-0.404c0.0501-0.58 0.104-1.19 0.123-1.29 0.0041-0.021 0.0083-0.029 0.0156-0.021zm-11.1 0.039c0.0386 0 0.0705 0.88 0.0371 1.03-0.0175 0.081-0.0373 0.148-0.0449 0.148-0.0076 4e-4 -0.0496-0.141-0.0918-0.312l-0.0762-0.312 0.0781-0.277c0.0434-0.153 0.0868-0.279 0.0977-0.279zm30.2 0.01c0.0272-0.07 0.0241 0.013-0.0117 0.287-0.0276 0.212-0.055 0.385-0.0606 0.385-0.0477 0 0.0061-0.503 0.0723-0.672zm3.62 0.012-0.0234 0.459c-0.0149 0.305-0.0373 0.52-0.0684 0.639-0.046 0.175-0.0475 0.171-0.0293-0.092 0.0101-0.148 0.0418-0.434 0.0703-0.637zm-35.6 0.016c0.0034 0.013 0.0011 0.062-0.0059 0.158-0.0194 0.266-0.0243 0.277-0.0469 0.133-0.0115-0.07-0.0023-0.164 0.0215-0.23 0.0183-0.051 0.0279-0.074 0.0312-0.061zm15.5 0c0.0214-0.025 0.0216 0.098-2e-3 0.373-0.0141 0.164-0.0672 0.392-0.137 0.584-0.0626 0.173-0.114 0.293-0.115 0.264-3.4e-4 -0.028 0.0572-0.342 0.127-0.699 0.0629-0.322 0.106-0.496 0.127-0.522zm-8.59 0c0.0154-0.016 0.0395 0.107 0.082 0.348 0.0434 0.248 0.0756 0.518 0.0723 0.598-0.0062 0.143-0.0084 0.143-0.107-0.035-0.0938-0.168-0.1-0.203-0.0879-0.434 0.0169-0.307 0.0255-0.46 0.041-0.476zm11 0 0.0117 0.275-0.0098 0.066c-0.04 0.257-0.0952 0.624-0.123 0.816l-0.0098 0.07h-0.0977l-0.0137-0.064c-0.0019-0.01-0.0076-0.033-0.0098-0.043 0.0068-0.023 0.0081-0.029 0.0156-0.055 0.0598-0.204 0.137-0.527 0.172-0.719zm13.8 0.01c0.0028 0.018-4.42e-4 0.117-0.0078 0.311-0.0096 0.255-0.0311 0.453-0.0566 0.535-0.0331 0.108-0.0372 0.087-0.0215-0.137 0.01-0.147 0.0367-0.387 0.0566-0.535 0.0181-0.128 0.0265-0.192 0.0293-0.174zm-10.8 0.01c0.0061-1e-3 0.0091 0.031 0.0039 0.068-5e-3 0.039-0.0215 0.064-0.0371 0.064-0.0162 0-0.0146-0.032-2e-3 -0.068 0.0138-0.037 0.029-0.065 0.0352-0.065zm-3.55 0.012c0.0091-1e-3 0.0954 0.388 0.189 0.856-8.44e-4 0.033-0.0033 0.026-0.0039 0.064-0.0024 0.159-0.0162 0.195-0.0254 0.277h-0.143c-0.07-0.218-0.076-0.287-0.0469-0.69 0.0027-0.038-0.0059-0.094-0.0039-0.131 0.0109-0.126 0.0188-0.262 0.0332-0.377zm-1.57 0.018c3e-4 0.017-3.47e-4 0.017 0 0.035 0.0103 0.341 0.0309 0.665 0.0586 0.975-0.0186 0.067-0.0418 0.151-0.0488 0.17h-0.0215c-0.0149-0.053-0.0584-0.389-0.084-0.676-0.0127-0.143 0.016-0.266 0.0957-0.504zm-2.22 0.01c0.0084 0.02 0.018 0.1 0.0352 0.256 0.0353 0.32 0.0342 0.324-0.082 0.848-0.0078 0.035-0.0104 0.037-0.0176 0.068h-0.0918c0.0413-0.385 0.099-0.926 0.125-1.07 0.0145-0.081 0.0228-0.12 0.0312-0.1zm-9.85 0.016c0.0053 0.011 8e-3 0.033 0.0117 0.067 0.0117 0.103-0.0142 0.266-0.0898 0.551-0.0548 0.206-0.118 0.428-0.15 0.539h-0.0586l0.0039-0.129c9e-3 -0.304 0.0275-0.398 0.145-0.728 0.0912-0.257 0.123-0.332 0.139-0.299zm-0.508 0 0.0234 0.273c0.0123 0.15 0.0232 0.336 0.0254 0.412 0.0011 0.062-0.0577 0.273-0.117 0.469h-0.115c0.049-0.364 0.105-0.794 0.146-0.982zm29.4 0.027c0.0102 0.041-0.218 0.625-0.434 1.13h-0.0879c0.0039-0.011 0.0103-0.027 0.0137-0.037 0.0384-0.115 0.0232-0.097-0.043 0.037h-0.0293c0.131-0.301 0.57-1.17 0.58-1.13zm-11.5 0.039 0.0527 0.272c0.0711 0.369 0.0623 0.42-0.125 0.682h-2e-3c-0.127 0.176-0.121 0.177-0.135-0.014-0.0093-0.131 7e-3 -0.221 0.0996-0.549zm10.1 0.01 0.0117 0.191c0.0115 0.16 0.0072 0.211-0.0332 0.297-0.0264 0.057-0.0524 0.152-0.0566 0.211-0.0031 0.042-0.0504 0.222-0.0918 0.379h-0.0449c0.0204-0.087 0.0416-0.198 0.0566-0.242 0.0292-0.092 0.0533-0.205 0.0547-0.254 1.9e-4 -0.048 0.0225-0.201 0.0508-0.336zm-22.1 0.022c0.0043-0.14 0.02-0.051 0.0586 0.32 0.0294 0.282 0.051 0.526 0.0449 0.541-0.0204 0.059-0.109-0.675-0.104-0.861zm8.08 0c-0.0027 0.028-0.0303 0.33-0.0469 0.516l-0.0117-0.041c-0.0158-0.053-0.0154-0.041-0.0273-0.078 0.0508-0.26 0.0913-0.45 0.0859-0.396zm-7.98 0c0.0058-0.017 0.0232 0.087 0.0352 0.23 0.0121 0.144 0.0557 0.506 0.0957 0.807 8.78e-4 0.01 3e-3 0.01 0.0039 0.014h-0.0781c0.0037-0.079 0.0192-0.149 0.0117-0.225-0.0436-0.437-0.0744-0.807-0.0684-0.826zm17.6 0.022 0.0098 0.559c0.0037 0.205-0.0018 0.33-0.0059 0.471h-0.148c-0.0011-0.025 0.0019-0.019 0-0.047l-0.0273-0.42 0.0859-0.281zm9.62 0.01c0.0285 0-0.068 0.701-0.107 0.775-0.0066 0.012-0.0606 0.161-0.0898 0.248h-0.369l0.256-0.482c0.16-0.298 0.3-0.54 0.311-0.541zm-1.96 0c0.0145 0-5e-3 0.544-0.0371 1.02h-0.26c0.0071-0.011 0.0293-0.049 0.0293-0.049 0.179-0.404 0.19-0.436 0.0781-0.24l-0.129 0.228 0.0703-0.232c0.127-0.423 0.231-0.729 0.248-0.728zm-0.992 0.01c0.0037 0.015-0.053 0.215-0.125 0.441s-0.14 0.41-0.148 0.41c-0.0082 0-3e-3 -0.041 0.0117-0.092 0.0145-0.051 0.0556-0.217 0.0938-0.367 0.0639-0.254 0.151-0.459 0.168-0.393zm-0.822 0.01c0.0036 0.017 0.0032 0.05 0.0039 0.096 0.0011 0.102-0.011 0.279-0.0254 0.393-0.0659 0.175-0.147 0.324-0.229 0.516h-0.189c0.0875-0.203 0.178-0.402 0.242-0.57 0.148-0.387 0.186-0.485 0.197-0.434zm-26.2 0.031c0.0044-0.027 0.0185-0.011 0.0391 0.057 0.0229 0.072 0.0398 0.158 0.041 0.189 2.02e-4 0.096-0.0456 0.06-0.0644-0.051-0.0158-0.099-0.02-0.168-0.0156-0.195zm14.4 0c0.0441 0.092-0.0965 0.579-0.26 0.971h-0.268l0.0039-0.029 0.252-0.49c0.139-0.269 0.262-0.475 0.271-0.451zm1.28 0.014c0.0038 0.014 0.0015 0.074-0.0059 0.191-0.0179 0.298-0.0458 0.381-0.0606 0.184-0.0063-0.084 7e-3 -0.197 0.0332-0.289 0.019-0.069 0.0294-0.1 0.0332-0.086zm-7.9 0c0.0067-0.019 0.0204 0.027 0.0293 0.105h-2e-3c0.0082 0.078 0.0121 0.142 0.0059 0.143-0.0184 8e-4 -0.0471-0.21-0.0332-0.248zm-7.82 0.012c0.0128-3e-4 0.0319 0.082 0.043 0.182 0.0268 0.243 0.0078 0.276-0.0332 0.059-0.0397-0.212-0.0401-0.24-0.0098-0.24zm35.2 0c0.0218 0 0.0735 0.538 0.113 0.938h-0.178c0.0088-0.126 0.018-0.276 0.0176-0.363-0.0016-0.395 0.0145-0.574 0.0469-0.574zm-6.11 0.014c0.0047 0.01 0.0041 0.033 0 0.076-0.0107 0.111-0.0393 0.437-0.0625 0.725 0.0013 0.043-0.0188 0.081-0.0234 0.123h-0.258c0.032-0.08 0.0537-0.127 0.0918-0.24 0.174-0.519 0.238-0.699 0.252-0.684zm-8.79 0.012c0.0187-0.022 0.0182 0 2e-3 0.062-0.0323 0.114-0.0522 0.134-0.041 0.037 0.0048-0.036 0.0212-0.08 0.0391-0.102zm7.67 0c-0.0094 0.031-0.0849 0.255-0.168 0.498-0.0777 0.227-0.14 0.388-0.156 0.412h-0.0137c-0.0061-0.02-0.012-0.053-0.0098-0.119 0.0036-0.114 0.0474-0.23 0.186-0.498 0.0989-0.193 0.171-0.324 0.162-0.293zm-6.07 0.025c0.0067 0.027-0.0058 0.19-0.0273 0.361-0.022 0.171-0.0543 0.321-0.0703 0.332s-0.0546-0.055-0.0859-0.148l-0.0566-0.168 0.113-0.213c0.0623-0.117 0.12-0.193 0.127-0.164zm-19.5 0.033c0.0132 0.023 0.0425 0.111 0.0938 0.279 0.0624 0.206 0.109 0.412 0.104 0.457-0.0012 0.01-0.0057 0.088-0.0078 0.115h-0.143c-0.0196-0.31-0.0405-0.643-0.0488-0.738-0.0084-0.093-0.0112-0.136 2e-3 -0.113zm11.1 0c0.0036 0.015-0.0376 0.259-0.0918 0.543-0.0312 0.162-0.0556 0.202-0.082 0.307h-0.188c0.0339-0.165 0.347-0.906 0.361-0.85zm-14.5 0.016c0.015 0.023-0.0376 0.469-0.0742 0.834h-0.285c0.0329-0.095 0.0578-0.176 0.129-0.348 0.118-0.284 0.221-0.502 0.23-0.486zm34.7 0c0.0418-0.033-0.0064 0.411-0.082 0.832h-0.27c0.0552-0.172 0.32-0.81 0.352-0.832zm-23.9 0.041c0.0171-9e-4 0.146 0.386 0.201 0.791h-0.318c-0.0056-0.062-0.0099-0.079-0.0156-0.146-0.0024-0.096-0.0101-0.064-0.0156-0.08 0.0679-0.286 0.138-0.564 0.148-0.564zm-5.09 0.01 0.0098 0.574c0.0018 0.115-5.16e-4 0.119 0 0.209h-0.0586c-0.0213-0.142-0.0465-0.253-0.0469-0.311-8.4e-4 -0.066 0.0202-0.2 0.0469-0.297zm19.3 0-0.0195 0.297c-0.0089 0.136-0.0315 0.33-0.0527 0.486h-0.102l-0.0371-0.305 0.105-0.238zm-27.9 0.01c0.0358 0.055 0.0341 0.322-0.0039 0.465h-2e-3c-0.0657 0.246-0.0874 0.102-0.043-0.283 0.0139-0.122 0.0359-0.205 0.0488-0.182zm1.54 0.01c0.0089 0.047 0.0107 0.126 0.0039 0.174-0.0066 0.048-0.0148 0.01-0.0156-0.086-0.0019-0.098 0.0044-0.135 0.0117-0.088zm15.4 0.014c0.0096-0.061 0.0179-0.022 0.0156 0.088-0.0034 0.11-0.0082 0.213-0.0156 0.223-0.0184 0.035-0.0189-0.186 0-0.31zm-6.74 0.01c0.0181-0.034 0.0152 0.134-0.0098 0.438-0.0129 0.157-0.025 0.236-0.0352 0.314h-0.0078c-0.0058-0.123 6e-3 -0.526 0.0273-0.648 0.0104-0.059 0.0194-0.092 0.0254-0.104zm-7.83 0-0.0137 0.416h2e-3c-0.0045 0.156-0.0137 0.244-0.0254 0.334h-0.272c0.0418-0.099 0.0873-0.206 0.15-0.361zm3.84 0.018c0.0107 0.017 0.0372 0.249 0.0586 0.514 0.0083 0.106 0.0067 0.138 0.0117 0.219h-0.115c-0.017-0.107-0.0144-0.203 0-0.406 0.014-0.196 0.034-0.341 0.0449-0.326zm-9.14 0.016c0.0046-0.013 0.0127 0 0.0254 0.029h2e-3c0.0244 0.063 0.0235 0.1 0 0.166-0.023 0.066-0.0294 0.047-0.0312-0.082-9.45e-4 -0.065-6.89e-4 -0.102 0.0039-0.115zm37 0.01c0.0195-0.025 0.0084 0.123-0.0273 0.396-0.0219 0.158-0.0392 0.226-0.0586 0.314h-0.0195c0.0022-0.064-0.0062-0.073 0.0156-0.236 0.032-0.24 0.072-0.453 0.0898-0.475zm-33.9 0.037c0.0126-0.058 0.0516 0.113 0.111 0.482 0.0123 0.076 0.0053 0.129 0.0059 0.191h-0.0879c-0.0166-0.269-0.0421-0.614-0.0293-0.674zm19.2 0.01c0.018 0.026-0.0458 0.318-0.125 0.664-3.57e-4 8e-4 -0.0016 0-2e-3 0h-0.227c0.0644-0.13 0.155-0.319 0.223-0.461 0.0728-0.154 0.117-0.226 0.131-0.205zm-7.81 0.023c0.0174-0.057 0.063 0.018 0.123 0.27 0.0361 0.151 0.0342 0.227 0.0156 0.373h-0.0684l-0.0234-0.123c-0.0531-0.274-0.0642-0.463-0.0469-0.52zm-12.7 0c0.0091 0.051 0.0082 0.109 0 0.133-0.0073 0.023-0.0156-0.017-0.0156-0.09 4.3e-4 -0.081 0.0074-0.098 0.0156-0.043zm5.13 0c0.0137 0.012 0.0361 0.057 0.0703 0.139 0.0447 0.106 0.0808 0.258 0.0801 0.338 3.07e-4 0.032-0.0082 0.103-0.0117 0.158h-0.113c-0.0357-0.255-0.0579-0.514-0.0508-0.576 0.0061-0.048 0.0116-0.07 0.0254-0.059zm30.7 0.01c0.0034 0-8.12e-4 0.021-0.0078 0.066h2e-3c-0.0089 0.055-0.0348 0.159-0.0566 0.232l-0.041 0.133 0.0176-0.135c9e-3 -0.074 0.0341-0.179 0.0547-0.234 0.017-0.045 0.0278-0.066 0.0312-0.066zm-38.7 0.01c-0.0269 2e-4 -0.0533 0.173-0.0508 0.336 0.0015 0.093 0.0094 0.089 0.0391-0.023 0.0201-0.075 0.0353-0.176 0.0352-0.225-2.47e-4 -0.048-0.0105-0.087-0.0234-0.086zm24.4 0 0.0117 0.33c0.0121 0.098 8e-3 0.194 0.0098 0.291h-0.164zm-16.6 0.01c0.0067 0 0.0158 0.023 0.0332 0.08 0.0206 0.066 0.0403 0.174 0.041 0.24 9.47e-4 0.065-0.021 0.155-0.0488 0.195-0.0446 0.067-0.0512 0.055-0.0527-0.082-0.0017-0.087 0.0018-0.231 0.0098-0.318 0.0064-0.074 0.0109-0.11 0.0176-0.115zm25.5 0.01c0.0206-0.054 0.0222 0.01 0 0.166h2e-3c-0.0188 0.137-0.0383 0.252-0.0449 0.252-0.0224 0 0.0118-0.335 0.043-0.416zm-14.7 0.047 0.0449 0.195c-0.0136 0.153-0.0174 0.182-0.0332 0.361-1.03e-4 0 1.05e-4 0 0 0.01h-0.135c0.0402-0.177 0.0839-0.364 0.123-0.562zm16.1 0.01c0.0015 0.013-0.0086 0.061-0.0293 0.152h2e-3c-0.0575 0.254-0.0645 0.265-0.0664 0.123-0.0013-0.069 0.0217-0.16 0.0547-0.221 0.0255-0.047 0.0376-0.068 0.0391-0.055zm-18.1 0c0.0052 0.01 0.011 0.025 0.0156 0.055 0.0258 0.157 0.0222 0.313 0.0059 0.494h-0.123c0.0098-0.07-7.41e-4 -0.089 0.0156-0.184 0.0492-0.285 0.0705-0.383 0.0859-0.365zm0.518 0.031c0.0073-0.043 0.0259 0.07 0.0508 0.361 0.0083 0.097-6.18e-4 0.086 0.0039 0.156h-0.043c-0.0142-0.277-0.0184-0.479-0.0117-0.518zm4.27 0.01c0.0075-0.017 0.0136 0.012 0.0234 0.074 0.0107 0.074 0.0189 0.158 0.0156 0.18-0.0033 0.025-0.029 0.082-0.0566 0.125-0.0432 0.07-0.0452 0.046-0.0156-0.178 0.0165-0.121 0.0257-0.184 0.0332-0.201zm-5.35 0.016c-1.53e-4 -0.032 0.059 0.311 0.0977 0.494h-0.121c-0.0011-0.01-9.02e-4 -0.01-2e-3 -0.016-3.79e-4 0.01 3.7e-4 0.01 0 0.016h-0.123c0.0097-0.136 0.0181-0.315 0.0176-0.352-0.0038-0.252 0.0374-0.095 0.105 0.336 0.0116-0.202 0.0255-0.466 0.0254-0.478zm-10.8 0.012c0.0045 0.017 0.0087 0.054 0.0137 0.098 0.0154 0.134-0.0021 0.266-0.0371 0.385h-0.139c0.106-0.367 0.151-0.526 0.162-0.482zm22.8 0.01c0.0043 0.012 0.0039 0.039-2e-3 0.082-0.0051 0.038-0.0531 0.222-0.0977 0.394h-0.109c0.0158-0.057 0.0292-0.109 0.0625-0.199 0.0777-0.211 0.134-0.313 0.146-0.277zm-20.4 0.035c0.0064-6e-4 0.0138 0.124 0.0176 0.279 0.0012 0.077-0.0173 0.107-0.0215 0.162h-0.23l0.084-0.168c0.0766-0.151 0.144-0.273 0.15-0.273zm35.9 0.01c0.0054 4e-4 0.0073 0.245 0.0098 0.434h-0.16c0.0566-0.229 0.134-0.434 0.15-0.434zm-10.9 0.027c0.0085-0.016 0.0266 0.18 0.0371 0.406h-0.16c0.0409-0.138 0.0924-0.27 0.123-0.406zm-3.22 0c0.0425-0.033 0.0518 0.013 0.0762 0.102 0.024 0.086 0.0361 0.205 0.0293 0.264-0.0081 0.014-0.0115 0.023-0.0195 0.037h-0.379c0.0086-0.013 0.0102-0.016 0.0195-0.029 0.156-0.229 0.231-0.34 0.273-0.373zm-14.4 0c0.0151 0 0.0307 0.168 0.0449 0.4h-0.129c0.0276-0.138 0.0632-0.315 0.0664-0.342 0.0049-0.041 0.0117-0.06 0.0176-0.059zm-9.35 0c0.0146 0.03 0.0299 0.109 0.0469 0.238 0.0106 0.08 0.0094 0.107 0.0137 0.16h-0.0195c-0.0381-0.11-0.0946-0.294-0.084-0.344 0.0141-0.065 0.0284-0.084 0.043-0.055zm17.7 0.014c0.0146-0.01 0.0265 0.126 0.0156 0.268-5e-3 0.063-0.0088 0.078-0.0137 0.115h-0.0137c-0.0068-0.089-0.0126-0.262-0.0039-0.328 5e-3 -0.037 0.0107-0.055 0.0156-0.057zm12.9 0c0.0117 8e-4 -0.0176 0.218-0.0371 0.381h-0.154l0.0547-0.123c0.065-0.142 0.126-0.257 0.137-0.258zm-5.88 0.035c0.0154-0.04 0.0173 0.128 0.0137 0.346h-0.0859c0.018-0.07 0.0419-0.171 0.0469-0.207 0.0101-0.075 0.0185-0.121 0.0254-0.139zm6.63 0c0.0019 0.046-0.0077 0.12-0.0215 0.166-0.0134 0.046-0.0149 0.01-2e-3 -0.084 0.0121-0.093 0.023-0.129 0.0234-0.082zm6.69 0.012c0.0031 0.029-0.0037 0.181-0.0117 0.334h-0.0312c0.0025-0.022 8e-3 -0.035 0.0098-0.059 0.0168-0.232 0.0291-0.313 0.0332-0.275zm-38.5 0c0.0143 0 0.0246 0.03 0.0273 0.068 6.3e-4 0.038-9e-3 0.07-0.0234 0.07-0.0143 1e-3 -0.0246-0.028-0.0273-0.066-7.01e-4 -0.038 9e-3 -0.072 0.0234-0.072zm15 0c-0.0071 0.118-0.0093 0.223-0.0234 0.332h-0.0176c0.0032-0.035 0.0272-0.221 0.041-0.332zm-10.5 0c7e-3 -0.02 0.0449 0.053 0.082 0.164 0.0208 0.063 0.0276 0.113 0.0371 0.166h-0.156c0.0084-0.102 0.0129-0.197 0.0371-0.33zm1.26 0c0.0055 1e-4 0.0236 0.194 0.0391 0.33h-0.0586c-6.4e-5 -0.03-0.0134-0.07-0.0117-0.102 7e-3 -0.126 0.0204-0.228 0.0312-0.228zm28.4 0.01c2e-3 0.028-0.0175 0.173-0.043 0.322h-0.184c0.0145-0.023 0.0337-0.048 0.0469-0.07 0.0973-0.168 0.179-0.282 0.18-0.252zm-38.6 0c-0.0055 5e-4 -0.0159 0.048-0.0234 0.106-0.0071 0.058-0.0025 0.105 0.0117 0.104 0.0137-0.01 0.0243-0.046 0.0234-0.105-4.96e-4 -0.057-0.0057-0.104-0.0117-0.104zm12.2 0-0.0644 0.318h-0.0547zm11.4 0.01c0.0128-0.015 0.0142 0.107 0.0137 0.309h-0.041c0.0037-0.077-0.0047-0.202 0.0078-0.25 0.0083-0.032 0.0144-0.053 0.0195-0.059zm-13.6 0c0.0056-0.016 0.0201 0.053 0.0312 0.154 0.0076 0.071 0.0058 0.11 0.0059 0.15h-0.0098c-0.0063-0.027-0.0111-0.031-0.0176-0.09-0.0109-0.101-0.0158-0.197-0.0098-0.215zm6.08 0 0.0234 0.305h-0.0606zm-6.42 0.018c0.0113-0.022 0.0395 0.097 0.0742 0.287h-0.0293c-0.0212-0.096-0.0503-0.166-0.0508-0.211-6.02e-4 -0.043 0.0016-0.068 0.0059-0.076zm4.91 0 0.0703 0.287h-0.152c3.85e-4 0-4.25e-4 -0.01 0-0.012zm-2.19 0.01c0.0111 0.043 0.0166 0.181 0.0293 0.281h-0.104c0.0189-0.06 0.0686-0.302 0.0742-0.281zm-10.4 0c0.0184 8e-4 0.0434 0.1 0.0801 0.279h-0.107c0.0024-0.073-0.0075-0.221 0.0059-0.252 0.0076-0.018 0.0144-0.028 0.0215-0.027zm24.5 0 2e-3 0.277h-0.0742zm7.08 0c0.0077 0.016 0.0106 0.06 0.0117 0.139 5.84e-4 0.039-7e-3 0.085-0.0098 0.133h-0.0938c-0.0033-0.099 0.0067-0.173 0.0508-0.244 0.0207-0.033 0.0333-0.045 0.041-0.029zm7.88 0c0.0306-0.035 0.0643-0.01 0.102 0.121 0.0234 0.081 0.0318 0.087 0.0527 0.152h-0.238c0.0235-0.132 0.0519-0.237 0.084-0.273zm-14.9 0.012c0.0101 0.04 0.0069 0.111-0.0059 0.158-0.0132 0.051-0.0209 0.022-0.0176-0.07 0.0035-0.111 0.0107-0.139 0.0234-0.088zm-20.5 0c0.0108-0.016 0.0336 0.029 0.0742 0.131l0.0527 0.129h-0.123c-6.42e-4 -0.01-0.0013-0.01-2e-3 -0.016-0.0106-0.147-0.0128-0.228-2e-3 -0.244zm-3.08 0.01c0.0108 0.094 0.0319 0.162 0.0508 0.252h-0.127c0.0047-0.018 0.0126-0.068 0.0156-0.08 0.0238-0.093 0.0508-0.172 0.0606-0.172zm22.8 0.022c-0.0031 0.03-0.0111 0.144-0.0176 0.23h-0.043c0.0081-0.052 0.0085-0.119 0.0215-0.164 0.026-0.09 0.0454-0.122 0.0391-0.066zm-18.1 0c0.0031-0.01 0.0646 0.138 0.105 0.228h-0.0547c-0.0267-0.108-0.055-0.221-0.0508-0.228zm-5.62 0.016c0.0073-4e-4 0.0321 0.092 0.0566 0.205 9.67e-4 0 1e-3 0 2e-3 0.01h-0.0254c-7.12e-4 0-0.0012 0-2e-3 -0.01-0.0228-0.114-0.0374-0.206-0.0312-0.207zm13.8 0.01c0.0011 0.019-0.0168 0.154-0.0215 0.203h-0.0898c0.0091-0.021 8e-3 -0.033 0.0195-0.059 0.0591-0.131 0.0886-0.201 0.0918-0.144zm0.553 0.022c-0.0028 0.052-0.0023 0.111-2e-3 0.182h-0.041l0.0254-0.113c0.0086-0.037 0.0092-0.033 0.0176-0.068zm-9.59 0.01 0.0449 0.174h-0.109zm14.8 0.012c0.0136 0.01 0.0289 0.08 0.043 0.162h-0.0938c6.22e-4 0 0.0034-0.016 0.0039-0.019 0.0142-0.105 0.0301-0.153 0.0469-0.143zm-8.69 0.01 2e-3 0.156h-0.0469zm5.04 0.018 0.0117 0.057-0.0117 0.037zm14.1 0.01c0.0128 0 0.0165 0.038 0.0098 0.084-0.0015 0.01-0.012 0.033-0.0156 0.047h-0.0352c0.0155-0.044 0.0297-0.133 0.041-0.133zm-26.1 0.016c0.0071 0 0.0072 0.085 0.0117 0.117h-0.0469c0.0112-0.035 0.0273-0.119 0.0352-0.117zm-2.23 0 2e-3 0.115h-0.043zm29.4 0.01c0.0064-0.012 0.0135 0 0.0215 0.033 7e-3 0.03-0.0074 0.051-0.0098 0.074h-0.0332c8e-3 -0.059 0.0153-0.096 0.0215-0.107zm3.67 0-0.0078 0.107h-0.0332zm3.12 0-0.0039 0.104h-0.0195zm6.44 0c0.0043 3e-4 0.0088 0.071 0.0137 0.104h-0.0332c0.0054-0.022 0.0175-0.103 0.0195-0.104zm-41.8 0c0.0111-0.017 0.0294 0.061 0.0449 0.102h-0.0547c0.0044-0.024 4e-3 -0.093 0.0098-0.102zm34.6 0.014c-3.44e-4 0.01-0.018 0.058-0.0273 0.088h-0.0391c0.0089-0.016 0.0123-0.042 0.0215-0.053 0.0313-0.034 0.0456-0.052 0.0449-0.035zm-14.3 0.016c0.0092 0.011 0.0206 0.047 0.0312 0.072h-0.0664c-2.49e-4 -0.01-0.0018-0.018-2e-3 -0.027 0.0074-0.055 0.0202-0.065 0.0371-0.045zm-22.7 0c7.27e-4 0 0.0097 0.06 0.0117 0.07h-0.0332c0.0085-0.032 0.0192-0.08 0.0215-0.07zm18.9 0.012c0.0101-0.01 0.0069 0.032 0.0078 0.059h-0.0332c0.0082-0.016 0.0195-0.054 0.0254-0.059zm16.1 0.01c0.0029 0.01 0.0042 0.03 0.0039 0.053h-0.0547c0.0227-0.033 0.0458-0.068 0.0508-0.053zm-20.2 0c0.0015-1e-4 0.0074 0.042 0.0098 0.049h-0.0312c0.0069-0.014 0.0184-0.049 0.0215-0.049zm17.2 0c0.0022 1e-4 4.4e-4 0.038 2e-3 0.045h-0.0352c0.0077-0.01 0.0305-0.045 0.0332-0.045zm-16.7 0.033 0.0039 0.012h-0.0059c4.5e-5 -3e-4 2e-3 -0.012 2e-3 -0.012zm4.84 0c5.59e-4 6e-4 0.0013 0.01 2e-3 0.01h-0.0039c9.99e-4 1e-4 7.32e-4 -0.01 2e-3 -0.01zm-19.7 0c2e-5 7e-4 -8e-6 0 0 0h-2e-3c2.54e-4 0 0.0018-0.01 2e-3 0z"/>
  <g fill-rule="evenodd">
   <path d="m47.2 11 0.194-0.132c0.105 0.078 0.0321 0.214 0.0068 0.313-0.0257 0.109 0.161 0.225-0.0037 0.289-0.144 0.108 0.1 0.101 0.16 0.147 0.101 0.072 0.0441 0.256-0.0894 0.232-0.0733-0.047-0.277-0.088-0.203 0.061 0.0567 0.056 0.159 0.163 0.0515 0.226-0.0895 0.051 0.018 0.061 0.0559 0.113 0.0972 0.031 0.18 0.239 0.0317 0.196-0.0484-0.028-0.196-0.024-0.0613 0.062 0.101 0.12-0.105 0.085-0.163 0.024-0.0789-0.092-0.196 0.029-0.0546 0.128 0.0637 0.044 0.207 0.034 0.112 0.138-0.115 0-0.227-0.038-0.34-0.055-0.0124 0-0.104-0.077-0.277-0.061-0.529 0.359-1.03 3.35-0.521 5.59 0.02 0.087-0.0172 0.049-0.0769 0.039-0.373-2.49-0.202-4.2 0.486-5.65 0.0041-0.175 0.0713-0.366 0.231-0.459 0.0566-0.189 0.125-0.398 0.0428-0.589-0.0069-0.124 0.138-0.149 0.214-0.213 0.091-0.073 0.0783-0.201 0.147-0.29 0.019-0.035 0.0388-0.07 0.0575-0.106z"/>
   <path d="m39.3 11-0.209-0.108c-0.0952 0.09-0.0058 0.217 0.0314 0.312 0.0387 0.105-0.132 0.242 0.039 0.286 0.156 0.09-0.0872 0.112-0.141 0.165-0.0915 0.084-0.0126 0.259 0.117 0.22 0.067-0.056 0.264-0.12 0.209 0.037-0.0494 0.062-0.138 0.18-0.0235 0.231 0.0951 0.04-0.0104 0.062-0.0418 0.118-0.0928 0.042-0.15 0.258-0.0075 0.198 0.0446-0.033 0.192-0.047 0.0685 0.055-0.0854 0.131 0.115 0.072 0.165 0.01 0.0671-0.101 0.198 0.01 0.0699 0.121-0.0578 0.051-0.202 0.058-0.0946 0.15 0.114-0.01 0.221-0.064 0.331-0.095 0.012 0 0.094-0.089 0.268-0.093 0.569 0.294 1.43 3.2 1.2 5.49-0.0092 0.089 0.0231 0.047 0.0812 0.03 0.0675-2.51-0.311-4.19-1.17-5.55-0.0254-0.173-0.115-0.355-0.286-0.429-0.0791-0.181-0.172-0.38-0.114-0.58-0.0083-0.124-0.156-0.132-0.239-0.187-0.0992-0.062-0.102-0.19-0.181-0.271-0.0232-0.033-0.0471-0.065-0.07-0.098z"/>
   <path d="m55.4 11-0.209-0.108c-0.0952 0.09-0.0058 0.217 0.0314 0.312 0.0387 0.105-0.132 0.242 0.039 0.286 0.156 0.09-0.0872 0.112-0.141 0.165-0.0915 0.084-0.0126 0.259 0.117 0.22 0.067-0.056 0.264-0.12 0.209 0.037-0.0494 0.062-0.138 0.18-0.0236 0.231 0.0951 0.04-0.0104 0.062-0.0418 0.118-0.0928 0.042-0.15 0.258-0.0076 0.198 0.0446-0.033 0.192-0.047 0.0685 0.055-0.0854 0.131 0.115 0.072 0.165 0.01 0.0671-0.101 0.198 0.01 0.0699 0.121-0.0578 0.051-0.202 0.058-0.0946 0.15 0.114-0.01 0.221-0.064 0.331-0.095 0.0119 0 0.094-0.088 0.268-0.093 0.569 0.294 1.19 1.93 0.954 4.22-0.0092 0.089 0.023 0.047 0.0812 0.03 0.0675-2.51-0.0671-2.92-0.927-4.28-0.0253-0.173-0.115-0.355-0.286-0.429-0.0791-0.181-0.172-0.38-0.114-0.58-0.0083-0.124-0.156-0.132-0.239-0.187-0.0992-0.062-0.102-0.19-0.181-0.271-0.0232-0.033-0.0471-0.065-0.07-0.098z"/>
   <path d="m73.7 11 0.209-0.108c0.0952 0.09 0.0058 0.217-0.0314 0.312-0.0387 0.105 0.132 0.243-0.039 0.286-0.156 0.09 0.0872 0.112 0.141 0.165 0.0915 0.084 0.0126 0.259-0.117 0.22-0.067-0.055-0.264-0.12-0.209 0.037 0.0494 0.062 0.138 0.18 0.0236 0.231-0.0951 0.04 0.0104 0.062 0.0418 0.118 0.0928 0.042 0.15 0.258 0.0076 0.198-0.0446-0.033-0.192-0.047-0.0685 0.055 0.0854 0.131-0.115 0.072-0.165 0.01-0.0671-0.101-0.198 0.01-0.0699 0.121 0.0578 0.051 0.202 0.058 0.0946 0.15-0.114-0.01-0.221-0.064-0.331-0.095-0.0119 0-0.094-0.089-0.268-0.093-0.569 0.294-1.43 3.2-1.2 5.49 0.0092 0.089-0.023 0.047-0.0812 0.03-0.0675-2.51 0.311-4.19 1.17-5.55 0.0253-0.173 0.115-0.355 0.286-0.429 0.0791-0.181 0.172-0.38 0.114-0.58 0.0083-0.124 0.156-0.132 0.239-0.187 0.0992-0.062 0.102-0.19 0.181-0.271 0.0232-0.033 0.0471-0.065 0.07-0.098z"/>
   <path d="m35.8 11s-0.0306 0.279-0.0703 0.745c-0.17-9e-4 -0.212 0.127-0.223 0.297l-0.0935 1.24c-0.0102 0.168 0.0114 0.313 0.177 0.34-0.0757 1.72-0.0886 4.23 0.167 6.17h0.0989c-0.276-1.13-0.25-4.07-0.18-6.17 0.155-0.014 0.181-0.137 0.19-0.296l0.0935-1.24c0.0106-0.173-0.0192-0.322-0.192-0.342 0.0184-0.378 0.033-0.676 0.033-0.747z"/>
   <path d="m50.9 11s-0.0306 0.279-0.0703 0.745c-0.17-9e-4 -0.212 0.127-0.223 0.297l-0.0935 1.24c-0.0102 0.167 0.0114 0.313 0.177 0.34-0.0757 1.72-0.0886 4.23 0.167 6.17h0.0989c-0.276-1.13-0.25-4.07-0.18-6.17 0.155-0.015 0.181-0.137 0.19-0.296l0.0935-1.24c0.0105-0.173-0.0191-0.322-0.192-0.342 0.0184-0.378 0.033-0.676 0.033-0.747z"/>
   <path d="m60.8 11s0.0979 0.264 0.25 0.706c0.165-0.041 0.237 0.074 0.289 0.236l0.393 1.18c0.0508 0.16 0.0654 0.307-0.0886 0.372 0.494 1.65 0.876 3.03 1.1 4.97l-0.096 0.023c-0.0083-1.16-0.507-2.95-1.09-4.97-0.154 0.023-0.209-0.09-0.257-0.242l-0.393-1.18c-0.0524-0.165-0.0601-0.317 0.103-0.377-0.11-0.363-0.197-0.648-0.214-0.717z"/>
   <path d="m79.2 11s-0.0811 0.219-0.207 0.585c-0.137-0.034-0.197 0.061-0.239 0.196l-0.326 0.977c-0.0421 0.133-0.0542 0.254 0.0734 0.308-0.409 1.37-0.927 3.39-1.11 5l0.0795 0.019c0.0069-0.965 0.622-3.32 1.1-5 0.128 0.019 0.173-0.075 0.213-0.201l0.326-0.977c0.0434-0.137 0.0498-0.263-0.0855-0.313 0.0913-0.301 0.163-0.537 0.178-0.594z"/>
  </g>
 </g>
 <path d="m0 14.5s9.37 1.17 12.2 0.049c2.87-1.13 3.62-2.92 5.6-2.92h7.24c1.83 0 7.57 4.48 16.3 5.73s17.6 1.81 31.8 0.721c14.2-1.09 17.5-3.06 26.9-3.06v5h-100z" fill="#c7aa7e" fill-rule="evenodd"/>
 <rect x="-1.96e-8" width="100" height="18" fill-opacity="0" stroke-width="0"/>
</svg>
