<?xml version="1.0" encoding="UTF-8"?>
<!-- Created with Inkscape (http://www.inkscape.org/) -->
<svg width="50" height="25" version="1.1" xmlns="http://www.w3.org/2000/svg" xmlns:cc="http://creativecommons.org/ns#" xmlns:dc="http://purl.org/dc/elements/1.1/" xmlns:rdf="http://www.w3.org/1999/02/22-rdf-syntax-ns#">
 <metadata>
  <rdf:RDF>
   <cc:Work rdf:about="">
    <dc:format>image/svg+xml</dc:format>
    <dc:type rdf:resource="http://purl.org/dc/dcmitype/StillImage"/>
    <dc:title/>
   </cc:Work>
  </rdf:RDF>
 </metadata>
 <g fill-rule="evenodd">
  <g>
   <path d="m7.3 8c0.273-2e-3 0.593 0.204 0.807 0.428 0.312 0.325 0.719 0.473 1 0.867s0.404 0.229 0.819 0.638c0.415 0.409-0.168 1.31 0.142 1.67 0.31 0.356 0.429 0.426-0.0702 0.453-0.499 0.0274 0.102 0.565-0.243 1.05-0.346 0.482 0.598 0.276 0.576 0.721-0.0218 0.444 0.717 1.13 0.18 1.11-0.537-0.0228-0.558 0.317-0.31 0.601 0.248 0.284 0.524 0.0527 0.5 0.439-0.0237 0.386-0.572 1.11-1.01 0.892-0.443-0.218-0.634 0.27-0.179 0.399 0.455 0.128 0.0156 1.11-0.38 0.739-0.395-0.37-0.667 0.237-0.787-0.425s-0.514 0.567-0.868 0.2-0.446-1.1-0.65-0.603c-0.204 0.497-0.302 0.317-0.607 0.726-0.217 0.292-0.0968-0.477-0.163-0.877-0.0598 0.119-0.111 0.241-0.127 0.337-0.0439 0.266-0.0263 0.552-0.0263 0.552s0.0526 0.365 0.0263 0.542c-0.0263 0.178-0.0263 0.828-0.0263 0.828s0.0965 0.562 0.0176 1.04c-0.079 0.473 0.0702 1.44 0.0702 1.44l-0.912-0.0493s0.191-0.607 0.213-1.43c0.0219-0.822 0.0543-1.24 0.0782-1.67s0.0922-0.753 0.0468-1.12c-0.0205-0.166-0.0232-0.308-0.0481-0.453-0.316 0.31-0.441 0.835-0.756 1.22-0.413 0.501-0.783-0.132-1.25 0.125-0.469 0.258-1.4-0.459-0.911-0.864 0.489-0.405 0.283-0.7-0.16-0.738-0.443-0.0389-0.151-0.373-0.115-0.69 0.0354-0.317-0.666-0.0492-1.02-0.487-0.358-0.438-0.434-0.622-0.617-0.537-0.183 0.0854-0.618-0.551-0.357-0.659s0.628-0.297 0.21-0.569 0.785-0.238 0.43-0.515c-0.356-0.277 0.54-0.472 0.282-0.881-0.258-0.409 0.413-0.508 0.217-0.755s-0.194-0.0754-0.0181-0.44c0.176-0.365 0.245-1.32 0.914-1.34 0.667-0.0152 0.229-1.17 0.796-1.1 0.566 0.0692 1.68 0.617 1.59-0.115-0.0946-0.732 0.204-0.746 0.517-0.416s0.953-0.618 1.01-0.0203 0.56 0.234 0.85-0.0992c0.0907-0.104 0.206-0.148 0.33-0.148z" fill="#c6e4df" fill-opacity=".668"/>
   <path d="m39.7 10c0.234-1e-3 0.508 0.175 0.692 0.367 0.267 0.279 0.617 0.405 0.86 0.743s0.347 0.196 0.702 0.547-0.144 1.13 0.121 1.43c0.266 0.305 0.368 0.365-0.0602 0.389-0.428 0.0236 0.0881 0.485-0.209 0.898-0.296 0.413 0.512 0.237 0.494 0.618-0.0187 0.381 0.615 0.968 0.154 0.948-0.461-0.0195-0.479 0.272-0.265 0.515s0.45 0.0452 0.429 0.376c-0.0204 0.331-0.491 0.952-0.871 0.765s-0.543 0.232-0.153 0.342 0.0134 0.951-0.326 0.633c-0.34-0.318-0.572 0.203-0.675-0.364s-0.441 0.486-0.744 0.171c-0.303-0.314-0.382-0.943-0.557-0.517s-0.258 0.271-0.52 0.623c-0.187 0.25-0.083-0.409-0.14-0.752-0.0512 0.102-0.0956 0.207-0.109 0.289-0.0376 0.228-0.0225 0.473-0.0225 0.473s0.0452 0.313 0.0225 0.465c-0.0225 0.152-0.0225 0.71-0.0225 0.71s0.0827 0.482 0.0151 0.888c-0.0677 0.406 0.0602 1.23 0.0602 1.23l-0.781-0.0423s0.163-0.521 0.182-1.23c0.0188-0.705 0.0466-1.07 0.0671-1.44 0.0205-0.369 0.0791-0.645 0.0401-0.961-0.0176-0.142-0.0199-0.264-0.0413-0.389-0.271 0.266-0.378 0.716-0.647 1.04-0.355 0.43-0.672-0.114-1.07 0.107-0.402 0.221-1.2-0.394-0.78-0.741 0.419-0.347 0.242-0.6-0.137-0.633-0.379-0.0334-0.129-0.32-0.0988-0.592s-0.571-0.0421-0.879-0.418c-0.307-0.376-0.371-0.533-0.528-0.46-0.157 0.0732-0.529-0.472-0.307-0.565 0.222-0.0928 0.538-0.254 0.18-0.488-0.358-0.233 0.673-0.204 0.368-0.441s0.464-0.405 0.241-0.755c-0.221-0.351 0.355-0.435 0.187-0.647s-0.166-0.0647-0.0155-0.377c0.151-0.313 0.211-1.14 0.782-1.15s0.197-0.999 0.682-0.94c0.486 0.0593 1.44 0.529 1.36-0.0989s0.175-0.64 0.443-0.357c0.269 0.283 0.817-0.53 0.871-0.0174 0.0538 0.512 0.48 0.201 0.729-0.085 0.0778-0.0893 0.176-0.127 0.282-0.127z" fill="#c8dfdb"/>
   <path d="m25.8 4c0.354-3e-3 0.767 0.264 1.04 0.553 0.403 0.421 0.929 0.611 1.3 1.12s0.523 0.296 1.06 0.825-0.217 1.7 0.184 2.16 0.555 0.551-0.0908 0.586c-0.645 0.0354 0.133 0.731-0.314 1.35-0.447 0.623 0.773 0.358 0.745 0.932-0.0282 0.574 0.927 1.46 0.232 1.43-0.695-0.0295-0.722 0.41-0.4 0.777 0.322 0.366 0.678 0.0682 0.647 0.567-0.0307 0.499-0.74 1.44-1.31 1.15-0.573-0.283-0.819 0.35-0.231 0.516s0.0202 1.43-0.492 0.955c-0.511-0.479-0.864 0.306-1.02-0.55-0.155-0.856-0.665 0.733-1.12 0.259s-0.577-1.42-0.841-0.78c-0.264 0.642-0.39 0.409-0.784 0.939-0.281 0.378-0.125-0.617-0.211-1.13-0.0773 0.153-0.144 0.312-0.165 0.435-0.0568 0.344-0.0341 0.714-0.0341 0.714s0.068 0.472 0.0341 0.701c-0.0341 0.23-0.0341 1.07-0.0341 1.07s0.125 0.727 0.0227 1.34c-0.102 0.612 0.0908 1.86 0.0908 1.86l-1.18-0.0638s0.246-0.786 0.274-1.85c0.0284-1.06 0.0702-1.61 0.101-2.17 0.031-0.557 0.119-0.973 0.0605-1.45-0.0264-0.214-0.0301-0.398-0.0622-0.586-0.409 0.401-0.57 1.08-0.977 1.57-0.534 0.648-1.01-0.171-1.62 0.162s-1.81-0.594-1.18-1.12c0.633-0.523 0.365-0.905-0.208-0.955-0.573-0.0503-0.195-0.482-0.149-0.893 0.0457-0.41-0.862-0.0636-1.32-0.63-0.464-0.567-0.561-0.804-0.797-0.694s-0.798-0.712-0.463-0.852c0.337-0.14 0.812-0.384 0.271-0.736-0.54-0.352 1.01-0.308 0.556-0.666-0.461-0.358 0.699-0.611 0.364-1.14s0.534-0.657 0.281-0.976-0.25-0.0975-0.0233-0.569c0.227-0.472 0.318-1.71 1.18-1.73 0.863-0.0196 0.297-1.51 1.03-1.42 0.733 0.0895 2.17 0.798 2.05-0.149-0.122-0.947 0.263-0.965 0.668-0.538s1.23-0.799 1.31-0.0263c0.0813 0.773 0.724 0.302 1.1-0.128 0.117-0.135 0.265-0.191 0.426-0.192z" fill="#c6e4df" fill-opacity=".668"/>
  </g>
  <path d="m46.2 6c0.296-1e-3 0.642 0.231 0.874 0.484 0.337 0.368 0.779 0.535 1.08 0.981 0.307 0.446 0.438 0.259 0.886 0.722s-0.182 1.49 0.153 1.89 0.464 0.482-0.076 0.513c-0.541 0.031 0.111 0.639-0.263 1.18-0.374 0.545 0.647 0.313 0.624 0.815-0.0237 0.502 0.776 1.28 0.194 1.25-0.582-0.0258-0.605 0.359-0.335 0.679 0.269 0.32 0.568 0.0596 0.542 0.496-0.0258 0.437-0.62 1.26-1.1 1.01-0.48-0.247-0.686 0.306-0.194 0.451 0.492 0.145 0.0169 1.25-0.412 0.836-0.429-0.419-0.723 0.268-0.853-0.481-0.13-0.748-0.557 0.641-0.94 0.226s-0.483-1.24-0.704-0.682-0.326 0.358-0.656 0.822c-0.236 0.33-0.104-0.539-0.176-0.991-0.0647 0.134-0.12 0.273-0.138 0.381-0.0474 0.301-0.0285 0.625-0.0285 0.625s0.057 0.413 0.0285 0.613c-0.0285 0.201-0.0285 0.937-0.0285 0.937s0.104 0.636 0.019 1.17c-0.0855 0.535 0.076 1.63 0.076 1.63l-0.987-0.0558s0.206-0.687 0.23-1.62c0.0237-0.929 0.0589-1.41 0.0847-1.89 0.026-0.487 0.0994-0.851 0.0505-1.27-0.0222-0.187-0.0252-0.348-0.0521-0.513-0.342 0.35-0.477 0.944-0.817 1.38-0.447 0.567-0.848-0.15-1.35 0.142-0.507 0.291-1.51-0.519-0.986-0.977 0.529-0.458 0.306-0.791-0.173-0.835s-0.163-0.422-0.124-0.781c0.0383-0.359-0.722-0.0557-1.11-0.551-0.388-0.496-0.469-0.704-0.667-0.607-0.198 0.0966-0.668-0.623-0.387-0.745 0.281-0.123 0.679-0.336 0.227-0.643-0.452-0.308 0.85-0.269 0.465-0.582-0.386-0.313 0.585-0.534 0.305-0.997-0.28-0.462 0.447-0.574 0.236-0.854-0.212-0.279-0.21-0.0852-0.0196-0.498 0.19-0.412 0.266-1.5 0.988-1.52 0.723-0.0172 0.249-1.32 0.862-1.24 0.614 0.0782 1.82 0.698 1.72-0.13-0.102-0.828 0.221-0.844 0.56-0.471s1.03-0.699 1.1-0.023c0.068 0.676 0.606 0.265 0.92-0.112 0.0982-0.118 0.222-0.167 0.357-0.168z" fill="#a9dad1"/>
  <path d="m32.8 5c0.325-2e-3 0.705 0.242 0.959 0.508 0.37 0.387 0.855 0.562 1.19 1.03 0.338 0.469 0.481 0.272 0.973 0.759s-0.2 1.56 0.169 1.98c0.368 0.423 0.51 0.506-0.0834 0.539-0.594 0.0327 0.122 0.672-0.289 1.24-0.411 0.573 0.711 0.329 0.684 0.857-0.0259 0.528 0.852 1.34 0.213 1.31-0.638-0.0271-0.663 0.377-0.368 0.714 0.296 0.337 0.624 0.0627 0.595 0.521-0.0282 0.459-0.68 1.32-1.21 1.06-0.527-0.26-0.754 0.322-0.213 0.474 0.541 0.153 0.0186 1.32-0.452 0.878-0.471-0.44-0.793 0.281-0.936-0.505-0.143-0.787-0.612 0.674-1.03 0.238-0.42-0.436-0.53-1.31-0.773-0.717-0.242 0.59-0.358 0.376-0.721 0.863-0.258 0.347-0.115-0.567-0.194-1.04-0.0711 0.141-0.133 0.287-0.151 0.4-0.0521 0.317-0.0313 0.656-0.0313 0.656s0.0626 0.434 0.0313 0.645-0.0313 0.985-0.0313 0.985 0.115 0.668 0.0208 1.23c-0.0939 0.563 0.0835 1.71 0.0835 1.71l-1.08-0.0586s0.226-0.722 0.252-1.7c0.026-0.977 0.0645-1.48 0.093-1.99 0.0285-0.512 0.109-0.895 0.0557-1.33-0.0243-0.197-0.0276-0.366-0.0571-0.539-0.375 0.368-0.524 0.992-0.898 1.45-0.491 0.595-0.931-0.157-1.49 0.149s-1.67-0.546-1.08-1.03c0.581-0.481 0.336-0.832-0.191-0.878-0.526-0.0463-0.179-0.444-0.137-0.82 0.042-0.377-0.792-0.0585-1.22-0.579-0.426-0.521-0.515-0.739-0.733-0.638-0.217 0.102-0.734-0.655-0.425-0.783 0.309-0.129 0.746-0.353 0.249-0.676s0.934-0.283 0.51-0.612c-0.423-0.329 0.642-0.561 0.335-1.05-0.308-0.486 0.491-0.604 0.258-0.897s-0.23-0.0896-0.0214-0.523c0.209-0.433 0.292-1.57 1.08-1.59 0.793-0.018 0.273-1.39 0.946-1.3 0.673 0.0823 2 0.734 1.89-0.137-0.112-0.871 0.242-0.887 0.615-0.495s1.13-0.735 1.21-0.0241c0.0748 0.711 0.665 0.278 1.01-0.118 0.108-0.124 0.244-0.175 0.391-0.176z" fill="#a1ccc4"/>
 </g>
 <rect y="21" width="50" height="4" fill="#a9dad1"/>
 <path d="m12.5 20.6c0.0039-0.578-0.15-0.98 0.0304-2.43 0.18-1.45 0.917-1.61 0.881-2.35-0.0329-0.747-0.711-0.657-1.24-0.346-0.588 0.344-1.06 1.48-0.953 1.04-0.0819-1.01-0.758-1.02-0.969-0.312-0.326 0.822-1.98 1.34-1.56-0.0303 0.536-0.296 0.773-0.864 0.46-1.5 0.126-0.615-0.444-1.62-0.445-0.43-0.0582 1.29-1.11 1.65-1.71 2.27-0.66 0.123-0.618-0.811-0.00459-0.869 0.308-0.816-0.953-0.335-1.04 0.222-0.83 0.541-0.161-1.47 0.106-1.93-9.79e-4 -0.742 1.44-0.705 0.629-1.19-0.727-0.0811-1.67 1.21-2.11 0.0321-0.711-0.0113 0.161-1.05-0.475-1.3-0.0665-0.515 0.562-0.404 0.414-1.06 0.168-0.631 1.13-0.652 0.701-1.59 0.442-0.853 0.67-2.38 1.69-2.16 0.328 0.213 0.99 0.49 1.12 0.243 0.153-0.288-0.239-1.14-0.0567-1.35 0.183-0.214 0.912 0.00938 1.11-0.256 0.25-0.334 0.27-0.668 0.00814-1.2-0.0353-0.454-0.124-0.615 0.18-0.523 0.722-0.588 1.48-1.02 2.32-0.62 0.845-0.0641 1.69 0.126 2.51-0.16 0.773-0.162 1.08 1.19 1.95 1.04 0.572 0.506 0.273-0.594 0.933-1.02 0.312-0.201 0.211 0.166 0.588 0.657 0.421 0.546 1.31 0.975 1.55 1.64 0.217 1.63 1.81 0.467 2.32 1.71 0.194 0.816 0.541 1.58 1.25 1.44 0.603 0.832-0.912 1.93-0.118 2.86-0.245 0.885-1.19 1.43-1.15 2.37 0.137 0.37-0.99 0.896-0.147 1.15 0.349 0.806-0.778 0.567-0.789 1.36-0.521 0.322-0.825-1.73-1.41-0.34-0.577 0.726-1.57-1.29-2.02 0.21-1.55-1.58-2.06-0.662-2.64 0.314-0.582 0.98-1.07 1.35-1.2 2.37-0.128 1.02 0.593 3.4-0.624 2.79-0.187-0.158-0.113-0.171-0.109-0.747z" fill="#a9dad1" fill-rule="evenodd"/>
</svg>
