<?xml version="1.0" encoding="UTF-8"?>
<!-- Created with Inkscape (http://www.inkscape.org/) -->
<svg width="100" height="25" version="1.1" xmlns="http://www.w3.org/2000/svg" xmlns:cc="http://creativecommons.org/ns#" xmlns:dc="http://purl.org/dc/elements/1.1/" xmlns:rdf="http://www.w3.org/1999/02/22-rdf-syntax-ns#">
 <metadata>
  <rdf:RDF>
   <cc:Work rdf:about="">
    <dc:format>image/svg+xml</dc:format>
    <dc:type rdf:resource="http://purl.org/dc/dcmitype/StillImage"/>
    <dc:title/>
   </cc:Work>
  </rdf:RDF>
 </metadata>
 <g fill-rule="evenodd">
  <path d="m95.3 8c0.274-2e-3 0.596 0.204 0.811 0.428 0.313 0.325 0.723 0.473 1.01 0.867s0.406 0.229 0.823 0.638-0.169 1.31 0.143 1.67c0.311 0.356 0.431 0.426-0.0706 0.453-0.502 0.0274 0.103 0.565-0.245 1.05-0.347 0.482 0.601 0.276 0.579 0.721-0.022 0.444 0.721 1.13 0.181 1.11-0.54-0.0228-0.561 0.317-0.311 0.601s0.527 0.0527 0.503 0.439c-0.0238 0.386-0.575 1.11-1.02 0.892-0.445-0.218-0.637 0.27-0.18 0.399 0.457 0.128 0.0157 1.11-0.382 0.739-0.397-0.37-0.671 0.237-0.791-0.425s-0.517 0.567-0.872 0.2-0.448-1.1-0.654-0.603c-0.205 0.497-0.303 0.317-0.61 0.726-0.219 0.292-0.0973-0.477-0.164-0.877-0.0601 0.119-0.112 0.241-0.128 0.337-0.0441 0.266-0.0264 0.552-0.0264 0.552s0.0529 0.365 0.0264 0.542c-0.0264 0.178-0.0264 0.828-0.0264 0.828s0.097 0.562 0.0177 1.04c-0.0794 0.473 0.0706 1.44 0.0706 1.44l-0.916-0.0493s0.192-0.607 0.214-1.43c0.022-0.822 0.0546-1.24 0.0786-1.67s0.0927-0.753 0.047-1.12c-0.0206-0.166-0.0234-0.308-0.0483-0.453-0.317 0.31-0.443 0.835-0.759 1.22-0.415 0.501-0.787-0.132-1.26 0.125-0.471 0.258-1.41-0.459-0.915-0.864 0.491-0.405 0.284-0.7-0.161-0.738-0.445-0.0389-0.152-0.373-0.116-0.69 0.0355-0.317-0.67-0.0492-1.03-0.487-0.36-0.438-0.436-0.622-0.62-0.537-0.184 0.0854-0.621-0.551-0.359-0.659s0.631-0.297 0.211-0.569 0.789-0.238 0.432-0.515 0.543-0.472 0.283-0.881 0.415-0.508 0.219-0.755-0.195-0.0754-0.0182-0.44c0.177-0.365 0.247-1.32 0.918-1.34 0.671-0.0152 0.231-1.17 0.8-1.1 0.569 0.0692 1.69 0.617 1.6-0.115-0.0951-0.732 0.205-0.746 0.52-0.416s0.958-0.618 1.02-0.0203 0.563 0.234 0.854-0.0992c0.0911-0.104 0.207-0.148 0.331-0.148z" fill="#c6e4df" fill-opacity=".668" stroke-width=".999"/>
  <path d="m17.5 6c0.274-2e-3 0.596 0.204 0.811 0.428 0.313 0.325 0.723 0.473 1.01 0.867s0.406 0.229 0.823 0.638c0.416 0.41-0.169 1.31 0.143 1.67 0.311 0.356 0.431 0.426-0.0706 0.453-0.502 0.0274 0.103 0.565-0.245 1.05-0.347 0.482 0.601 0.276 0.579 0.721-0.022 0.444 0.721 1.13 0.181 1.11-0.54-0.0228-0.561 0.317-0.311 0.601 0.25 0.283 0.527 0.0527 0.503 0.439-0.0238 0.386-0.575 1.11-1.02 0.892-0.445-0.219-0.637 0.27-0.18 0.399 0.457 0.128 0.0157 1.11-0.382 0.739-0.397-0.37-0.671 0.237-0.791-0.425s-0.517 0.567-0.872 0.2-0.448-1.1-0.654-0.603c-0.205 0.497-0.303 0.317-0.61 0.726-0.219 0.292-0.0973-0.477-0.164-0.877-0.0601 0.119-0.112 0.241-0.128 0.337-0.0441 0.266-0.0264 0.552-0.0264 0.552s0.0529 0.365 0.0264 0.542c-0.0264 0.178-0.0264 0.828-0.0264 0.828s0.097 0.562 0.0177 1.04 0.0706 1.44 0.0706 1.44l-0.916-0.0493s0.192-0.607 0.214-1.43c0.022-0.822 0.0546-1.24 0.0786-1.67s0.0927-0.753 0.047-1.12c-0.0206-0.166-0.0234-0.308-0.0483-0.453-0.317 0.31-0.443 0.835-0.759 1.22-0.415 0.501-0.787-0.132-1.26 0.125-0.471 0.258-1.41-0.459-0.915-0.864s0.284-0.7-0.161-0.738c-0.445-0.0389-0.152-0.373-0.116-0.69 0.0355-0.317-0.67-0.0492-1.03-0.487-0.36-0.438-0.436-0.622-0.62-0.537-0.184 0.0854-0.621-0.551-0.359-0.659s0.631-0.297 0.211-0.569 0.789-0.238 0.432-0.515 0.543-0.472 0.283-0.881c-0.26-0.409 0.415-0.508 0.219-0.755s-0.195-0.0754-0.0182-0.44c0.177-0.365 0.247-1.32 0.918-1.34 0.671-0.0152 0.231-1.17 0.8-1.1 0.569 0.0692 1.69 0.617 1.6-0.115-0.0951-0.732 0.205-0.746 0.52-0.416s0.958-0.618 1.02-0.0203c0.0632 0.598 0.563 0.234 0.854-0.0992 0.0911-0.104 0.207-0.148 0.331-0.148z" fill="#c6e4df" fill-opacity=".668" stroke-width=".999"/>
  <path d="m26.3 21c-0.0035-0.519 0.135-0.881-0.0273-2.18-0.162-1.3-0.826-1.44-0.794-2.11 0.0296-0.671 0.64-0.59 1.11-0.31 0.529 0.309 0.951 1.33 0.859 0.933 0.0738-0.904 0.682-0.914 0.872-0.28 0.294 0.738 1.78 1.2 1.4-0.0272-0.483-0.266-0.696-0.776-0.414-1.35-0.114-0.552 0.4-1.45 0.401-0.387 0.0524 1.16 0.998 1.48 1.54 2.04 0.594 0.11 0.557-0.728 0.0041-0.781-0.278-0.733 0.859-0.301 0.937 0.199 0.747 0.486 0.145-1.32-0.0951-1.73 8.82e-4 -0.666-1.3-0.633-0.566-1.07 0.654-0.0728 1.5 1.09 1.9 0.0288 0.64-0.0102-0.145-0.942 0.428-1.17 0.0599-0.462-0.506-0.363-0.373-0.952-0.151-0.566-1.02-0.585-0.631-1.43-0.398-0.766-0.603-2.14-1.52-1.94-0.296 0.191-0.891 0.44-1.01 0.218-0.138-0.258 0.215-1.02 0.051-1.21-0.165-0.192-0.821 0.00843-0.998-0.23-0.226-0.3-0.243-0.6-0.0073-1.08 0.0317-0.408 0.112-0.552-0.162-0.47-0.65-0.528-1.33-0.919-2.09-0.557-0.761-0.0576-1.52 0.113-2.26-0.144-0.696-0.146-0.975 1.07-1.75 0.933-0.515 0.455-0.246-0.533-0.84-0.919-0.281-0.18-0.19 0.149-0.529 0.59-0.379 0.49-1.18 0.876-1.39 1.48-0.196 1.46-1.63 0.42-2.09 1.53-0.174 0.733-0.487 1.42-1.13 1.29-0.543 0.747 0.821 1.73 0.106 2.57 0.22 0.795 1.07 1.28 1.03 2.13-0.123 0.332 0.891 0.804 0.133 1.03-0.315 0.724 0.701 0.509 0.71 1.22 0.469 0.289 0.743-1.55 1.27-0.305 0.52 0.652 1.42-1.16 1.82 0.189 1.4-1.42 1.85-0.595 2.38 0.282 0.524 0.881 0.965 1.21 1.08 2.13 0.116 0.914-0.534 3.06 0.562 2.51 0.168-0.142 0.102-0.153 0.0984-0.671z" fill="#a9dad1" stroke-width=".47"/>
  <g stroke-width=".999">
   <path d="m11.6 7c0.237-1e-3 0.514 0.176 0.7 0.369 0.269 0.281 0.623 0.408 0.869 0.748s0.35 0.197 0.71 0.55-0.146 1.13 0.123 1.44c0.268 0.307 0.372 0.367-0.0608 0.391-0.433 0.0237 0.089 0.487-0.211 0.903-0.299 0.416 0.518 0.238 0.499 0.621-0.0189 0.383 0.621 0.973 0.156 0.954-0.466-0.0196-0.484 0.274-0.268 0.518s0.454 0.0455 0.434 0.378c-0.0206 0.333-0.496 0.958-0.88 0.77s-0.549 0.233-0.155 0.344 0.0136 0.956-0.329 0.637c-0.342-0.319-0.579 0.204-0.683-0.366-0.104-0.571-0.446 0.489-0.752 0.172-0.306-0.316-0.386-0.948-0.564-0.52-0.177 0.428-0.261 0.273-0.526 0.626-0.189 0.252-0.0838-0.411-0.141-0.756-0.0518 0.102-0.0967 0.208-0.111 0.29-0.038 0.23-0.0228 0.476-0.0228 0.476s0.0456 0.315 0.0228 0.468c-0.0228 0.153-0.0228 0.714-0.0228 0.714s0.0837 0.485 0.0153 0.893 0.0609 1.24 0.0609 1.24l-0.79-0.0425s0.165-0.524 0.184-1.23c0.019-0.709 0.0471-1.07 0.0679-1.44 0.0208-0.371 0.0799-0.649 0.0406-0.967-0.0178-0.143-0.0202-0.265-0.0416-0.391-0.273 0.267-0.382 0.72-0.655 1.05-0.358 0.432-0.679-0.114-1.09 0.108-0.406 0.222-1.22-0.396-0.789-0.745s0.245-0.603-0.139-0.637c-0.384-0.0336-0.131-0.322-0.0998-0.595 0.0306-0.273-0.578-0.0424-0.888-0.42-0.31-0.378-0.376-0.536-0.534-0.463-0.159 0.0736-0.535-0.475-0.31-0.568 0.226-0.0934 0.544-0.256 0.182-0.491s0.681-0.205 0.372-0.444 0.468-0.407 0.245-0.76c-0.225-0.353 0.358-0.438 0.189-0.651s-0.168-0.065-0.0157-0.379c0.153-0.314 0.213-1.14 0.791-1.16 0.579-0.0131 0.2-1.01 0.69-0.945 0.491 0.0597 1.46 0.532 1.38-0.0995-0.082-0.632 0.177-0.643 0.448-0.359 0.271 0.285 0.826-0.533 0.88-0.0175 0.0545 0.515 0.485 0.202 0.737-0.0855 0.0785-0.0897 0.178-0.127 0.285-0.128z" fill="#c6e4df"/>
   <path d="m55.4 9c0.274-2e-3 0.596 0.204 0.811 0.428 0.313 0.325 0.723 0.473 1.01 0.867s0.406 0.229 0.823 0.638c0.416 0.41-0.169 1.31 0.143 1.67 0.311 0.356 0.431 0.426-0.0706 0.453-0.502 0.0274 0.103 0.565-0.245 1.05-0.347 0.482 0.601 0.276 0.579 0.721-0.022 0.444 0.721 1.13 0.181 1.11-0.54-0.0228-0.561 0.317-0.311 0.601 0.25 0.283 0.527 0.0527 0.503 0.439-0.0238 0.386-0.575 1.11-1.02 0.892-0.445-0.219-0.637 0.27-0.18 0.399 0.457 0.128 0.0157 1.11-0.382 0.739-0.397-0.37-0.671 0.237-0.791-0.425s-0.517 0.567-0.872 0.2-0.448-1.1-0.654-0.603c-0.205 0.497-0.303 0.317-0.61 0.726-0.219 0.292-0.0973-0.477-0.164-0.877-0.0601 0.119-0.112 0.241-0.128 0.337-0.0441 0.266-0.0264 0.552-0.0264 0.552s0.0529 0.365 0.0264 0.542c-0.0264 0.178-0.0264 0.828-0.0264 0.828s0.097 0.562 0.0177 1.04 0.0706 1.44 0.0706 1.44l-0.916-0.0493s0.192-0.607 0.214-1.43c0.022-0.822 0.0546-1.24 0.0786-1.67s0.0927-0.753 0.047-1.12c-0.0206-0.166-0.0234-0.308-0.0483-0.453-0.317 0.31-0.443 0.835-0.759 1.22-0.415 0.501-0.787-0.132-1.26 0.125-0.471 0.258-1.41-0.459-0.915-0.864s0.284-0.7-0.161-0.738c-0.445-0.0389-0.152-0.373-0.116-0.69 0.0355-0.317-0.67-0.0492-1.03-0.487-0.36-0.438-0.436-0.622-0.62-0.537-0.184 0.0854-0.621-0.551-0.359-0.659s0.631-0.297 0.211-0.569 0.789-0.238 0.432-0.515 0.543-0.472 0.283-0.881c-0.26-0.409 0.415-0.508 0.219-0.755s-0.195-0.0754-0.0182-0.44c0.177-0.365 0.247-1.32 0.918-1.34 0.671-0.0152 0.231-1.17 0.8-1.1 0.569 0.0692 1.69 0.617 1.6-0.115-0.0951-0.732 0.205-0.746 0.52-0.416s0.958-0.618 1.02-0.0203c0.0632 0.598 0.563 0.234 0.854-0.0992 0.0911-0.104 0.207-0.148 0.331-0.148z" fill="#c6e4df" fill-opacity=".668"/>
   <path d="m66.7 12c0.199-1e-3 0.432 0.148 0.588 0.31 0.227 0.236 0.523 0.342 0.73 0.628s0.294 0.166 0.596 0.462c0.301 0.297-0.123 0.951 0.103 1.21 0.226 0.258 0.312 0.308-0.0511 0.328-0.363 0.0199 0.0748 0.409-0.177 0.758-0.251 0.349 0.435 0.2 0.419 0.522-0.0159 0.322 0.522 0.817 0.131 0.801-0.391-0.0165-0.406 0.23-0.226 0.435s0.381 0.0382 0.364 0.318c-0.0173 0.279-0.416 0.804-0.74 0.646-0.322-0.158-0.461 0.196-0.13 0.289s0.0114 0.803-0.276 0.535c-0.287-0.268-0.486 0.171-0.573-0.308-0.0868-0.479-0.374 0.41-0.632 0.145-0.257-0.266-0.324-0.796-0.473-0.436s-0.22 0.229-0.441 0.526c-0.159 0.212-0.0705-0.345-0.119-0.635-0.0435 0.0859-0.0812 0.175-0.0926 0.244-0.0319 0.193-0.0192 0.4-0.0192 0.4s0.0383 0.264 0.0192 0.393-0.0192 0.6-0.0192 0.6 0.0703 0.407 0.0128 0.75 0.0511 1.04 0.0511 1.04l-0.664-0.0357s0.139-0.44 0.155-1.03c0.016-0.595 0.0395-0.901 0.057-1.21 0.0174-0.312 0.0672-0.545 0.0341-0.812-0.0149-0.12-0.0169-0.223-0.035-0.328-0.23 0.224-0.321 0.604-0.55 0.881-0.3 0.363-0.57-0.0959-0.911 0.0907-0.341 0.187-1.02-0.332-0.663-0.625 0.356-0.293 0.206-0.507-0.117-0.535-0.322-0.0282-0.11-0.27-0.0838-0.5 0.0258-0.23-0.485-0.0356-0.746-0.353-0.26-0.317-0.315-0.45-0.448-0.389-0.133 0.0618-0.449-0.399-0.26-0.477 0.19-0.0784 0.457-0.215 0.153-0.412s0.572-0.172 0.312-0.373c-0.259-0.2 0.393-0.342 0.205-0.638s0.3-0.368 0.159-0.547c-0.143-0.179-0.141-0.0546-0.0132-0.319 0.128-0.264 0.179-0.959 0.665-0.97s0.168-0.844 0.58-0.794c0.412 0.0501 1.22 0.447 1.16-0.0835-0.0689-0.53 0.148-0.54 0.376-0.301s0.694-0.447 0.74-0.0147c0.0457 0.433 0.407 0.169 0.619-0.0718 0.066-0.0754 0.15-0.107 0.24-0.107z" fill="#c8dfdb"/>
   <path d="m71.1 13c0.199-1e-3 0.432 0.148 0.588 0.31 0.227 0.236 0.523 0.342 0.73 0.628s0.294 0.166 0.596 0.462c0.301 0.297-0.123 0.951 0.103 1.21 0.226 0.258 0.312 0.308-0.0511 0.328-0.363 0.0199 0.0748 0.409-0.177 0.758-0.251 0.349 0.435 0.2 0.419 0.522-0.0159 0.322 0.522 0.817 0.131 0.801-0.391-0.0165-0.406 0.23-0.226 0.435s0.381 0.0382 0.364 0.318c-0.0173 0.279-0.416 0.804-0.74 0.646-0.322-0.158-0.461 0.196-0.13 0.289 0.331 0.0929 0.0114 0.803-0.276 0.535-0.287-0.268-0.486 0.171-0.573-0.308-0.0874-0.479-0.374 0.41-0.632 0.145-0.257-0.266-0.324-0.796-0.473-0.436s-0.22 0.229-0.441 0.526c-0.159 0.212-0.0705-0.345-0.119-0.635-0.0435 0.0859-0.0812 0.175-0.0926 0.244-0.0319 0.193-0.0192 0.4-0.0192 0.4s0.0383 0.264 0.0192 0.393-0.0192 0.6-0.0192 0.6 0.0703 0.407 0.0128 0.75 0.0511 1.04 0.0511 1.04l-0.664-0.0357s0.139-0.44 0.155-1.03c0.016-0.595 0.0395-0.901 0.057-1.21 0.0174-0.312 0.0672-0.545 0.0341-0.812-0.0149-0.12-0.0169-0.223-0.035-0.328-0.23 0.224-0.321 0.604-0.55 0.881-0.3 0.363-0.57-0.0959-0.911 0.0906-0.341 0.187-1.02-0.332-0.663-0.625 0.356-0.293 0.206-0.507-0.117-0.535-0.322-0.0282-0.11-0.27-0.0838-0.5 0.0258-0.23-0.485-0.0356-0.746-0.353-0.26-0.317-0.315-0.45-0.448-0.389-0.133 0.0618-0.449-0.399-0.26-0.477 0.19-0.0784 0.457-0.215 0.153-0.412s0.572-0.172 0.312-0.373c-0.259-0.2 0.393-0.342 0.205-0.638s0.3-0.368 0.159-0.547c-0.143-0.179-0.141-0.0546-0.0132-0.319 0.128-0.264 0.179-0.959 0.665-0.97s0.168-0.844 0.58-0.794c0.412 0.0501 1.22 0.447 1.16-0.0835-0.0689-0.53 0.148-0.54 0.376-0.301s0.694-0.447 0.74-0.0147c0.0457 0.433 0.407 0.169 0.619-0.0718 0.066-0.0754 0.15-0.107 0.24-0.107z" fill="#ceeae5"/>
   <path d="m83.5 8c0.274-2e-3 0.596 0.204 0.811 0.428 0.313 0.325 0.723 0.473 1.01 0.867s0.406 0.229 0.823 0.638-0.169 1.31 0.143 1.67 0.431 0.426-0.0706 0.453c-0.502 0.0274 0.103 0.565-0.245 1.05-0.347 0.482 0.601 0.276 0.579 0.721-0.022 0.444 0.721 1.13 0.181 1.11-0.54-0.0228-0.561 0.317-0.311 0.601 0.25 0.283 0.527 0.0527 0.503 0.439-0.0238 0.386-0.575 1.11-1.02 0.892s-0.637 0.27-0.18 0.399c0.457 0.128 0.0157 1.11-0.382 0.739-0.397-0.37-0.671 0.237-0.791-0.425s-0.517 0.567-0.872 0.2-0.448-1.1-0.654-0.603c-0.205 0.497-0.303 0.317-0.61 0.726-0.219 0.292-0.0973-0.477-0.164-0.877-0.0601 0.119-0.112 0.241-0.128 0.337-0.0441 0.266-0.0264 0.552-0.0264 0.552s0.0529 0.365 0.0264 0.542c-0.0264 0.178-0.0264 0.828-0.0264 0.828s0.097 0.562 0.0177 1.04c-0.0794 0.473 0.0706 1.44 0.0706 1.44l-0.916-0.0493s0.192-0.607 0.214-1.43c0.0221-0.822 0.0546-1.24 0.0786-1.67s0.0927-0.753 0.047-1.12c-0.0206-0.166-0.0234-0.308-0.0483-0.453-0.317 0.31-0.443 0.835-0.759 1.22-0.415 0.501-0.787-0.132-1.26 0.125-0.471 0.258-1.41-0.459-0.915-0.864s0.284-0.7-0.161-0.738c-0.445-0.0389-0.152-0.373-0.116-0.69 0.0355-0.317-0.67-0.0492-1.03-0.487-0.36-0.438-0.436-0.622-0.62-0.537-0.184 0.0854-0.621-0.551-0.359-0.659s0.631-0.297 0.211-0.569 0.789-0.238 0.432-0.515 0.543-0.472 0.283-0.881c-0.26-0.409 0.415-0.508 0.219-0.755s-0.195-0.0754-0.0182-0.44c0.177-0.365 0.247-1.32 0.918-1.34 0.671-0.0152 0.231-1.17 0.8-1.1 0.569 0.0692 1.69 0.617 1.6-0.115s0.205-0.746 0.52-0.416 0.958-0.618 1.02-0.0203c0.0632 0.598 0.563 0.234 0.854-0.0992 0.0911-0.104 0.207-0.148 0.331-0.148z" fill="#c6e4df" fill-opacity=".668"/>
  </g>
 </g>
 <g fill="#a9dad1" fill-rule="evenodd">
  <path d="m76.3 9c0.274-1e-3 0.596 0.204 0.811 0.428 0.313 0.325 0.723 0.473 1.01 0.867s0.406 0.229 0.823 0.638c0.416 0.41-0.169 1.31 0.143 1.67s0.431 0.426-0.0706 0.453c-0.502 0.0274 0.103 0.565-0.245 1.05-0.347 0.482 0.601 0.276 0.579 0.721-0.022 0.444 0.721 1.13 0.181 1.11-0.54-0.0228-0.561 0.317-0.311 0.601 0.25 0.283 0.527 0.0527 0.503 0.439-0.0238 0.386-0.575 1.11-1.02 0.892-0.445-0.218-0.637 0.27-0.18 0.399 0.457 0.128 0.0157 1.11-0.382 0.739-0.397-0.37-0.671 0.237-0.791-0.425s-0.517 0.567-0.872 0.2-0.448-1.1-0.654-0.603c-0.205 0.497-0.303 0.317-0.61 0.726-0.219 0.292-0.0972-0.477-0.164-0.877-0.0601 0.119-0.112 0.241-0.128 0.337-0.0441 0.266-0.0264 0.552-0.0264 0.552s0.0529 0.365 0.0264 0.542c-0.0264 0.177-0.0264 0.828-0.0264 0.828s0.097 0.562 0.0177 1.04c-0.0794 0.473 0.0706 1.44 0.0706 1.44l-0.916-0.0493s0.192-0.607 0.214-1.43c0.022-0.822 0.0546-1.24 0.0786-1.67 0.0242-0.43 0.0927-0.753 0.047-1.12-0.0206-0.166-0.0234-0.308-0.0483-0.453-0.317 0.31-0.443 0.835-0.759 1.22-0.415 0.501-0.787-0.132-1.26 0.125-0.471 0.258-1.41-0.459-0.915-0.864s0.284-0.7-0.161-0.738c-0.445-0.0389-0.152-0.373-0.116-0.69 0.0355-0.317-0.67-0.0492-1.03-0.487-0.36-0.438-0.436-0.622-0.62-0.537-0.184 0.0854-0.621-0.551-0.359-0.659s0.631-0.297 0.211-0.569 0.789-0.238 0.432-0.515 0.543-0.472 0.283-0.881c-0.26-0.409 0.415-0.508 0.219-0.755s-0.195-0.0754-0.0182-0.44c0.177-0.365 0.247-1.32 0.918-1.34 0.671-0.0152 0.231-1.17 0.8-1.1 0.569 0.0692 1.69 0.617 1.6-0.115-0.0951-0.732 0.205-0.746 0.52-0.416s0.958-0.618 1.02-0.0203c0.0632 0.598 0.563 0.234 0.854-0.0992 0.0911-0.104 0.207-0.148 0.331-0.148z" stroke-width=".999"/>
  <path d="m92.4 21c-0.0035-0.519 0.135-0.881-0.0273-2.18-0.162-1.3-0.826-1.44-0.794-2.11 0.0296-0.671 0.64-0.59 1.11-0.31 0.529 0.309 0.951 1.33 0.859 0.933 0.0738-0.904 0.682-0.914 0.872-0.28 0.294 0.738 1.78 1.2 1.4-0.0272-0.483-0.266-0.696-0.776-0.414-1.35-0.114-0.552 0.4-1.45 0.401-0.387 0.0524 1.16 0.998 1.48 1.54 2.04 0.594 0.11 0.557-0.728 0.0041-0.781-0.278-0.733 0.859-0.301 0.937 0.199 0.747 0.486 0.145-1.32-0.0951-1.73 8.82e-4 -0.666-1.3-0.633-0.566-1.07 0.654-0.0728 1.5 1.09 1.9 0.0288 0.64-0.0102-0.145-0.942 0.428-1.17 0.0598-0.462-0.506-0.363-0.373-0.952-0.151-0.566-1.02-0.585-0.631-1.43-0.398-0.766-0.603-2.14-1.52-1.94-0.296 0.191-0.891 0.44-1.01 0.218-0.138-0.258 0.215-1.02 0.051-1.21-0.165-0.192-0.821 0.00843-0.998-0.23-0.226-0.3-0.243-0.6-0.0073-1.08 0.0317-0.408 0.112-0.552-0.162-0.47-0.65-0.528-1.33-0.919-2.09-0.557-0.761-0.0576-1.52 0.113-2.26-0.144-0.696-0.146-0.975 1.07-1.75 0.933-0.515 0.455-0.246-0.533-0.84-0.919-0.281-0.18-0.19 0.149-0.529 0.59-0.379 0.49-1.18 0.876-1.39 1.48-0.196 1.46-1.63 0.42-2.09 1.53-0.174 0.733-0.487 1.42-1.13 1.29-0.543 0.747 0.821 1.73 0.106 2.57 0.22 0.795 1.07 1.28 1.03 2.13-0.123 0.332 0.891 0.804 0.133 1.03-0.315 0.724 0.701 0.509 0.71 1.22 0.469 0.289 0.743-1.55 1.27-0.305 0.52 0.652 1.42-1.16 1.82 0.189 1.4-1.42 1.85-0.595 2.38 0.282 0.524 0.881 0.965 1.21 1.08 2.13 0.116 0.914-0.534 3.06 0.562 2.51 0.168-0.142 0.102-0.153 0.0984-0.671z" stroke-width=".47"/>
  <path d="m59.2 22c0.0028-0.443-0.116-0.75 0.0234-1.86 0.139-1.11 0.705-1.23 0.68-1.8-0.0252-0.572-0.545-0.503-0.952-0.265-0.451 0.264-0.811 1.14-0.732 0.797-0.0631-0.772-0.581-0.777-0.746-0.239-0.25 0.629-1.52 1.02-1.2-0.0232 0.411-0.227 0.594-0.661 0.353-1.15 0.0972-0.472-0.341-1.24-0.342-0.329-0.0446 0.986-0.853 1.26-1.31 1.74-0.508 0.0942-0.475-0.619-0.0037-0.664 0.237-0.625-0.734-0.257-0.8 0.17-0.64 0.415-0.124-1.13 0.0813-1.48-9.29e-4 -0.57 1.11-0.541 0.485-0.913-0.56-0.0623-1.29 0.924-1.63 0.0245-0.547-9e-3 0.124-0.804-0.365-0.996-0.0509-0.394 0.431-0.309 0.318-0.813 0.129-0.484 0.872-0.497 0.539-1.22 0.34-0.652 0.515-1.83 1.3-1.66 0.252 0.163 0.759 0.376 0.861 0.186 0.118-0.22-0.184-0.872-0.0435-1.03 0.141-0.164 0.701 7e-3 0.853-0.196 0.193-0.256 0.208-0.51 0.0063-0.922-0.027-0.348-0.0954-0.471 0.139-0.401 0.556-0.452 1.14-0.783 1.79-0.475 0.649-0.0493 1.3 0.0968 1.94-0.122 0.596-0.124 0.833 0.915 1.5 0.794 0.439 0.388 0.211-0.455 0.719-0.782 0.24-0.154 0.162 0.127 0.451 0.502 0.323 0.419 1.01 0.748 1.19 1.26 0.168 1.25 1.4 0.358 1.79 1.31 0.149 0.625 0.415 1.21 0.964 1.11 0.463 0.639-0.703 1.48-0.0907 2.19-0.189 0.676-0.917 1.09-0.882 1.82 0.105 0.284-0.759 0.687-0.114 0.881 0.268 0.615-0.599 0.436-0.606 1.05-0.402 0.247-0.636-1.32-1.09-0.26-0.444 0.558-1.21-0.986-1.56 0.161-1.2-1.21-1.59-0.509-2.03 0.241-0.447 0.75-0.822 1.04-0.921 1.82-0.0988 0.779 0.456 2.61-0.48 2.14-0.144-0.122-0.0869-0.131-0.0839-0.573z" stroke-width=".999"/>
 </g>
 <g fill-rule="evenodd" stroke-width=".999">
  <path d="m49.2 11c0.237-1e-3 0.514 0.176 0.7 0.369 0.269 0.281 0.623 0.408 0.869 0.748s0.35 0.197 0.71 0.55-0.146 1.13 0.123 1.44c0.268 0.307 0.372 0.367-0.0608 0.391-0.433 0.0237 0.089 0.487-0.211 0.903-0.299 0.416 0.518 0.238 0.499 0.621-0.0189 0.383 0.621 0.973 0.156 0.954-0.466-0.0196-0.484 0.274-0.268 0.518s0.454 0.0455 0.434 0.378c-0.0206 0.333-0.496 0.958-0.88 0.77s-0.549 0.233-0.155 0.344 0.0136 0.956-0.329 0.637c-0.342-0.319-0.579 0.204-0.683-0.366-0.104-0.571-0.446 0.489-0.752 0.172-0.306-0.316-0.386-0.948-0.564-0.52-0.177 0.428-0.261 0.273-0.526 0.626-0.189 0.252-0.0838-0.411-0.141-0.756-0.0518 0.102-0.0967 0.208-0.111 0.29-0.038 0.23-0.0228 0.476-0.0228 0.476s0.0456 0.315 0.0228 0.468c-0.0228 0.153-0.0228 0.714-0.0228 0.714s0.0837 0.485 0.0153 0.893 0.0609 1.24 0.0609 1.24l-0.79-0.0425s0.165-0.524 0.184-1.23c0.019-0.709 0.0471-1.07 0.0679-1.44 0.0208-0.37 0.0799-0.649 0.0406-0.967-0.0178-0.143-0.0202-0.265-0.0416-0.391-0.273 0.267-0.382 0.72-0.655 1.05-0.358 0.432-0.679-0.114-1.09 0.108-0.406 0.222-1.22-0.396-0.789-0.745 0.424-0.349 0.245-0.603-0.139-0.637s-0.131-0.322-0.0998-0.595c0.0306-0.273-0.578-0.0424-0.888-0.42-0.31-0.378-0.376-0.536-0.534-0.463-0.159 0.0736-0.535-0.475-0.31-0.568 0.226-0.0934 0.544-0.256 0.182-0.491s0.681-0.205 0.372-0.444 0.468-0.407 0.245-0.76c-0.225-0.353 0.358-0.438 0.189-0.651s-0.168-0.065-0.0157-0.379c0.153-0.314 0.213-1.14 0.791-1.16 0.579-0.0131 0.2-1.01 0.69-0.945 0.491 0.0597 1.46 0.532 1.38-0.0995-0.082-0.632 0.177-0.643 0.448-0.359 0.271 0.285 0.826-0.533 0.88-0.0175 0.0545 0.515 0.485 0.202 0.737-0.0855 0.0785-0.0897 0.178-0.127 0.285-0.128z" fill="#c6e4df"/>
  <path d="m45.9 10c0.252-1e-3 0.549 0.188 0.748 0.394 0.288 0.3 0.666 0.435 0.928 0.798s0.374 0.211 0.757 0.588-0.156 1.21 0.132 1.54c0.286 0.328 0.397 0.392-0.065 0.418-0.462 0.0253 0.095 0.52-0.225 0.964-0.32 0.444 0.553 0.255 0.533 0.664-0.0202 0.409 0.664 1.04 0.166 1.02-0.497-0.021-0.517 0.292-0.286 0.553 0.23 0.261 0.485 0.0486 0.463 0.404-0.022 0.355-0.53 1.02-0.94 0.822-0.41-0.201-0.587 0.249-0.166 0.367s0.0145 1.02-0.351 0.68c-0.366-0.341-0.618 0.218-0.729-0.391s-0.476 0.522-0.803 0.184-0.413-1.01-0.602-0.555c-0.189 0.457-0.279 0.291-0.561 0.669-0.202 0.269-0.0895-0.439-0.151-0.807-0.0554 0.109-0.103 0.222-0.118 0.31-0.0406 0.245-0.0244 0.509-0.0244 0.509s0.0487 0.336 0.0244 0.499-0.0244 0.763-0.0244 0.763 0.0894 0.518 0.0163 0.954 0.065 1.33 0.065 1.33l-0.844-0.0454s0.177-0.559 0.197-1.32c0.0203-0.757 0.0503-1.15 0.0724-1.54 0.0222-0.396 0.0854-0.693 0.0433-1.03-0.0189-0.153-0.0215-0.283-0.0445-0.417-0.292 0.285-0.408 0.769-0.7 1.12-0.382 0.461-0.726-0.122-1.16 0.115-0.434 0.237-1.3-0.423-0.843-0.795 0.453-0.373 0.261-0.644-0.149-0.68-0.41-0.0359-0.14-0.344-0.107-0.636 0.0327-0.292-0.617-0.0453-0.948-0.449-0.331-0.404-0.401-0.573-0.571-0.494-0.169 0.0786-0.572-0.507-0.331-0.607 0.241-0.0998 0.581-0.273 0.195-0.524s0.728-0.219 0.397-0.474c-0.329-0.255 0.5-0.435 0.26-0.811-0.24-0.377 0.382-0.468 0.202-0.695s-0.18-0.0694-0.0168-0.405c0.163-0.336 0.228-1.22 0.845-1.23 0.618-0.014 0.213-1.07 0.737-1.01 0.524 0.0637 1.56 0.568 1.47-0.106-0.0876-0.674 0.189-0.687 0.478-0.383 0.29 0.304 0.882-0.569 0.94-0.0187 0.0582 0.55 0.518 0.215 0.786-0.0913 0.0839-0.0958 0.19-0.136 0.305-0.137z" fill="#a9dad1"/>
  <path d="m5.85 2c0.34-2e-3 0.738 0.252 1.01 0.529 0.387 0.403 0.894 0.585 1.25 1.07 0.353 0.488 0.503 0.283 1.02 0.79s-0.209 1.63 0.177 2.07c0.385 0.441 0.534 0.527-0.0873 0.561-0.621 0.034 0.128 0.7-0.302 1.3-0.43 0.597 0.744 0.342 0.717 0.892-0.0271 0.55 0.892 1.4 0.224 1.37-0.669-0.0282-0.695 0.393-0.385 0.743 0.309 0.351 0.652 0.0653 0.623 0.543-0.0295 0.478-0.712 1.38-1.27 1.1-0.552-0.27-0.788 0.335-0.223 0.494s0.0195 1.37-0.473 0.915c-0.492-0.458-0.83 0.293-0.98-0.526s-0.64 0.702-1.08 0.248c-0.44-0.454-0.555-1.36-0.808-0.746-0.253 0.615-0.375 0.392-0.754 0.899-0.27 0.362-0.121-0.59-0.203-1.08-0.0745 0.147-0.139 0.299-0.159 0.417-0.0546 0.33-0.0327 0.684-0.0327 0.684s0.0656 0.452 0.0327 0.671c-0.0327 0.22-0.0327 1.03-0.0327 1.03s0.12 0.696 0.0219 1.28c-0.0983 0.586 0.0874 1.78 0.0874 1.78l-1.14-0.061s0.237-0.752 0.264-1.77c0.0272-1.02 0.0676-1.54 0.0974-2.07 0.0298-0.533 0.115-0.932 0.0583-1.39-0.0254-0.205-0.0289-0.381-0.0598-0.561-0.393 0.384-0.549 1.03-0.94 1.51-0.514 0.62-1.78-0.536-2.37-0.217 0-5.38-0.136-8.68-0.136-11.5 0.705 0.0857 2.58 0.764 2.47-0.143-0.118-0.907 0.253-0.924 0.644-0.515s1.19-0.765 1.27-0.0251c0.0782 0.74 0.697 0.29 1.06-0.123 0.113-0.129 0.255-0.183 0.41-0.184z" fill="#a9dad1"/>
  <path d="m39.1 10c0.237-1e-3 0.514 0.176 0.7 0.369 0.269 0.281 0.623 0.408 0.869 0.748s0.35 0.197 0.71 0.55-0.146 1.13 0.123 1.44c0.268 0.307 0.372 0.367-0.0608 0.391-0.433 0.0237 0.089 0.487-0.211 0.903-0.299 0.416 0.518 0.238 0.499 0.621-0.0189 0.383 0.621 0.973 0.156 0.954-0.466-0.0196-0.484 0.274-0.268 0.518s0.454 0.0455 0.434 0.378c-0.0206 0.333-0.496 0.958-0.88 0.77s-0.549 0.233-0.155 0.344 0.0136 0.956-0.329 0.637c-0.342-0.319-0.579 0.204-0.683-0.366-0.104-0.571-0.446 0.489-0.752 0.172-0.306-0.316-0.386-0.948-0.564-0.52-0.177 0.428-0.261 0.273-0.526 0.626-0.189 0.252-0.0838-0.411-0.141-0.756-0.0518 0.102-0.0967 0.208-0.111 0.29-0.038 0.23-0.0228 0.476-0.0228 0.476s0.0456 0.315 0.0228 0.468c-0.0228 0.153-0.0228 0.714-0.0228 0.714s0.0837 0.485 0.0153 0.893 0.0609 1.24 0.0609 1.24l-0.79-0.0425s0.165-0.524 0.184-1.23c0.019-0.709 0.0471-1.07 0.0679-1.44 0.0208-0.371 0.0799-0.649 0.0406-0.967-0.0178-0.143-0.0202-0.265-0.0416-0.391-0.273 0.267-0.382 0.72-0.655 1.05-0.358 0.432-0.679-0.114-1.09 0.108-0.406 0.222-1.22-0.396-0.789-0.745 0.424-0.349 0.245-0.603-0.139-0.637-0.384-0.0336-0.131-0.322-0.0998-0.595 0.0306-0.273-0.578-0.0424-0.888-0.42-0.31-0.378-0.376-0.536-0.534-0.463-0.159 0.0737-0.535-0.475-0.31-0.568 0.226-0.0934 0.544-0.256 0.182-0.491s0.681-0.205 0.372-0.444 0.468-0.407 0.245-0.76c-0.225-0.353 0.358-0.438 0.189-0.651s-0.168-0.065-0.0157-0.379c0.153-0.314 0.213-1.14 0.791-1.16 0.579-0.0131 0.2-1.01 0.69-0.945 0.491 0.0597 1.46 0.532 1.38-0.0994-0.082-0.632 0.177-0.643 0.448-0.359 0.271 0.285 0.826-0.533 0.88-0.0175 0.0545 0.515 0.485 0.202 0.737-0.0855 0.0785-0.0897 0.178-0.127 0.285-0.128z" fill="#c6e4df"/>
  <path d="m34.8 5c0.326-2e-3 0.709 0.242 0.964 0.508 0.372 0.387 0.859 0.562 1.2 1.03 0.339 0.469 0.483 0.272 0.978 0.759s-0.201 1.56 0.17 1.98c0.37 0.423 0.513 0.506-0.0838 0.539-0.597 0.0327 0.123 0.672-0.29 1.24-0.413 0.573 0.715 0.329 0.688 0.857-0.026 0.528 0.856 1.34 0.215 1.31-0.642-0.0271-0.667 0.377-0.37 0.714 0.297 0.337 0.627 0.0627 0.598 0.521-0.0283 0.459-0.684 1.32-1.22 1.06-0.53-0.26-0.757 0.322-0.214 0.474 0.544 0.153 0.0187 1.32-0.454 0.878-0.473-0.44-0.797 0.281-0.941-0.505-0.144-0.787-0.615 0.674-1.04 0.238-0.422-0.436-0.533-1.31-0.776-0.717-0.244 0.59-0.36 0.376-0.725 0.863-0.259 0.347-0.116-0.567-0.195-1.04-0.0715 0.141-0.134 0.287-0.152 0.4-0.0524 0.317-0.0314 0.656-0.0314 0.656s0.0629 0.434 0.0314 0.645c-0.0314 0.211-0.0314 0.985-0.0314 0.985s0.116 0.668 0.021 1.23c-0.0944 0.563 0.0839 1.71 0.0839 1.71l-1.09-0.0586s0.228-0.722 0.253-1.7c0.0262-0.977 0.0649-1.48 0.0935-1.99 0.0286-0.512 0.11-0.895 0.056-1.33-0.0244-0.197-0.0277-0.366-0.0574-0.539-0.377 0.368-0.527 0.992-0.902 1.45-0.493 0.595-0.936-0.157-1.5 0.149-0.56 0.306-1.68-0.546-1.09-1.03 0.584-0.481 0.337-0.832-0.192-0.878-0.529-0.0463-0.18-0.444-0.138-0.82 0.0422-0.377-0.796-0.0585-1.23-0.579-0.428-0.521-0.518-0.739-0.737-0.638-0.219 0.102-0.738-0.655-0.427-0.783 0.31-0.129 0.749-0.353 0.25-0.676s0.939-0.283 0.513-0.612c-0.425-0.329 0.646-0.561 0.336-1.05s0.493-0.604 0.259-0.897c-0.234-0.294-0.232-0.0896-0.0216-0.523 0.21-0.433 0.293-1.57 1.09-1.59 0.797-0.018 0.274-1.39 0.951-1.3 0.677 0.0823 2.01 0.734 1.9-0.137-0.113-0.871 0.244-0.887 0.618-0.495s1.14-0.735 1.22-0.0241c0.075 0.711 0.669 0.278 1.02-0.118 0.109-0.124 0.246-0.175 0.393-0.176z" fill="#a1ccc4"/>
  <path d="m37.9 21.9c-13-1.37-37.9-4.01-37.9-4.01v7.14l100 4e-3v-4c-19.8-0.873-41.8 2.67-62.1 0.866z" fill="#a9dad1"/>
 </g>
 <rect x=".00868" width="99.8" height="21" fill="none" stroke-width=".999"/>
</svg>
